%TF.GenerationSoftware,KiCad,Pcbnew,(5.1.9)-1*%
%TF.CreationDate,2021-04-12T21:57:58+01:00*%
%TF.ProjectId,Propeller_dev_board,50726f70-656c-46c6-9572-5f6465765f62,rev?*%
%TF.SameCoordinates,Original*%
%TF.FileFunction,Legend,Top*%
%TF.FilePolarity,Positive*%
%FSLAX46Y46*%
G04 Gerber Fmt 4.6, Leading zero omitted, Abs format (unit mm)*
G04 Created by KiCad (PCBNEW (5.1.9)-1) date 2021-04-12 21:57:58*
%MOMM*%
%LPD*%
G01*
G04 APERTURE LIST*
%ADD10C,0.120000*%
%ADD11C,0.150000*%
%ADD12C,0.100000*%
%ADD13C,0.125000*%
G04 APERTURE END LIST*
D10*
%TO.C,5MHz*%
X119645000Y-118147000D02*
X124195000Y-118147000D01*
X119645000Y-123100000D02*
X124195000Y-123100000D01*
X123120000Y-123063000D02*
X123120000Y-122809000D01*
X120720000Y-123063000D02*
X120720000Y-122809000D01*
%TO.C,JP1*%
X121015000Y-115059000D02*
X121015000Y-117859000D01*
X121015000Y-117859000D02*
X119015000Y-117859000D01*
X119015000Y-117859000D02*
X119015000Y-115059000D01*
X119015000Y-115059000D02*
X121015000Y-115059000D01*
%TO.C,cp2102n*%
X123903000Y-110506000D02*
X123903000Y-110031000D01*
X119683000Y-114251000D02*
X120158000Y-114251000D01*
X119683000Y-113776000D02*
X119683000Y-114251000D01*
X119683000Y-110031000D02*
X120158000Y-110031000D01*
X119683000Y-110506000D02*
X119683000Y-110031000D01*
X123903000Y-114251000D02*
X123428000Y-114251000D01*
X123903000Y-113776000D02*
X123903000Y-114251000D01*
%TO.C,U3*%
X128380000Y-95190000D02*
X122920000Y-95190000D01*
X128380000Y-146110000D02*
X128380000Y-95190000D01*
X115460000Y-146110000D02*
X128380000Y-146110000D01*
X115460000Y-95190000D02*
X115460000Y-146110000D01*
X120920000Y-95190000D02*
X115460000Y-95190000D01*
X122920000Y-95190000D02*
G75*
G02*
X120920000Y-95190000I-1000000J0D01*
G01*
%TO.C,EEPROM*%
X119360000Y-133350000D02*
X119360000Y-136800000D01*
X119360000Y-133350000D02*
X119360000Y-131400000D01*
X124480000Y-133350000D02*
X124480000Y-135300000D01*
X124480000Y-133350000D02*
X124480000Y-131400000D01*
D11*
%TO.C,NCP708*%
X121793000Y-99569000D02*
X123293000Y-99569000D01*
X120293000Y-102869000D02*
X123293000Y-102869000D01*
%TO.C,PWR_LED*%
D12*
X130274190Y-93991714D02*
X129774190Y-93991714D01*
X129774190Y-93801238D01*
X129798000Y-93753619D01*
X129821809Y-93729809D01*
X129869428Y-93706000D01*
X129940857Y-93706000D01*
X129988476Y-93729809D01*
X130012285Y-93753619D01*
X130036095Y-93801238D01*
X130036095Y-93991714D01*
X129774190Y-93539333D02*
X130274190Y-93420285D01*
X129917047Y-93325047D01*
X130274190Y-93229809D01*
X129774190Y-93110761D01*
X130274190Y-92634571D02*
X130036095Y-92801238D01*
X130274190Y-92920285D02*
X129774190Y-92920285D01*
X129774190Y-92729809D01*
X129798000Y-92682190D01*
X129821809Y-92658380D01*
X129869428Y-92634571D01*
X129940857Y-92634571D01*
X129988476Y-92658380D01*
X130012285Y-92682190D01*
X130036095Y-92729809D01*
X130036095Y-92920285D01*
X130321809Y-92539333D02*
X130321809Y-92158380D01*
X130274190Y-91801238D02*
X130274190Y-92039333D01*
X129774190Y-92039333D01*
X130012285Y-91634571D02*
X130012285Y-91467904D01*
X130274190Y-91396476D02*
X130274190Y-91634571D01*
X129774190Y-91634571D01*
X129774190Y-91396476D01*
X130274190Y-91182190D02*
X129774190Y-91182190D01*
X129774190Y-91063142D01*
X129798000Y-90991714D01*
X129845619Y-90944095D01*
X129893238Y-90920285D01*
X129988476Y-90896476D01*
X130059904Y-90896476D01*
X130155142Y-90920285D01*
X130202761Y-90944095D01*
X130250380Y-90991714D01*
X130274190Y-91063142D01*
X130274190Y-91182190D01*
%TO.C,SCL_PU*%
X119479380Y-126567380D02*
X119550809Y-126591190D01*
X119669857Y-126591190D01*
X119717476Y-126567380D01*
X119741285Y-126543571D01*
X119765095Y-126495952D01*
X119765095Y-126448333D01*
X119741285Y-126400714D01*
X119717476Y-126376904D01*
X119669857Y-126353095D01*
X119574619Y-126329285D01*
X119527000Y-126305476D01*
X119503190Y-126281666D01*
X119479380Y-126234047D01*
X119479380Y-126186428D01*
X119503190Y-126138809D01*
X119527000Y-126115000D01*
X119574619Y-126091190D01*
X119693666Y-126091190D01*
X119765095Y-126115000D01*
X120265095Y-126543571D02*
X120241285Y-126567380D01*
X120169857Y-126591190D01*
X120122238Y-126591190D01*
X120050809Y-126567380D01*
X120003190Y-126519761D01*
X119979380Y-126472142D01*
X119955571Y-126376904D01*
X119955571Y-126305476D01*
X119979380Y-126210238D01*
X120003190Y-126162619D01*
X120050809Y-126115000D01*
X120122238Y-126091190D01*
X120169857Y-126091190D01*
X120241285Y-126115000D01*
X120265095Y-126138809D01*
X120717476Y-126591190D02*
X120479380Y-126591190D01*
X120479380Y-126091190D01*
X120765095Y-126638809D02*
X121146047Y-126638809D01*
X121265095Y-126591190D02*
X121265095Y-126091190D01*
X121455571Y-126091190D01*
X121503190Y-126115000D01*
X121527000Y-126138809D01*
X121550809Y-126186428D01*
X121550809Y-126257857D01*
X121527000Y-126305476D01*
X121503190Y-126329285D01*
X121455571Y-126353095D01*
X121265095Y-126353095D01*
X121765095Y-126091190D02*
X121765095Y-126495952D01*
X121788904Y-126543571D01*
X121812714Y-126567380D01*
X121860333Y-126591190D01*
X121955571Y-126591190D01*
X122003190Y-126567380D01*
X122027000Y-126543571D01*
X122050809Y-126495952D01*
X122050809Y-126091190D01*
%TO.C,SDA_PU*%
X123277476Y-126567380D02*
X123348904Y-126591190D01*
X123467952Y-126591190D01*
X123515571Y-126567380D01*
X123539380Y-126543571D01*
X123563190Y-126495952D01*
X123563190Y-126448333D01*
X123539380Y-126400714D01*
X123515571Y-126376904D01*
X123467952Y-126353095D01*
X123372714Y-126329285D01*
X123325095Y-126305476D01*
X123301285Y-126281666D01*
X123277476Y-126234047D01*
X123277476Y-126186428D01*
X123301285Y-126138809D01*
X123325095Y-126115000D01*
X123372714Y-126091190D01*
X123491761Y-126091190D01*
X123563190Y-126115000D01*
X123777476Y-126591190D02*
X123777476Y-126091190D01*
X123896523Y-126091190D01*
X123967952Y-126115000D01*
X124015571Y-126162619D01*
X124039380Y-126210238D01*
X124063190Y-126305476D01*
X124063190Y-126376904D01*
X124039380Y-126472142D01*
X124015571Y-126519761D01*
X123967952Y-126567380D01*
X123896523Y-126591190D01*
X123777476Y-126591190D01*
X124253666Y-126448333D02*
X124491761Y-126448333D01*
X124206047Y-126591190D02*
X124372714Y-126091190D01*
X124539380Y-126591190D01*
X124587000Y-126638809D02*
X124967952Y-126638809D01*
X125087000Y-126591190D02*
X125087000Y-126091190D01*
X125277476Y-126091190D01*
X125325095Y-126115000D01*
X125348904Y-126138809D01*
X125372714Y-126186428D01*
X125372714Y-126257857D01*
X125348904Y-126305476D01*
X125325095Y-126329285D01*
X125277476Y-126353095D01*
X125087000Y-126353095D01*
X125587000Y-126091190D02*
X125587000Y-126495952D01*
X125610809Y-126543571D01*
X125634619Y-126567380D01*
X125682238Y-126591190D01*
X125777476Y-126591190D01*
X125825095Y-126567380D01*
X125848904Y-126543571D01*
X125872714Y-126495952D01*
X125872714Y-126091190D01*
%TO.C,Tx_LED*%
X114788190Y-95067285D02*
X114788190Y-94781571D01*
X115288190Y-94924428D02*
X114788190Y-94924428D01*
X115288190Y-94662523D02*
X114954857Y-94400619D01*
X114954857Y-94662523D02*
X115288190Y-94400619D01*
X115335809Y-94329190D02*
X115335809Y-93948238D01*
X115288190Y-93591095D02*
X115288190Y-93829190D01*
X114788190Y-93829190D01*
X115026285Y-93424428D02*
X115026285Y-93257761D01*
X115288190Y-93186333D02*
X115288190Y-93424428D01*
X114788190Y-93424428D01*
X114788190Y-93186333D01*
X115288190Y-92972047D02*
X114788190Y-92972047D01*
X114788190Y-92853000D01*
X114812000Y-92781571D01*
X114859619Y-92733952D01*
X114907238Y-92710142D01*
X115002476Y-92686333D01*
X115073904Y-92686333D01*
X115169142Y-92710142D01*
X115216761Y-92733952D01*
X115264380Y-92781571D01*
X115288190Y-92853000D01*
X115288190Y-92972047D01*
%TO.C,Rx_LED*%
X114835809Y-89888333D02*
X115073904Y-89721666D01*
X114835809Y-89602619D02*
X115335809Y-89602619D01*
X115335809Y-89793095D01*
X115312000Y-89840714D01*
X115288190Y-89864523D01*
X115240571Y-89888333D01*
X115169142Y-89888333D01*
X115121523Y-89864523D01*
X115097714Y-89840714D01*
X115073904Y-89793095D01*
X115073904Y-89602619D01*
X114835809Y-90055000D02*
X115169142Y-90316904D01*
X115169142Y-90055000D02*
X114835809Y-90316904D01*
X114788190Y-90388333D02*
X114788190Y-90769285D01*
X114835809Y-91126428D02*
X114835809Y-90888333D01*
X115335809Y-90888333D01*
X115097714Y-91293095D02*
X115097714Y-91459761D01*
X114835809Y-91531190D02*
X114835809Y-91293095D01*
X115335809Y-91293095D01*
X115335809Y-91531190D01*
X114835809Y-91745476D02*
X115335809Y-91745476D01*
X115335809Y-91864523D01*
X115312000Y-91935952D01*
X115264380Y-91983571D01*
X115216761Y-92007380D01*
X115121523Y-92031190D01*
X115050095Y-92031190D01*
X114954857Y-92007380D01*
X114907238Y-91983571D01*
X114859619Y-91935952D01*
X114835809Y-91864523D01*
X114835809Y-91745476D01*
%TO.C,4.7uF*%
X123757619Y-105184857D02*
X123757619Y-105518190D01*
X123638571Y-104994380D02*
X123519523Y-105351523D01*
X123829047Y-105351523D01*
X124019523Y-105470571D02*
X124043333Y-105494380D01*
X124019523Y-105518190D01*
X123995714Y-105494380D01*
X124019523Y-105470571D01*
X124019523Y-105518190D01*
X124210000Y-105018190D02*
X124543333Y-105018190D01*
X124329047Y-105518190D01*
X124948095Y-105184857D02*
X124948095Y-105518190D01*
X124733809Y-105184857D02*
X124733809Y-105446761D01*
X124757619Y-105494380D01*
X124805238Y-105518190D01*
X124876666Y-105518190D01*
X124924285Y-105494380D01*
X124948095Y-105470571D01*
X125352857Y-105256285D02*
X125186190Y-105256285D01*
X125186190Y-105518190D02*
X125186190Y-105018190D01*
X125424285Y-105018190D01*
%TO.C,RSTb_PU1*%
X118193523Y-106271190D02*
X118026857Y-106033095D01*
X117907809Y-106271190D02*
X117907809Y-105771190D01*
X118098285Y-105771190D01*
X118145904Y-105795000D01*
X118169714Y-105818809D01*
X118193523Y-105866428D01*
X118193523Y-105937857D01*
X118169714Y-105985476D01*
X118145904Y-106009285D01*
X118098285Y-106033095D01*
X117907809Y-106033095D01*
X118384000Y-106247380D02*
X118455428Y-106271190D01*
X118574476Y-106271190D01*
X118622095Y-106247380D01*
X118645904Y-106223571D01*
X118669714Y-106175952D01*
X118669714Y-106128333D01*
X118645904Y-106080714D01*
X118622095Y-106056904D01*
X118574476Y-106033095D01*
X118479238Y-106009285D01*
X118431619Y-105985476D01*
X118407809Y-105961666D01*
X118384000Y-105914047D01*
X118384000Y-105866428D01*
X118407809Y-105818809D01*
X118431619Y-105795000D01*
X118479238Y-105771190D01*
X118598285Y-105771190D01*
X118669714Y-105795000D01*
X118812571Y-105771190D02*
X119098285Y-105771190D01*
X118955428Y-106271190D02*
X118955428Y-105771190D01*
X119264952Y-106271190D02*
X119264952Y-105771190D01*
X119264952Y-105961666D02*
X119312571Y-105937857D01*
X119407809Y-105937857D01*
X119455428Y-105961666D01*
X119479238Y-105985476D01*
X119503047Y-106033095D01*
X119503047Y-106175952D01*
X119479238Y-106223571D01*
X119455428Y-106247380D01*
X119407809Y-106271190D01*
X119312571Y-106271190D01*
X119264952Y-106247380D01*
X119598285Y-106318809D02*
X119979238Y-106318809D01*
X120098285Y-106271190D02*
X120098285Y-105771190D01*
X120288761Y-105771190D01*
X120336380Y-105795000D01*
X120360190Y-105818809D01*
X120384000Y-105866428D01*
X120384000Y-105937857D01*
X120360190Y-105985476D01*
X120336380Y-106009285D01*
X120288761Y-106033095D01*
X120098285Y-106033095D01*
X120598285Y-105771190D02*
X120598285Y-106175952D01*
X120622095Y-106223571D01*
X120645904Y-106247380D01*
X120693523Y-106271190D01*
X120788761Y-106271190D01*
X120836380Y-106247380D01*
X120860190Y-106223571D01*
X120884000Y-106175952D01*
X120884000Y-105771190D01*
X121384000Y-106271190D02*
X121098285Y-106271190D01*
X121241142Y-106271190D02*
X121241142Y-105771190D01*
X121193523Y-105842619D01*
X121145904Y-105890238D01*
X121098285Y-105914047D01*
%TO.C,5MHz*%
X118725190Y-121407952D02*
X118725190Y-121646047D01*
X118963285Y-121669857D01*
X118939476Y-121646047D01*
X118915666Y-121598428D01*
X118915666Y-121479380D01*
X118939476Y-121431761D01*
X118963285Y-121407952D01*
X119010904Y-121384142D01*
X119129952Y-121384142D01*
X119177571Y-121407952D01*
X119201380Y-121431761D01*
X119225190Y-121479380D01*
X119225190Y-121598428D01*
X119201380Y-121646047D01*
X119177571Y-121669857D01*
X119225190Y-121169857D02*
X118725190Y-121169857D01*
X119082333Y-121003190D01*
X118725190Y-120836523D01*
X119225190Y-120836523D01*
X119225190Y-120598428D02*
X118725190Y-120598428D01*
X118963285Y-120598428D02*
X118963285Y-120312714D01*
X119225190Y-120312714D02*
X118725190Y-120312714D01*
X118891857Y-120122238D02*
X118891857Y-119860333D01*
X119225190Y-120122238D01*
X119225190Y-119860333D01*
%TO.C,JP1*%
D13*
X118344190Y-116890666D02*
X118701333Y-116890666D01*
X118772761Y-116914476D01*
X118820380Y-116962095D01*
X118844190Y-117033523D01*
X118844190Y-117081142D01*
X118844190Y-116652571D02*
X118344190Y-116652571D01*
X118344190Y-116462095D01*
X118368000Y-116414476D01*
X118391809Y-116390666D01*
X118439428Y-116366857D01*
X118510857Y-116366857D01*
X118558476Y-116390666D01*
X118582285Y-116414476D01*
X118606095Y-116462095D01*
X118606095Y-116652571D01*
X118844190Y-115890666D02*
X118844190Y-116176380D01*
X118844190Y-116033523D02*
X118344190Y-116033523D01*
X118415619Y-116081142D01*
X118463238Y-116128761D01*
X118487047Y-116176380D01*
%TO.C,cp2102n*%
D12*
X121523285Y-109295380D02*
X121475666Y-109319190D01*
X121380428Y-109319190D01*
X121332809Y-109295380D01*
X121309000Y-109271571D01*
X121285190Y-109223952D01*
X121285190Y-109081095D01*
X121309000Y-109033476D01*
X121332809Y-109009666D01*
X121380428Y-108985857D01*
X121475666Y-108985857D01*
X121523285Y-109009666D01*
X121737571Y-108985857D02*
X121737571Y-109485857D01*
X121737571Y-109009666D02*
X121785190Y-108985857D01*
X121880428Y-108985857D01*
X121928047Y-109009666D01*
X121951857Y-109033476D01*
X121975666Y-109081095D01*
X121975666Y-109223952D01*
X121951857Y-109271571D01*
X121928047Y-109295380D01*
X121880428Y-109319190D01*
X121785190Y-109319190D01*
X121737571Y-109295380D01*
X122166142Y-108866809D02*
X122189952Y-108843000D01*
X122237571Y-108819190D01*
X122356619Y-108819190D01*
X122404238Y-108843000D01*
X122428047Y-108866809D01*
X122451857Y-108914428D01*
X122451857Y-108962047D01*
X122428047Y-109033476D01*
X122142333Y-109319190D01*
X122451857Y-109319190D01*
X122928047Y-109319190D02*
X122642333Y-109319190D01*
X122785190Y-109319190D02*
X122785190Y-108819190D01*
X122737571Y-108890619D01*
X122689952Y-108938238D01*
X122642333Y-108962047D01*
X123237571Y-108819190D02*
X123285190Y-108819190D01*
X123332809Y-108843000D01*
X123356619Y-108866809D01*
X123380428Y-108914428D01*
X123404238Y-109009666D01*
X123404238Y-109128714D01*
X123380428Y-109223952D01*
X123356619Y-109271571D01*
X123332809Y-109295380D01*
X123285190Y-109319190D01*
X123237571Y-109319190D01*
X123189952Y-109295380D01*
X123166142Y-109271571D01*
X123142333Y-109223952D01*
X123118523Y-109128714D01*
X123118523Y-109009666D01*
X123142333Y-108914428D01*
X123166142Y-108866809D01*
X123189952Y-108843000D01*
X123237571Y-108819190D01*
X123594714Y-108866809D02*
X123618523Y-108843000D01*
X123666142Y-108819190D01*
X123785190Y-108819190D01*
X123832809Y-108843000D01*
X123856619Y-108866809D01*
X123880428Y-108914428D01*
X123880428Y-108962047D01*
X123856619Y-109033476D01*
X123570904Y-109319190D01*
X123880428Y-109319190D01*
X124094714Y-108985857D02*
X124094714Y-109319190D01*
X124094714Y-109033476D02*
X124118523Y-109009666D01*
X124166142Y-108985857D01*
X124237571Y-108985857D01*
X124285190Y-109009666D01*
X124309000Y-109057285D01*
X124309000Y-109319190D01*
%TO.C,EEPROM*%
D13*
X120412047Y-133314285D02*
X120578714Y-133314285D01*
X120650142Y-133576190D02*
X120412047Y-133576190D01*
X120412047Y-133076190D01*
X120650142Y-133076190D01*
X120864428Y-133314285D02*
X121031095Y-133314285D01*
X121102523Y-133576190D02*
X120864428Y-133576190D01*
X120864428Y-133076190D01*
X121102523Y-133076190D01*
X121316809Y-133576190D02*
X121316809Y-133076190D01*
X121507285Y-133076190D01*
X121554904Y-133100000D01*
X121578714Y-133123809D01*
X121602523Y-133171428D01*
X121602523Y-133242857D01*
X121578714Y-133290476D01*
X121554904Y-133314285D01*
X121507285Y-133338095D01*
X121316809Y-133338095D01*
X122102523Y-133576190D02*
X121935857Y-133338095D01*
X121816809Y-133576190D02*
X121816809Y-133076190D01*
X122007285Y-133076190D01*
X122054904Y-133100000D01*
X122078714Y-133123809D01*
X122102523Y-133171428D01*
X122102523Y-133242857D01*
X122078714Y-133290476D01*
X122054904Y-133314285D01*
X122007285Y-133338095D01*
X121816809Y-133338095D01*
X122412047Y-133076190D02*
X122507285Y-133076190D01*
X122554904Y-133100000D01*
X122602523Y-133147619D01*
X122626333Y-133242857D01*
X122626333Y-133409523D01*
X122602523Y-133504761D01*
X122554904Y-133552380D01*
X122507285Y-133576190D01*
X122412047Y-133576190D01*
X122364428Y-133552380D01*
X122316809Y-133504761D01*
X122293000Y-133409523D01*
X122293000Y-133242857D01*
X122316809Y-133147619D01*
X122364428Y-133100000D01*
X122412047Y-133076190D01*
X122840619Y-133576190D02*
X122840619Y-133076190D01*
X123007285Y-133433333D01*
X123173952Y-133076190D01*
X123173952Y-133576190D01*
D11*
%TO.C,NCP708*%
D12*
X119733190Y-102576142D02*
X119233190Y-102576142D01*
X119733190Y-102290428D01*
X119233190Y-102290428D01*
X119685571Y-101766619D02*
X119709380Y-101790428D01*
X119733190Y-101861857D01*
X119733190Y-101909476D01*
X119709380Y-101980904D01*
X119661761Y-102028523D01*
X119614142Y-102052333D01*
X119518904Y-102076142D01*
X119447476Y-102076142D01*
X119352238Y-102052333D01*
X119304619Y-102028523D01*
X119257000Y-101980904D01*
X119233190Y-101909476D01*
X119233190Y-101861857D01*
X119257000Y-101790428D01*
X119280809Y-101766619D01*
X119733190Y-101552333D02*
X119233190Y-101552333D01*
X119233190Y-101361857D01*
X119257000Y-101314238D01*
X119280809Y-101290428D01*
X119328428Y-101266619D01*
X119399857Y-101266619D01*
X119447476Y-101290428D01*
X119471285Y-101314238D01*
X119495095Y-101361857D01*
X119495095Y-101552333D01*
X119233190Y-101099952D02*
X119233190Y-100766619D01*
X119733190Y-100980904D01*
X119233190Y-100480904D02*
X119233190Y-100433285D01*
X119257000Y-100385666D01*
X119280809Y-100361857D01*
X119328428Y-100338047D01*
X119423666Y-100314238D01*
X119542714Y-100314238D01*
X119637952Y-100338047D01*
X119685571Y-100361857D01*
X119709380Y-100385666D01*
X119733190Y-100433285D01*
X119733190Y-100480904D01*
X119709380Y-100528523D01*
X119685571Y-100552333D01*
X119637952Y-100576142D01*
X119542714Y-100599952D01*
X119423666Y-100599952D01*
X119328428Y-100576142D01*
X119280809Y-100552333D01*
X119257000Y-100528523D01*
X119233190Y-100480904D01*
X119447476Y-100028523D02*
X119423666Y-100076142D01*
X119399857Y-100099952D01*
X119352238Y-100123761D01*
X119328428Y-100123761D01*
X119280809Y-100099952D01*
X119257000Y-100076142D01*
X119233190Y-100028523D01*
X119233190Y-99933285D01*
X119257000Y-99885666D01*
X119280809Y-99861857D01*
X119328428Y-99838047D01*
X119352238Y-99838047D01*
X119399857Y-99861857D01*
X119423666Y-99885666D01*
X119447476Y-99933285D01*
X119447476Y-100028523D01*
X119471285Y-100076142D01*
X119495095Y-100099952D01*
X119542714Y-100123761D01*
X119637952Y-100123761D01*
X119685571Y-100099952D01*
X119709380Y-100076142D01*
X119733190Y-100028523D01*
X119733190Y-99933285D01*
X119709380Y-99885666D01*
X119685571Y-99861857D01*
X119637952Y-99838047D01*
X119542714Y-99838047D01*
X119495095Y-99861857D01*
X119471285Y-99885666D01*
X119447476Y-99933285D01*
%TD*%
M02*
