%TF.GenerationSoftware,KiCad,Pcbnew,(5.1.9)-1*%
%TF.CreationDate,2021-04-12T21:57:58+01:00*%
%TF.ProjectId,Propeller_dev_board,50726f70-656c-46c6-9572-5f6465765f62,rev?*%
%TF.SameCoordinates,Original*%
%TF.FileFunction,Copper,L2,Bot*%
%TF.FilePolarity,Positive*%
%FSLAX46Y46*%
G04 Gerber Fmt 4.6, Leading zero omitted, Abs format (unit mm)*
G04 Created by KiCad (PCBNEW (5.1.9)-1) date 2021-04-12 21:57:58*
%MOMM*%
%LPD*%
G01*
G04 APERTURE LIST*
%TA.AperFunction,ComponentPad*%
%ADD10O,1.000000X2.100000*%
%TD*%
%TA.AperFunction,ComponentPad*%
%ADD11O,1.000000X1.600000*%
%TD*%
%TA.AperFunction,ComponentPad*%
%ADD12R,1.700000X1.700000*%
%TD*%
%TA.AperFunction,ComponentPad*%
%ADD13O,1.700000X1.700000*%
%TD*%
%TA.AperFunction,SMDPad,CuDef*%
%ADD14R,1.400000X1.050000*%
%TD*%
%TA.AperFunction,ComponentPad*%
%ADD15R,1.600000X1.600000*%
%TD*%
%TA.AperFunction,ComponentPad*%
%ADD16O,1.600000X1.600000*%
%TD*%
%TA.AperFunction,ViaPad*%
%ADD17C,0.800000*%
%TD*%
%TA.AperFunction,Conductor*%
%ADD18C,0.400000*%
%TD*%
%TA.AperFunction,Conductor*%
%ADD19C,0.600000*%
%TD*%
%TA.AperFunction,Conductor*%
%ADD20C,0.300000*%
%TD*%
%TA.AperFunction,Conductor*%
%ADD21C,0.250000*%
%TD*%
%TA.AperFunction,Conductor*%
%ADD22C,0.254000*%
%TD*%
%TA.AperFunction,Conductor*%
%ADD23C,0.100000*%
%TD*%
G04 APERTURE END LIST*
%TO.P,4.7uF,1*%
%TO.N,Net-(RST1-Pad1)*%
%TA.AperFunction,SMDPad,CuDef*%
G36*
G01*
X118929999Y-118415000D02*
X119830001Y-118415000D01*
G75*
G02*
X120080000Y-118664999I0J-249999D01*
G01*
X120080000Y-119315001D01*
G75*
G02*
X119830001Y-119565000I-249999J0D01*
G01*
X118929999Y-119565000D01*
G75*
G02*
X118680000Y-119315001I0J249999D01*
G01*
X118680000Y-118664999D01*
G75*
G02*
X118929999Y-118415000I249999J0D01*
G01*
G37*
%TD.AperFunction*%
%TO.P,4.7uF,2*%
%TO.N,uC_Reset*%
%TA.AperFunction,SMDPad,CuDef*%
G36*
G01*
X118929999Y-120465000D02*
X119830001Y-120465000D01*
G75*
G02*
X120080000Y-120714999I0J-249999D01*
G01*
X120080000Y-121365001D01*
G75*
G02*
X119830001Y-121615000I-249999J0D01*
G01*
X118929999Y-121615000D01*
G75*
G02*
X118680000Y-121365001I0J249999D01*
G01*
X118680000Y-120714999D01*
G75*
G02*
X118929999Y-120465000I249999J0D01*
G01*
G37*
%TD.AperFunction*%
%TD*%
D10*
%TO.P,P1,S1*%
%TO.N,GND*%
X126240000Y-93275000D03*
X117600000Y-93275000D03*
D11*
X126240000Y-89095000D03*
X117600000Y-89095000D03*
%TD*%
%TO.P,4.7uF,2*%
%TO.N,+3V3*%
%TA.AperFunction,SMDPad,CuDef*%
G36*
G01*
X123628999Y-98122000D02*
X124529001Y-98122000D01*
G75*
G02*
X124779000Y-98371999I0J-249999D01*
G01*
X124779000Y-99022001D01*
G75*
G02*
X124529001Y-99272000I-249999J0D01*
G01*
X123628999Y-99272000D01*
G75*
G02*
X123379000Y-99022001I0J249999D01*
G01*
X123379000Y-98371999D01*
G75*
G02*
X123628999Y-98122000I249999J0D01*
G01*
G37*
%TD.AperFunction*%
%TO.P,4.7uF,1*%
%TO.N,GND*%
%TA.AperFunction,SMDPad,CuDef*%
G36*
G01*
X123628999Y-96072000D02*
X124529001Y-96072000D01*
G75*
G02*
X124779000Y-96321999I0J-249999D01*
G01*
X124779000Y-96972001D01*
G75*
G02*
X124529001Y-97222000I-249999J0D01*
G01*
X123628999Y-97222000D01*
G75*
G02*
X123379000Y-96972001I0J249999D01*
G01*
X123379000Y-96321999D01*
G75*
G02*
X123628999Y-96072000I249999J0D01*
G01*
G37*
%TD.AperFunction*%
%TD*%
%TO.P,4.7uF,1*%
%TO.N,GND*%
%TA.AperFunction,SMDPad,CuDef*%
G36*
G01*
X119056999Y-96063000D02*
X119957001Y-96063000D01*
G75*
G02*
X120207000Y-96312999I0J-249999D01*
G01*
X120207000Y-96963001D01*
G75*
G02*
X119957001Y-97213000I-249999J0D01*
G01*
X119056999Y-97213000D01*
G75*
G02*
X118807000Y-96963001I0J249999D01*
G01*
X118807000Y-96312999D01*
G75*
G02*
X119056999Y-96063000I249999J0D01*
G01*
G37*
%TD.AperFunction*%
%TO.P,4.7uF,2*%
%TO.N,+5V*%
%TA.AperFunction,SMDPad,CuDef*%
G36*
G01*
X119056999Y-98113000D02*
X119957001Y-98113000D01*
G75*
G02*
X120207000Y-98362999I0J-249999D01*
G01*
X120207000Y-99013001D01*
G75*
G02*
X119957001Y-99263000I-249999J0D01*
G01*
X119056999Y-99263000D01*
G75*
G02*
X118807000Y-99013001I0J249999D01*
G01*
X118807000Y-98362999D01*
G75*
G02*
X119056999Y-98113000I249999J0D01*
G01*
G37*
%TD.AperFunction*%
%TD*%
%TO.P,5.1K,1*%
%TO.N,GND*%
%TA.AperFunction,SMDPad,CuDef*%
G36*
G01*
X120199999Y-89840000D02*
X121100001Y-89840000D01*
G75*
G02*
X121350000Y-90089999I0J-249999D01*
G01*
X121350000Y-90740001D01*
G75*
G02*
X121100001Y-90990000I-249999J0D01*
G01*
X120199999Y-90990000D01*
G75*
G02*
X119950000Y-90740001I0J249999D01*
G01*
X119950000Y-90089999D01*
G75*
G02*
X120199999Y-89840000I249999J0D01*
G01*
G37*
%TD.AperFunction*%
%TO.P,5.1K,2*%
%TO.N,Net-(P1-PadB5)*%
%TA.AperFunction,SMDPad,CuDef*%
G36*
G01*
X120199999Y-91890000D02*
X121100001Y-91890000D01*
G75*
G02*
X121350000Y-92139999I0J-249999D01*
G01*
X121350000Y-92790001D01*
G75*
G02*
X121100001Y-93040000I-249999J0D01*
G01*
X120199999Y-93040000D01*
G75*
G02*
X119950000Y-92790001I0J249999D01*
G01*
X119950000Y-92139999D01*
G75*
G02*
X120199999Y-91890000I249999J0D01*
G01*
G37*
%TD.AperFunction*%
%TD*%
%TO.P,5.1K,1*%
%TO.N,GND*%
%TA.AperFunction,SMDPad,CuDef*%
G36*
G01*
X122739999Y-89840000D02*
X123640001Y-89840000D01*
G75*
G02*
X123890000Y-90089999I0J-249999D01*
G01*
X123890000Y-90740001D01*
G75*
G02*
X123640001Y-90990000I-249999J0D01*
G01*
X122739999Y-90990000D01*
G75*
G02*
X122490000Y-90740001I0J249999D01*
G01*
X122490000Y-90089999D01*
G75*
G02*
X122739999Y-89840000I249999J0D01*
G01*
G37*
%TD.AperFunction*%
%TO.P,5.1K,2*%
%TO.N,Net-(P1-PadA5)*%
%TA.AperFunction,SMDPad,CuDef*%
G36*
G01*
X122739999Y-91890000D02*
X123640001Y-91890000D01*
G75*
G02*
X123890000Y-92139999I0J-249999D01*
G01*
X123890000Y-92790001D01*
G75*
G02*
X123640001Y-93040000I-249999J0D01*
G01*
X122739999Y-93040000D01*
G75*
G02*
X122490000Y-92790001I0J249999D01*
G01*
X122490000Y-92139999D01*
G75*
G02*
X122739999Y-91890000I249999J0D01*
G01*
G37*
%TD.AperFunction*%
%TD*%
%TO.P,470R,1*%
%TO.N,+3V3*%
%TA.AperFunction,SMDPad,CuDef*%
G36*
G01*
X129101450Y-93929000D02*
X128200550Y-93929000D01*
G75*
G02*
X127951000Y-93679450I0J249550D01*
G01*
X127951000Y-93028550D01*
G75*
G02*
X128200550Y-92779000I249550J0D01*
G01*
X129101450Y-92779000D01*
G75*
G02*
X129351000Y-93028550I0J-249550D01*
G01*
X129351000Y-93679450D01*
G75*
G02*
X129101450Y-93929000I-249550J0D01*
G01*
G37*
%TD.AperFunction*%
%TO.P,470R,2*%
%TO.N,Net-(D1-Pad2)*%
%TA.AperFunction,SMDPad,CuDef*%
G36*
G01*
X129101001Y-91879000D02*
X128200999Y-91879000D01*
G75*
G02*
X127951000Y-91629001I0J249999D01*
G01*
X127951000Y-90978999D01*
G75*
G02*
X128200999Y-90729000I249999J0D01*
G01*
X129101001Y-90729000D01*
G75*
G02*
X129351000Y-90978999I0J-249999D01*
G01*
X129351000Y-91629001D01*
G75*
G02*
X129101001Y-91879000I-249999J0D01*
G01*
G37*
%TD.AperFunction*%
%TD*%
%TO.P,VBUS1,2*%
%TO.N,Net-(U1-Pad8)*%
%TA.AperFunction,SMDPad,CuDef*%
G36*
G01*
X120465000Y-102177001D02*
X120465000Y-101276999D01*
G75*
G02*
X120714999Y-101027000I249999J0D01*
G01*
X121365001Y-101027000D01*
G75*
G02*
X121615000Y-101276999I0J-249999D01*
G01*
X121615000Y-102177001D01*
G75*
G02*
X121365001Y-102427000I-249999J0D01*
G01*
X120714999Y-102427000D01*
G75*
G02*
X120465000Y-102177001I0J249999D01*
G01*
G37*
%TD.AperFunction*%
%TO.P,VBUS1,1*%
%TO.N,+5V*%
%TA.AperFunction,SMDPad,CuDef*%
G36*
G01*
X118415000Y-102177001D02*
X118415000Y-101276999D01*
G75*
G02*
X118664999Y-101027000I249999J0D01*
G01*
X119315001Y-101027000D01*
G75*
G02*
X119565000Y-101276999I0J-249999D01*
G01*
X119565000Y-102177001D01*
G75*
G02*
X119315001Y-102427000I-249999J0D01*
G01*
X118664999Y-102427000D01*
G75*
G02*
X118415000Y-102177001I0J249999D01*
G01*
G37*
%TD.AperFunction*%
%TD*%
%TO.P,VBUS2,1*%
%TO.N,Net-(U1-Pad8)*%
%TA.AperFunction,SMDPad,CuDef*%
G36*
G01*
X122234000Y-102177001D02*
X122234000Y-101276999D01*
G75*
G02*
X122483999Y-101027000I249999J0D01*
G01*
X123134001Y-101027000D01*
G75*
G02*
X123384000Y-101276999I0J-249999D01*
G01*
X123384000Y-102177001D01*
G75*
G02*
X123134001Y-102427000I-249999J0D01*
G01*
X122483999Y-102427000D01*
G75*
G02*
X122234000Y-102177001I0J249999D01*
G01*
G37*
%TD.AperFunction*%
%TO.P,VBUS2,2*%
%TO.N,GND*%
%TA.AperFunction,SMDPad,CuDef*%
G36*
G01*
X124284000Y-102177001D02*
X124284000Y-101276999D01*
G75*
G02*
X124533999Y-101027000I249999J0D01*
G01*
X125184001Y-101027000D01*
G75*
G02*
X125434000Y-101276999I0J-249999D01*
G01*
X125434000Y-102177001D01*
G75*
G02*
X125184001Y-102427000I-249999J0D01*
G01*
X124533999Y-102427000D01*
G75*
G02*
X124284000Y-102177001I0J249999D01*
G01*
G37*
%TD.AperFunction*%
%TD*%
%TO.P,Rx_res1,2*%
%TO.N,Net-(R_LED1-Pad2)*%
%TA.AperFunction,SMDPad,CuDef*%
G36*
G01*
X115512000Y-91890001D02*
X115512000Y-90989999D01*
G75*
G02*
X115761999Y-90740000I249999J0D01*
G01*
X116412001Y-90740000D01*
G75*
G02*
X116662000Y-90989999I0J-249999D01*
G01*
X116662000Y-91890001D01*
G75*
G02*
X116412001Y-92140000I-249999J0D01*
G01*
X115761999Y-92140000D01*
G75*
G02*
X115512000Y-91890001I0J249999D01*
G01*
G37*
%TD.AperFunction*%
%TO.P,Rx_res1,1*%
%TO.N,+3V3*%
%TA.AperFunction,SMDPad,CuDef*%
G36*
G01*
X113462000Y-91890001D02*
X113462000Y-90989999D01*
G75*
G02*
X113711999Y-90740000I249999J0D01*
G01*
X114362001Y-90740000D01*
G75*
G02*
X114612000Y-90989999I0J-249999D01*
G01*
X114612000Y-91890001D01*
G75*
G02*
X114362001Y-92140000I-249999J0D01*
G01*
X113711999Y-92140000D01*
G75*
G02*
X113462000Y-91890001I0J249999D01*
G01*
G37*
%TD.AperFunction*%
%TD*%
%TO.P,Tx_res1,1*%
%TO.N,Net-(T_LED1-Pad2)*%
%TA.AperFunction,SMDPad,CuDef*%
G36*
G01*
X116780000Y-92894999D02*
X116780000Y-93795001D01*
G75*
G02*
X116530001Y-94045000I-249999J0D01*
G01*
X115879999Y-94045000D01*
G75*
G02*
X115630000Y-93795001I0J249999D01*
G01*
X115630000Y-92894999D01*
G75*
G02*
X115879999Y-92645000I249999J0D01*
G01*
X116530001Y-92645000D01*
G75*
G02*
X116780000Y-92894999I0J-249999D01*
G01*
G37*
%TD.AperFunction*%
%TO.P,Tx_res1,2*%
%TO.N,+3V3*%
%TA.AperFunction,SMDPad,CuDef*%
G36*
G01*
X114730000Y-92894999D02*
X114730000Y-93795001D01*
G75*
G02*
X114480001Y-94045000I-249999J0D01*
G01*
X113829999Y-94045000D01*
G75*
G02*
X113580000Y-93795001I0J249999D01*
G01*
X113580000Y-92894999D01*
G75*
G02*
X113829999Y-92645000I249999J0D01*
G01*
X114480001Y-92645000D01*
G75*
G02*
X114730000Y-92894999I0J-249999D01*
G01*
G37*
%TD.AperFunction*%
%TD*%
D12*
%TO.P,J1,1*%
%TO.N,P15*%
X116840000Y-144780000D03*
D13*
%TO.P,J1,2*%
%TO.N,P14*%
X116840000Y-142240000D03*
%TO.P,J1,3*%
%TO.N,P13*%
X116840000Y-139700000D03*
%TO.P,J1,4*%
%TO.N,P12*%
X116840000Y-137160000D03*
%TO.P,J1,5*%
%TO.N,P11*%
X116840000Y-134620000D03*
%TO.P,J1,6*%
%TO.N,P10*%
X116840000Y-132080000D03*
%TO.P,J1,7*%
%TO.N,P9*%
X116840000Y-129540000D03*
%TO.P,J1,8*%
%TO.N,P8*%
X116840000Y-127000000D03*
%TO.P,J1,9*%
%TO.N,+3V3*%
X116840000Y-124460000D03*
%TO.P,J1,10*%
%TO.N,uC_Reset*%
X116840000Y-121920000D03*
%TO.P,J1,11*%
%TO.N,BOE*%
X116840000Y-119380000D03*
%TO.P,J1,12*%
%TO.N,GND*%
X116840000Y-116840000D03*
%TO.P,J1,13*%
%TO.N,P7*%
X116840000Y-114300000D03*
%TO.P,J1,14*%
%TO.N,P6*%
X116840000Y-111760000D03*
%TO.P,J1,15*%
%TO.N,P5*%
X116840000Y-109220000D03*
%TO.P,J1,16*%
%TO.N,P4*%
X116840000Y-106680000D03*
%TO.P,J1,17*%
%TO.N,P3*%
X116840000Y-104140000D03*
%TO.P,J1,18*%
%TO.N,P2*%
X116840000Y-101600000D03*
%TO.P,J1,19*%
%TO.N,P1*%
X116840000Y-99060000D03*
%TO.P,J1,20*%
%TO.N,P0*%
X116840000Y-96520000D03*
%TD*%
%TO.P,J2,20*%
%TO.N,P16*%
X127000000Y-144780000D03*
%TO.P,J2,19*%
%TO.N,P17*%
X127000000Y-142240000D03*
%TO.P,J2,18*%
%TO.N,P18*%
X127000000Y-139700000D03*
%TO.P,J2,17*%
%TO.N,P19*%
X127000000Y-137160000D03*
%TO.P,J2,16*%
%TO.N,P20*%
X127000000Y-134620000D03*
%TO.P,J2,15*%
%TO.N,P21*%
X127000000Y-132080000D03*
%TO.P,J2,14*%
%TO.N,P22*%
X127000000Y-129540000D03*
%TO.P,J2,13*%
%TO.N,P23*%
X127000000Y-127000000D03*
%TO.P,J2,12*%
%TO.N,GND*%
X127000000Y-124460000D03*
%TO.P,J2,11*%
%TO.N,XI*%
X127000000Y-121920000D03*
%TO.P,J2,10*%
%TO.N,XO*%
X127000000Y-119380000D03*
%TO.P,J2,9*%
%TO.N,+3V3*%
X127000000Y-116840000D03*
%TO.P,J2,8*%
%TO.N,P24*%
X127000000Y-114300000D03*
%TO.P,J2,7*%
%TO.N,P25*%
X127000000Y-111760000D03*
%TO.P,J2,6*%
%TO.N,P26*%
X127000000Y-109220000D03*
%TO.P,J2,5*%
%TO.N,P27*%
X127000000Y-106680000D03*
%TO.P,J2,4*%
%TO.N,SCL*%
X127000000Y-104140000D03*
%TO.P,J2,3*%
%TO.N,SDA*%
X127000000Y-101600000D03*
%TO.P,J2,2*%
%TO.N,uC_Tx*%
X127000000Y-99060000D03*
D12*
%TO.P,J2,1*%
%TO.N,uC_Rx*%
X127000000Y-96520000D03*
%TD*%
D14*
%TO.P,SW1,1*%
%TO.N,GND*%
X120120000Y-144060000D03*
X123720000Y-144060000D03*
%TO.P,SW1,2*%
%TO.N,uC_Reset*%
X120120000Y-145500000D03*
X123720000Y-145500000D03*
%TD*%
D15*
%TO.P,U3,1*%
%TO.N,P0*%
X114300000Y-96520000D03*
D16*
%TO.P,U3,21*%
%TO.N,P16*%
X129540000Y-144780000D03*
%TO.P,U3,2*%
%TO.N,P1*%
X114300000Y-99060000D03*
%TO.P,U3,22*%
%TO.N,P17*%
X129540000Y-142240000D03*
%TO.P,U3,3*%
%TO.N,P2*%
X114300000Y-101600000D03*
%TO.P,U3,23*%
%TO.N,P18*%
X129540000Y-139700000D03*
%TO.P,U3,4*%
%TO.N,P3*%
X114300000Y-104140000D03*
%TO.P,U3,24*%
%TO.N,P19*%
X129540000Y-137160000D03*
%TO.P,U3,5*%
%TO.N,P4*%
X114300000Y-106680000D03*
%TO.P,U3,25*%
%TO.N,P20*%
X129540000Y-134620000D03*
%TO.P,U3,6*%
%TO.N,P5*%
X114300000Y-109220000D03*
%TO.P,U3,26*%
%TO.N,P21*%
X129540000Y-132080000D03*
%TO.P,U3,7*%
%TO.N,P6*%
X114300000Y-111760000D03*
%TO.P,U3,27*%
%TO.N,P22*%
X129540000Y-129540000D03*
%TO.P,U3,8*%
%TO.N,P7*%
X114300000Y-114300000D03*
%TO.P,U3,28*%
%TO.N,P23*%
X129540000Y-127000000D03*
%TO.P,U3,9*%
%TO.N,GND*%
X114300000Y-116840000D03*
%TO.P,U3,29*%
X129540000Y-124460000D03*
%TO.P,U3,10*%
%TO.N,BOE*%
X114300000Y-119380000D03*
%TO.P,U3,30*%
%TO.N,XI*%
X129540000Y-121920000D03*
%TO.P,U3,11*%
%TO.N,uC_Reset*%
X114300000Y-121920000D03*
%TO.P,U3,31*%
%TO.N,XO*%
X129540000Y-119380000D03*
%TO.P,U3,12*%
%TO.N,+3V3*%
X114300000Y-124460000D03*
%TO.P,U3,32*%
X129540000Y-116840000D03*
%TO.P,U3,13*%
%TO.N,P8*%
X114300000Y-127000000D03*
%TO.P,U3,33*%
%TO.N,P24*%
X129540000Y-114300000D03*
%TO.P,U3,14*%
%TO.N,P9*%
X114300000Y-129540000D03*
%TO.P,U3,34*%
%TO.N,P25*%
X129540000Y-111760000D03*
%TO.P,U3,15*%
%TO.N,P10*%
X114300000Y-132080000D03*
%TO.P,U3,35*%
%TO.N,P26*%
X129540000Y-109220000D03*
%TO.P,U3,16*%
%TO.N,P11*%
X114300000Y-134620000D03*
%TO.P,U3,36*%
%TO.N,P27*%
X129540000Y-106680000D03*
%TO.P,U3,17*%
%TO.N,P12*%
X114300000Y-137160000D03*
%TO.P,U3,37*%
%TO.N,SCL*%
X129540000Y-104140000D03*
%TO.P,U3,18*%
%TO.N,P13*%
X114300000Y-139700000D03*
%TO.P,U3,38*%
%TO.N,SDA*%
X129540000Y-101600000D03*
%TO.P,U3,19*%
%TO.N,P14*%
X114300000Y-142240000D03*
%TO.P,U3,39*%
%TO.N,uC_Tx*%
X129540000Y-99060000D03*
%TO.P,U3,20*%
%TO.N,P15*%
X114300000Y-144780000D03*
%TO.P,U3,40*%
%TO.N,uC_Rx*%
X129540000Y-96520000D03*
%TD*%
D17*
%TO.N,+5V*%
X119507000Y-98688000D03*
X123825000Y-95377000D03*
X120269000Y-95377000D03*
%TO.N,GND*%
X124968000Y-120650000D03*
X120015000Y-115809000D03*
X121285000Y-137795000D03*
X123190000Y-90415000D03*
X120650000Y-90415000D03*
X121031000Y-112141000D03*
X119507000Y-96638000D03*
X124079000Y-96647000D03*
X124859000Y-101727000D03*
%TO.N,+3V3*%
X123825000Y-123825000D03*
X124079000Y-98697000D03*
X123825000Y-114935000D03*
X120811010Y-109127010D03*
%TO.N,SCL*%
X121920000Y-127390000D03*
%TO.N,Net-(RST1-Pad1)*%
X124629142Y-111421142D03*
%TO.N,Net-(RSTb_PU1-Pad2)*%
X118745000Y-111887000D03*
X119761000Y-107070000D03*
%TO.N,Net-(U1-Pad8)*%
X118745000Y-110109000D03*
X119414990Y-103759000D03*
X120864990Y-103505000D03*
%TO.N,SDA*%
X123825000Y-127390000D03*
%TO.N,Net-(D1-Pad2)*%
X128651000Y-91313000D03*
%TO.N,Net-(P1-PadB5)*%
X120650000Y-92465000D03*
%TO.N,D-*%
X121285000Y-98818999D03*
X121561010Y-106553000D03*
X122682000Y-97790000D03*
%TO.N,D+*%
X122285003Y-98818999D03*
X122537169Y-106789169D03*
%TO.N,Net-(P1-PadA5)*%
X123190000Y-92465000D03*
%TO.N,Net-(R_LED1-Pad2)*%
X116205000Y-91313000D03*
%TO.N,Net-(T_LED1-Pad2)*%
X116205000Y-93345000D03*
%TD*%
D18*
%TO.N,+5V*%
X118990000Y-99205000D02*
X119507000Y-98688000D01*
X118990000Y-101727000D02*
X118990000Y-99205000D01*
X120269000Y-95377000D02*
X123825000Y-95377000D01*
D19*
%TO.N,GND*%
X127000000Y-124460000D02*
X129540000Y-124460000D01*
X116840000Y-116840000D02*
X114300000Y-116840000D01*
X124968000Y-122428000D02*
X127000000Y-124460000D01*
X124968000Y-120650000D02*
X124968000Y-122428000D01*
X122689999Y-143029999D02*
X123720000Y-144060000D01*
X121150001Y-143029999D02*
X122689999Y-143029999D01*
X120120000Y-144060000D02*
X121150001Y-143029999D01*
D20*
X120120000Y-144060000D02*
X120120000Y-138960000D01*
X120120000Y-138960000D02*
X121285000Y-137795000D01*
D18*
X120650000Y-90415000D02*
X123190000Y-90415000D01*
D21*
X120015000Y-113157000D02*
X121031000Y-112141000D01*
X120015000Y-115809000D02*
X120015000Y-113157000D01*
D19*
%TO.N,+3V3*%
X127000000Y-116840000D02*
X129540000Y-116840000D01*
X116840000Y-124460000D02*
X114300000Y-124460000D01*
X127000000Y-117285998D02*
X127000000Y-116840000D01*
X123825000Y-120460998D02*
X127000000Y-117285998D01*
X123825000Y-123825000D02*
X123825000Y-120460998D01*
D21*
X125646259Y-94397999D02*
X125898270Y-94650010D01*
X118781999Y-94774999D02*
X119158999Y-94397999D01*
X127100990Y-94650010D02*
X128397000Y-93354000D01*
X125898270Y-94650010D02*
X127100990Y-94650010D01*
D20*
X118781999Y-94774999D02*
X117347904Y-94774999D01*
D18*
X114510744Y-93345000D02*
X114155000Y-93345000D01*
X115940743Y-94774999D02*
X114510744Y-93345000D01*
X117347904Y-94774999D02*
X115940743Y-94774999D01*
X114155000Y-91558000D02*
X114037000Y-91440000D01*
X114155000Y-93345000D02*
X114155000Y-91558000D01*
D20*
X126431001Y-95319999D02*
X128397000Y-93354000D01*
X125799999Y-95389999D02*
X125869999Y-95319999D01*
X125869999Y-95319999D02*
X126431001Y-95319999D01*
X125799999Y-97676001D02*
X125799999Y-95389999D01*
X124779000Y-98697000D02*
X125799999Y-97676001D01*
X124079000Y-98697000D02*
X124779000Y-98697000D01*
D18*
X123825000Y-112141000D02*
X123825000Y-114935000D01*
X120811010Y-109127010D02*
X123825000Y-112141000D01*
X125799999Y-95389999D02*
X125107999Y-95389999D01*
X125107999Y-95389999D02*
X124115999Y-94397999D01*
D21*
X124115999Y-94397999D02*
X125646259Y-94397999D01*
X119158999Y-94397999D02*
X124115999Y-94397999D01*
D18*
X124115999Y-94397999D02*
X125540193Y-94397999D01*
X125540193Y-94397999D02*
X126138194Y-94996000D01*
X126111000Y-94742000D02*
X126365000Y-94996000D01*
X125095000Y-94996000D02*
X124841000Y-94742000D01*
X126138194Y-94996000D02*
X125095000Y-94996000D01*
X124841000Y-94742000D02*
X126111000Y-94742000D01*
X126635990Y-94725010D02*
X127279990Y-94725010D01*
X126365000Y-94996000D02*
X126635990Y-94725010D01*
X127279990Y-94725010D02*
X128651000Y-93354000D01*
X125095000Y-94996000D02*
X124714000Y-94615000D01*
D19*
%TO.N,uC_Reset*%
X114300000Y-121920000D02*
X116840000Y-121920000D01*
X118500000Y-121920000D02*
X119380000Y-121040000D01*
X116840000Y-121920000D02*
X118500000Y-121920000D01*
X123034998Y-145500000D02*
X123720000Y-145500000D01*
X122364997Y-144829999D02*
X123034998Y-145500000D01*
X120841998Y-145500000D02*
X121511999Y-144829999D01*
X121511999Y-144829999D02*
X122364997Y-144829999D01*
X120120000Y-145500000D02*
X120841998Y-145500000D01*
X118919999Y-121500001D02*
X119380000Y-121040000D01*
X118919999Y-144985001D02*
X118919999Y-121500001D01*
X119434998Y-145500000D02*
X118919999Y-144985001D01*
X120120000Y-145500000D02*
X119434998Y-145500000D01*
%TO.N,P0*%
X116840000Y-96520000D02*
X114300000Y-96520000D01*
%TO.N,P1*%
X114300000Y-99060000D02*
X116840000Y-99060000D01*
%TO.N,P2*%
X116840000Y-101600000D02*
X114300000Y-101600000D01*
%TO.N,P3*%
X114300000Y-104140000D02*
X116840000Y-104140000D01*
%TO.N,P4*%
X116840000Y-106680000D02*
X114300000Y-106680000D01*
%TO.N,P5*%
X114300000Y-109220000D02*
X116840000Y-109220000D01*
%TO.N,P6*%
X116840000Y-111760000D02*
X114300000Y-111760000D01*
%TO.N,P7*%
X114300000Y-114300000D02*
X116840000Y-114300000D01*
%TO.N,P8*%
X114300000Y-127000000D02*
X116840000Y-127000000D01*
%TO.N,P9*%
X116840000Y-129540000D02*
X114300000Y-129540000D01*
%TO.N,P10*%
X114300000Y-132080000D02*
X116840000Y-132080000D01*
%TO.N,P11*%
X116840000Y-134620000D02*
X114300000Y-134620000D01*
%TO.N,P12*%
X116840000Y-137160000D02*
X114300000Y-137160000D01*
%TO.N,P13*%
X116840000Y-139700000D02*
X114300000Y-139700000D01*
%TO.N,P14*%
X116840000Y-142240000D02*
X114300000Y-142240000D01*
%TO.N,P15*%
X116840000Y-144780000D02*
X114300000Y-144780000D01*
%TO.N,P16*%
X127000000Y-144780000D02*
X129540000Y-144780000D01*
%TO.N,P17*%
X127000000Y-142240000D02*
X129540000Y-142240000D01*
%TO.N,P18*%
X127000000Y-139700000D02*
X129540000Y-139700000D01*
%TO.N,P19*%
X127000000Y-137160000D02*
X129540000Y-137160000D01*
%TO.N,P20*%
X127000000Y-134620000D02*
X129540000Y-134620000D01*
%TO.N,P21*%
X127000000Y-132080000D02*
X129540000Y-132080000D01*
%TO.N,P22*%
X127000000Y-129540000D02*
X129540000Y-129540000D01*
%TO.N,P23*%
X127000000Y-127000000D02*
X129540000Y-127000000D01*
%TO.N,P24*%
X127000000Y-114300000D02*
X129540000Y-114300000D01*
%TO.N,P25*%
X127000000Y-111760000D02*
X129540000Y-111760000D01*
%TO.N,P26*%
X127000000Y-109220000D02*
X129540000Y-109220000D01*
%TO.N,P27*%
X127000000Y-106680000D02*
X129540000Y-106680000D01*
%TO.N,SCL*%
X127000000Y-104140000D02*
X129540000Y-104140000D01*
D21*
X125824999Y-105315001D02*
X125824999Y-117569999D01*
X127000000Y-104140000D02*
X125824999Y-105315001D01*
X125824999Y-117569999D02*
X121920000Y-121474998D01*
X121920000Y-121474998D02*
X121920000Y-127390000D01*
D19*
%TO.N,uC_Tx*%
X127000000Y-99060000D02*
X129540000Y-99060000D01*
%TO.N,uC_Rx*%
X127000000Y-96520000D02*
X129540000Y-96520000D01*
D21*
%TO.N,Net-(RST1-Pad1)*%
X120913000Y-118990000D02*
X119380000Y-118990000D01*
X124629142Y-111421142D02*
X124629142Y-115273858D01*
X124629142Y-115273858D02*
X120913000Y-118990000D01*
%TO.N,Net-(RSTb_PU1-Pad2)*%
X118745000Y-111887000D02*
X118745000Y-111379000D01*
X118745000Y-111379000D02*
X119761000Y-110363000D01*
X119761000Y-110363000D02*
X119761000Y-107070000D01*
D18*
%TO.N,Net-(U1-Pad8)*%
X122809000Y-101727000D02*
X121040000Y-101727000D01*
D21*
X118745000Y-110109000D02*
X118745000Y-104022000D01*
X118745000Y-104022000D02*
X119151990Y-104022000D01*
X119151990Y-104022000D02*
X119414990Y-103759000D01*
X120864990Y-101902010D02*
X121040000Y-101727000D01*
X120864990Y-103505000D02*
X120864990Y-101902010D01*
D19*
%TO.N,SDA*%
X127000000Y-101600000D02*
X129540000Y-101600000D01*
D21*
X125374989Y-103225011D02*
X127000000Y-101600000D01*
X123099999Y-128115001D02*
X121571999Y-128115001D01*
X125374989Y-117383599D02*
X125374989Y-103225011D01*
X123825000Y-127390000D02*
X123099999Y-128115001D01*
X121194999Y-127738001D02*
X121194999Y-121563589D01*
X121571999Y-128115001D02*
X121194999Y-127738001D01*
X121194999Y-121563589D02*
X125374989Y-117383599D01*
D19*
%TO.N,XI*%
X127000000Y-121920000D02*
X129540000Y-121920000D01*
%TO.N,XO*%
X127000000Y-119380000D02*
X129540000Y-119380000D01*
%TO.N,BOE*%
X114300000Y-119380000D02*
X116840000Y-119380000D01*
D21*
%TO.N,D-*%
X121285000Y-98818999D02*
X120139990Y-99964009D01*
X120139990Y-105131980D02*
X121561010Y-106553000D01*
X120139990Y-99964009D02*
X120139990Y-105131980D01*
X121748314Y-97790000D02*
X122682000Y-97790000D01*
X121285000Y-98253314D02*
X121748314Y-97790000D01*
X121285000Y-98818999D02*
X121285000Y-98253314D01*
%TO.N,D+*%
X123709010Y-100243006D02*
X122285003Y-98818999D01*
X123709010Y-102415180D02*
X123709010Y-100243006D01*
X122555000Y-103569190D02*
X123709010Y-102415180D01*
X122537169Y-106456157D02*
X122537169Y-106789169D01*
X122555000Y-106771338D02*
X122537169Y-106789169D01*
X122555000Y-103569190D02*
X122555000Y-106771338D01*
%TD*%
D22*
%TO.N,GND*%
X125684010Y-120083411D02*
X125846525Y-120326632D01*
X126053368Y-120533475D01*
X126227760Y-120650000D01*
X126053368Y-120766525D01*
X125846525Y-120973368D01*
X125684010Y-121216589D01*
X125572068Y-121486842D01*
X125515000Y-121773740D01*
X125515000Y-122066260D01*
X125572068Y-122353158D01*
X125684010Y-122623411D01*
X125846525Y-122866632D01*
X126053368Y-123073475D01*
X126235534Y-123195195D01*
X126118645Y-123264822D01*
X125902412Y-123459731D01*
X125728359Y-123693080D01*
X125603175Y-123955901D01*
X125558524Y-124103110D01*
X125679845Y-124333000D01*
X126873000Y-124333000D01*
X126873000Y-124313000D01*
X127127000Y-124313000D01*
X127127000Y-124333000D01*
X129413000Y-124333000D01*
X129413000Y-124313000D01*
X129667000Y-124313000D01*
X129667000Y-124333000D01*
X129687000Y-124333000D01*
X129687000Y-124587000D01*
X129667000Y-124587000D01*
X129667000Y-124607000D01*
X129413000Y-124607000D01*
X129413000Y-124587000D01*
X127127000Y-124587000D01*
X127127000Y-124607000D01*
X126873000Y-124607000D01*
X126873000Y-124587000D01*
X125679845Y-124587000D01*
X125558524Y-124816890D01*
X125603175Y-124964099D01*
X125728359Y-125226920D01*
X125902412Y-125460269D01*
X126118645Y-125655178D01*
X126235534Y-125724805D01*
X126053368Y-125846525D01*
X125846525Y-126053368D01*
X125684010Y-126296589D01*
X125572068Y-126566842D01*
X125515000Y-126853740D01*
X125515000Y-127146260D01*
X125572068Y-127433158D01*
X125684010Y-127703411D01*
X125846525Y-127946632D01*
X126053368Y-128153475D01*
X126227760Y-128270000D01*
X126053368Y-128386525D01*
X125846525Y-128593368D01*
X125684010Y-128836589D01*
X125572068Y-129106842D01*
X125515000Y-129393740D01*
X125515000Y-129686260D01*
X125572068Y-129973158D01*
X125684010Y-130243411D01*
X125846525Y-130486632D01*
X126053368Y-130693475D01*
X126227760Y-130810000D01*
X126053368Y-130926525D01*
X125846525Y-131133368D01*
X125684010Y-131376589D01*
X125572068Y-131646842D01*
X125515000Y-131933740D01*
X125515000Y-132226260D01*
X125572068Y-132513158D01*
X125684010Y-132783411D01*
X125846525Y-133026632D01*
X126053368Y-133233475D01*
X126227760Y-133350000D01*
X126053368Y-133466525D01*
X125846525Y-133673368D01*
X125684010Y-133916589D01*
X125572068Y-134186842D01*
X125515000Y-134473740D01*
X125515000Y-134766260D01*
X125572068Y-135053158D01*
X125684010Y-135323411D01*
X125846525Y-135566632D01*
X126053368Y-135773475D01*
X126227760Y-135890000D01*
X126053368Y-136006525D01*
X125846525Y-136213368D01*
X125684010Y-136456589D01*
X125572068Y-136726842D01*
X125515000Y-137013740D01*
X125515000Y-137306260D01*
X125572068Y-137593158D01*
X125684010Y-137863411D01*
X125846525Y-138106632D01*
X126053368Y-138313475D01*
X126227760Y-138430000D01*
X126053368Y-138546525D01*
X125846525Y-138753368D01*
X125684010Y-138996589D01*
X125572068Y-139266842D01*
X125515000Y-139553740D01*
X125515000Y-139846260D01*
X125572068Y-140133158D01*
X125684010Y-140403411D01*
X125846525Y-140646632D01*
X126053368Y-140853475D01*
X126227760Y-140970000D01*
X126053368Y-141086525D01*
X125846525Y-141293368D01*
X125684010Y-141536589D01*
X125572068Y-141806842D01*
X125515000Y-142093740D01*
X125515000Y-142386260D01*
X125572068Y-142673158D01*
X125684010Y-142943411D01*
X125846525Y-143186632D01*
X126053368Y-143393475D01*
X126227760Y-143510000D01*
X126053368Y-143626525D01*
X125846525Y-143833368D01*
X125684010Y-144076589D01*
X125572068Y-144346842D01*
X125515000Y-144633740D01*
X125515000Y-144926260D01*
X125572068Y-145213158D01*
X125684010Y-145483411D01*
X125846525Y-145726632D01*
X125890893Y-145771000D01*
X125058072Y-145771000D01*
X125058072Y-144975000D01*
X125045812Y-144850518D01*
X125024421Y-144780000D01*
X125045812Y-144709482D01*
X125058072Y-144585000D01*
X125055000Y-144345750D01*
X124896250Y-144187000D01*
X123847000Y-144187000D01*
X123847000Y-144207000D01*
X123593000Y-144207000D01*
X123593000Y-144187000D01*
X123573000Y-144187000D01*
X123573000Y-143933000D01*
X123593000Y-143933000D01*
X123593000Y-143058750D01*
X123847000Y-143058750D01*
X123847000Y-143933000D01*
X124896250Y-143933000D01*
X125055000Y-143774250D01*
X125058072Y-143535000D01*
X125045812Y-143410518D01*
X125009502Y-143290820D01*
X124950537Y-143180506D01*
X124871185Y-143083815D01*
X124774494Y-143004463D01*
X124664180Y-142945498D01*
X124544482Y-142909188D01*
X124420000Y-142896928D01*
X124005750Y-142900000D01*
X123847000Y-143058750D01*
X123593000Y-143058750D01*
X123434250Y-142900000D01*
X123020000Y-142896928D01*
X122895518Y-142909188D01*
X122775820Y-142945498D01*
X122665506Y-143004463D01*
X122568815Y-143083815D01*
X122544932Y-143112917D01*
X122386572Y-143007104D01*
X122207314Y-142932853D01*
X122017014Y-142895000D01*
X121822986Y-142895000D01*
X121632686Y-142932853D01*
X121453428Y-143007104D01*
X121295068Y-143112917D01*
X121271185Y-143083815D01*
X121174494Y-143004463D01*
X121064180Y-142945498D01*
X120944482Y-142909188D01*
X120820000Y-142896928D01*
X120405750Y-142900000D01*
X120247000Y-143058750D01*
X120247000Y-143933000D01*
X120267000Y-143933000D01*
X120267000Y-144187000D01*
X120247000Y-144187000D01*
X120247000Y-144207000D01*
X119993000Y-144207000D01*
X119993000Y-144187000D01*
X119973000Y-144187000D01*
X119973000Y-143933000D01*
X119993000Y-143933000D01*
X119993000Y-143058750D01*
X119854999Y-142920749D01*
X119854999Y-122250610D01*
X120003255Y-122236008D01*
X120169851Y-122185472D01*
X120323387Y-122103405D01*
X120435000Y-122011807D01*
X120434999Y-127700678D01*
X120431323Y-127738001D01*
X120434999Y-127775323D01*
X120434999Y-127775333D01*
X120445996Y-127886986D01*
X120489453Y-128030247D01*
X120560025Y-128162277D01*
X120586008Y-128193937D01*
X120654998Y-128278002D01*
X120684002Y-128301805D01*
X121008195Y-128625998D01*
X121031998Y-128655002D01*
X121147723Y-128749975D01*
X121279752Y-128820547D01*
X121423013Y-128864004D01*
X121571999Y-128878678D01*
X121609332Y-128875001D01*
X123062677Y-128875001D01*
X123099999Y-128878677D01*
X123137321Y-128875001D01*
X123137332Y-128875001D01*
X123248985Y-128864004D01*
X123392246Y-128820547D01*
X123524275Y-128749975D01*
X123640000Y-128655002D01*
X123663802Y-128625999D01*
X123864801Y-128425000D01*
X123926939Y-128425000D01*
X124126898Y-128385226D01*
X124315256Y-128307205D01*
X124484774Y-128193937D01*
X124628937Y-128049774D01*
X124742205Y-127880256D01*
X124820226Y-127691898D01*
X124860000Y-127491939D01*
X124860000Y-127288061D01*
X124820226Y-127088102D01*
X124742205Y-126899744D01*
X124628937Y-126730226D01*
X124484774Y-126586063D01*
X124315256Y-126472795D01*
X124126898Y-126394774D01*
X123926939Y-126355000D01*
X123723061Y-126355000D01*
X123523102Y-126394774D01*
X123334744Y-126472795D01*
X123165226Y-126586063D01*
X123021063Y-126730226D01*
X122907795Y-126899744D01*
X122872500Y-126984953D01*
X122837205Y-126899744D01*
X122723937Y-126730226D01*
X122680000Y-126686289D01*
X122680000Y-121789799D01*
X122890001Y-121579798D01*
X122890000Y-123377704D01*
X122829774Y-123523102D01*
X122790000Y-123723061D01*
X122790000Y-123926939D01*
X122829774Y-124126898D01*
X122907795Y-124315256D01*
X123021063Y-124484774D01*
X123165226Y-124628937D01*
X123334744Y-124742205D01*
X123523102Y-124820226D01*
X123723061Y-124860000D01*
X123926939Y-124860000D01*
X124126898Y-124820226D01*
X124315256Y-124742205D01*
X124484774Y-124628937D01*
X124628937Y-124484774D01*
X124742205Y-124315256D01*
X124820226Y-124126898D01*
X124860000Y-123926939D01*
X124860000Y-123723061D01*
X124820226Y-123523102D01*
X124760000Y-123377705D01*
X124760000Y-120848287D01*
X125637401Y-119970886D01*
X125684010Y-120083411D01*
%TA.AperFunction,Conductor*%
D23*
G36*
X125684010Y-120083411D02*
G01*
X125846525Y-120326632D01*
X126053368Y-120533475D01*
X126227760Y-120650000D01*
X126053368Y-120766525D01*
X125846525Y-120973368D01*
X125684010Y-121216589D01*
X125572068Y-121486842D01*
X125515000Y-121773740D01*
X125515000Y-122066260D01*
X125572068Y-122353158D01*
X125684010Y-122623411D01*
X125846525Y-122866632D01*
X126053368Y-123073475D01*
X126235534Y-123195195D01*
X126118645Y-123264822D01*
X125902412Y-123459731D01*
X125728359Y-123693080D01*
X125603175Y-123955901D01*
X125558524Y-124103110D01*
X125679845Y-124333000D01*
X126873000Y-124333000D01*
X126873000Y-124313000D01*
X127127000Y-124313000D01*
X127127000Y-124333000D01*
X129413000Y-124333000D01*
X129413000Y-124313000D01*
X129667000Y-124313000D01*
X129667000Y-124333000D01*
X129687000Y-124333000D01*
X129687000Y-124587000D01*
X129667000Y-124587000D01*
X129667000Y-124607000D01*
X129413000Y-124607000D01*
X129413000Y-124587000D01*
X127127000Y-124587000D01*
X127127000Y-124607000D01*
X126873000Y-124607000D01*
X126873000Y-124587000D01*
X125679845Y-124587000D01*
X125558524Y-124816890D01*
X125603175Y-124964099D01*
X125728359Y-125226920D01*
X125902412Y-125460269D01*
X126118645Y-125655178D01*
X126235534Y-125724805D01*
X126053368Y-125846525D01*
X125846525Y-126053368D01*
X125684010Y-126296589D01*
X125572068Y-126566842D01*
X125515000Y-126853740D01*
X125515000Y-127146260D01*
X125572068Y-127433158D01*
X125684010Y-127703411D01*
X125846525Y-127946632D01*
X126053368Y-128153475D01*
X126227760Y-128270000D01*
X126053368Y-128386525D01*
X125846525Y-128593368D01*
X125684010Y-128836589D01*
X125572068Y-129106842D01*
X125515000Y-129393740D01*
X125515000Y-129686260D01*
X125572068Y-129973158D01*
X125684010Y-130243411D01*
X125846525Y-130486632D01*
X126053368Y-130693475D01*
X126227760Y-130810000D01*
X126053368Y-130926525D01*
X125846525Y-131133368D01*
X125684010Y-131376589D01*
X125572068Y-131646842D01*
X125515000Y-131933740D01*
X125515000Y-132226260D01*
X125572068Y-132513158D01*
X125684010Y-132783411D01*
X125846525Y-133026632D01*
X126053368Y-133233475D01*
X126227760Y-133350000D01*
X126053368Y-133466525D01*
X125846525Y-133673368D01*
X125684010Y-133916589D01*
X125572068Y-134186842D01*
X125515000Y-134473740D01*
X125515000Y-134766260D01*
X125572068Y-135053158D01*
X125684010Y-135323411D01*
X125846525Y-135566632D01*
X126053368Y-135773475D01*
X126227760Y-135890000D01*
X126053368Y-136006525D01*
X125846525Y-136213368D01*
X125684010Y-136456589D01*
X125572068Y-136726842D01*
X125515000Y-137013740D01*
X125515000Y-137306260D01*
X125572068Y-137593158D01*
X125684010Y-137863411D01*
X125846525Y-138106632D01*
X126053368Y-138313475D01*
X126227760Y-138430000D01*
X126053368Y-138546525D01*
X125846525Y-138753368D01*
X125684010Y-138996589D01*
X125572068Y-139266842D01*
X125515000Y-139553740D01*
X125515000Y-139846260D01*
X125572068Y-140133158D01*
X125684010Y-140403411D01*
X125846525Y-140646632D01*
X126053368Y-140853475D01*
X126227760Y-140970000D01*
X126053368Y-141086525D01*
X125846525Y-141293368D01*
X125684010Y-141536589D01*
X125572068Y-141806842D01*
X125515000Y-142093740D01*
X125515000Y-142386260D01*
X125572068Y-142673158D01*
X125684010Y-142943411D01*
X125846525Y-143186632D01*
X126053368Y-143393475D01*
X126227760Y-143510000D01*
X126053368Y-143626525D01*
X125846525Y-143833368D01*
X125684010Y-144076589D01*
X125572068Y-144346842D01*
X125515000Y-144633740D01*
X125515000Y-144926260D01*
X125572068Y-145213158D01*
X125684010Y-145483411D01*
X125846525Y-145726632D01*
X125890893Y-145771000D01*
X125058072Y-145771000D01*
X125058072Y-144975000D01*
X125045812Y-144850518D01*
X125024421Y-144780000D01*
X125045812Y-144709482D01*
X125058072Y-144585000D01*
X125055000Y-144345750D01*
X124896250Y-144187000D01*
X123847000Y-144187000D01*
X123847000Y-144207000D01*
X123593000Y-144207000D01*
X123593000Y-144187000D01*
X123573000Y-144187000D01*
X123573000Y-143933000D01*
X123593000Y-143933000D01*
X123593000Y-143058750D01*
X123847000Y-143058750D01*
X123847000Y-143933000D01*
X124896250Y-143933000D01*
X125055000Y-143774250D01*
X125058072Y-143535000D01*
X125045812Y-143410518D01*
X125009502Y-143290820D01*
X124950537Y-143180506D01*
X124871185Y-143083815D01*
X124774494Y-143004463D01*
X124664180Y-142945498D01*
X124544482Y-142909188D01*
X124420000Y-142896928D01*
X124005750Y-142900000D01*
X123847000Y-143058750D01*
X123593000Y-143058750D01*
X123434250Y-142900000D01*
X123020000Y-142896928D01*
X122895518Y-142909188D01*
X122775820Y-142945498D01*
X122665506Y-143004463D01*
X122568815Y-143083815D01*
X122544932Y-143112917D01*
X122386572Y-143007104D01*
X122207314Y-142932853D01*
X122017014Y-142895000D01*
X121822986Y-142895000D01*
X121632686Y-142932853D01*
X121453428Y-143007104D01*
X121295068Y-143112917D01*
X121271185Y-143083815D01*
X121174494Y-143004463D01*
X121064180Y-142945498D01*
X120944482Y-142909188D01*
X120820000Y-142896928D01*
X120405750Y-142900000D01*
X120247000Y-143058750D01*
X120247000Y-143933000D01*
X120267000Y-143933000D01*
X120267000Y-144187000D01*
X120247000Y-144187000D01*
X120247000Y-144207000D01*
X119993000Y-144207000D01*
X119993000Y-144187000D01*
X119973000Y-144187000D01*
X119973000Y-143933000D01*
X119993000Y-143933000D01*
X119993000Y-143058750D01*
X119854999Y-142920749D01*
X119854999Y-122250610D01*
X120003255Y-122236008D01*
X120169851Y-122185472D01*
X120323387Y-122103405D01*
X120435000Y-122011807D01*
X120434999Y-127700678D01*
X120431323Y-127738001D01*
X120434999Y-127775323D01*
X120434999Y-127775333D01*
X120445996Y-127886986D01*
X120489453Y-128030247D01*
X120560025Y-128162277D01*
X120586008Y-128193937D01*
X120654998Y-128278002D01*
X120684002Y-128301805D01*
X121008195Y-128625998D01*
X121031998Y-128655002D01*
X121147723Y-128749975D01*
X121279752Y-128820547D01*
X121423013Y-128864004D01*
X121571999Y-128878678D01*
X121609332Y-128875001D01*
X123062677Y-128875001D01*
X123099999Y-128878677D01*
X123137321Y-128875001D01*
X123137332Y-128875001D01*
X123248985Y-128864004D01*
X123392246Y-128820547D01*
X123524275Y-128749975D01*
X123640000Y-128655002D01*
X123663802Y-128625999D01*
X123864801Y-128425000D01*
X123926939Y-128425000D01*
X124126898Y-128385226D01*
X124315256Y-128307205D01*
X124484774Y-128193937D01*
X124628937Y-128049774D01*
X124742205Y-127880256D01*
X124820226Y-127691898D01*
X124860000Y-127491939D01*
X124860000Y-127288061D01*
X124820226Y-127088102D01*
X124742205Y-126899744D01*
X124628937Y-126730226D01*
X124484774Y-126586063D01*
X124315256Y-126472795D01*
X124126898Y-126394774D01*
X123926939Y-126355000D01*
X123723061Y-126355000D01*
X123523102Y-126394774D01*
X123334744Y-126472795D01*
X123165226Y-126586063D01*
X123021063Y-126730226D01*
X122907795Y-126899744D01*
X122872500Y-126984953D01*
X122837205Y-126899744D01*
X122723937Y-126730226D01*
X122680000Y-126686289D01*
X122680000Y-121789799D01*
X122890001Y-121579798D01*
X122890000Y-123377704D01*
X122829774Y-123523102D01*
X122790000Y-123723061D01*
X122790000Y-123926939D01*
X122829774Y-124126898D01*
X122907795Y-124315256D01*
X123021063Y-124484774D01*
X123165226Y-124628937D01*
X123334744Y-124742205D01*
X123523102Y-124820226D01*
X123723061Y-124860000D01*
X123926939Y-124860000D01*
X124126898Y-124820226D01*
X124315256Y-124742205D01*
X124484774Y-124628937D01*
X124628937Y-124484774D01*
X124742205Y-124315256D01*
X124820226Y-124126898D01*
X124860000Y-123926939D01*
X124860000Y-123723061D01*
X124820226Y-123523102D01*
X124760000Y-123377705D01*
X124760000Y-120848287D01*
X125637401Y-119970886D01*
X125684010Y-120083411D01*
G37*
%TD.AperFunction*%
D22*
X120654235Y-110151103D02*
X122990000Y-112486869D01*
X122990001Y-114321714D01*
X122907795Y-114444744D01*
X122829774Y-114633102D01*
X122790000Y-114833061D01*
X122790000Y-115036939D01*
X122829774Y-115236898D01*
X122907795Y-115425256D01*
X123021063Y-115594774D01*
X123127243Y-115700954D01*
X120599121Y-118229078D01*
X120568405Y-118171613D01*
X120457962Y-118037038D01*
X120323387Y-117926595D01*
X120169851Y-117844528D01*
X120003255Y-117793992D01*
X119830001Y-117776928D01*
X118929999Y-117776928D01*
X118756745Y-117793992D01*
X118590149Y-117844528D01*
X118436613Y-117926595D01*
X118302038Y-118037038D01*
X118191595Y-118171613D01*
X118109528Y-118325149D01*
X118058992Y-118491745D01*
X118055586Y-118526324D01*
X117993475Y-118433368D01*
X117786632Y-118226525D01*
X117604466Y-118104805D01*
X117721355Y-118035178D01*
X117937588Y-117840269D01*
X118111641Y-117606920D01*
X118236825Y-117344099D01*
X118281476Y-117196890D01*
X118160155Y-116967000D01*
X116967000Y-116967000D01*
X116967000Y-116987000D01*
X116713000Y-116987000D01*
X116713000Y-116967000D01*
X114427000Y-116967000D01*
X114427000Y-116987000D01*
X114173000Y-116987000D01*
X114173000Y-116967000D01*
X114153000Y-116967000D01*
X114153000Y-116713000D01*
X114173000Y-116713000D01*
X114173000Y-116693000D01*
X114427000Y-116693000D01*
X114427000Y-116713000D01*
X116713000Y-116713000D01*
X116713000Y-116693000D01*
X116967000Y-116693000D01*
X116967000Y-116713000D01*
X118160155Y-116713000D01*
X118281476Y-116483110D01*
X118236825Y-116335901D01*
X118111641Y-116073080D01*
X117937588Y-115839731D01*
X117721355Y-115644822D01*
X117604466Y-115575195D01*
X117786632Y-115453475D01*
X117993475Y-115246632D01*
X118155990Y-115003411D01*
X118267932Y-114733158D01*
X118325000Y-114446260D01*
X118325000Y-114153740D01*
X118267932Y-113866842D01*
X118155990Y-113596589D01*
X117993475Y-113353368D01*
X117786632Y-113146525D01*
X117612240Y-113030000D01*
X117786632Y-112913475D01*
X117993475Y-112706632D01*
X118036512Y-112642223D01*
X118085226Y-112690937D01*
X118254744Y-112804205D01*
X118443102Y-112882226D01*
X118643061Y-112922000D01*
X118846939Y-112922000D01*
X119046898Y-112882226D01*
X119235256Y-112804205D01*
X119404774Y-112690937D01*
X119548937Y-112546774D01*
X119662205Y-112377256D01*
X119740226Y-112188898D01*
X119780000Y-111988939D01*
X119780000Y-111785061D01*
X119740226Y-111585102D01*
X119703167Y-111495634D01*
X120272004Y-110926798D01*
X120301001Y-110903001D01*
X120337930Y-110858003D01*
X120395974Y-110787277D01*
X120466546Y-110655247D01*
X120474205Y-110629997D01*
X120510003Y-110511986D01*
X120521000Y-110400333D01*
X120521000Y-110400323D01*
X120524676Y-110363000D01*
X120521000Y-110325678D01*
X120521000Y-110124601D01*
X120654235Y-110151103D01*
%TA.AperFunction,Conductor*%
D23*
G36*
X120654235Y-110151103D02*
G01*
X122990000Y-112486869D01*
X122990001Y-114321714D01*
X122907795Y-114444744D01*
X122829774Y-114633102D01*
X122790000Y-114833061D01*
X122790000Y-115036939D01*
X122829774Y-115236898D01*
X122907795Y-115425256D01*
X123021063Y-115594774D01*
X123127243Y-115700954D01*
X120599121Y-118229078D01*
X120568405Y-118171613D01*
X120457962Y-118037038D01*
X120323387Y-117926595D01*
X120169851Y-117844528D01*
X120003255Y-117793992D01*
X119830001Y-117776928D01*
X118929999Y-117776928D01*
X118756745Y-117793992D01*
X118590149Y-117844528D01*
X118436613Y-117926595D01*
X118302038Y-118037038D01*
X118191595Y-118171613D01*
X118109528Y-118325149D01*
X118058992Y-118491745D01*
X118055586Y-118526324D01*
X117993475Y-118433368D01*
X117786632Y-118226525D01*
X117604466Y-118104805D01*
X117721355Y-118035178D01*
X117937588Y-117840269D01*
X118111641Y-117606920D01*
X118236825Y-117344099D01*
X118281476Y-117196890D01*
X118160155Y-116967000D01*
X116967000Y-116967000D01*
X116967000Y-116987000D01*
X116713000Y-116987000D01*
X116713000Y-116967000D01*
X114427000Y-116967000D01*
X114427000Y-116987000D01*
X114173000Y-116987000D01*
X114173000Y-116967000D01*
X114153000Y-116967000D01*
X114153000Y-116713000D01*
X114173000Y-116713000D01*
X114173000Y-116693000D01*
X114427000Y-116693000D01*
X114427000Y-116713000D01*
X116713000Y-116713000D01*
X116713000Y-116693000D01*
X116967000Y-116693000D01*
X116967000Y-116713000D01*
X118160155Y-116713000D01*
X118281476Y-116483110D01*
X118236825Y-116335901D01*
X118111641Y-116073080D01*
X117937588Y-115839731D01*
X117721355Y-115644822D01*
X117604466Y-115575195D01*
X117786632Y-115453475D01*
X117993475Y-115246632D01*
X118155990Y-115003411D01*
X118267932Y-114733158D01*
X118325000Y-114446260D01*
X118325000Y-114153740D01*
X118267932Y-113866842D01*
X118155990Y-113596589D01*
X117993475Y-113353368D01*
X117786632Y-113146525D01*
X117612240Y-113030000D01*
X117786632Y-112913475D01*
X117993475Y-112706632D01*
X118036512Y-112642223D01*
X118085226Y-112690937D01*
X118254744Y-112804205D01*
X118443102Y-112882226D01*
X118643061Y-112922000D01*
X118846939Y-112922000D01*
X119046898Y-112882226D01*
X119235256Y-112804205D01*
X119404774Y-112690937D01*
X119548937Y-112546774D01*
X119662205Y-112377256D01*
X119740226Y-112188898D01*
X119780000Y-111988939D01*
X119780000Y-111785061D01*
X119740226Y-111585102D01*
X119703167Y-111495634D01*
X120272004Y-110926798D01*
X120301001Y-110903001D01*
X120337930Y-110858003D01*
X120395974Y-110787277D01*
X120466546Y-110655247D01*
X120474205Y-110629997D01*
X120510003Y-110511986D01*
X120521000Y-110400333D01*
X120521000Y-110400323D01*
X120524676Y-110363000D01*
X120521000Y-110325678D01*
X120521000Y-110124601D01*
X120654235Y-110151103D01*
G37*
%TD.AperFunction*%
D22*
X125515000Y-99206260D02*
X125572068Y-99493158D01*
X125684010Y-99763411D01*
X125846525Y-100006632D01*
X126053368Y-100213475D01*
X126227760Y-100330000D01*
X126053368Y-100446525D01*
X125902716Y-100597177D01*
X125885185Y-100575815D01*
X125788494Y-100496463D01*
X125678180Y-100437498D01*
X125558482Y-100401188D01*
X125434000Y-100388928D01*
X125144750Y-100392000D01*
X124986000Y-100550750D01*
X124986000Y-101600000D01*
X125006000Y-101600000D01*
X125006000Y-101854000D01*
X124986000Y-101854000D01*
X124986000Y-101874000D01*
X124732000Y-101874000D01*
X124732000Y-101854000D01*
X124712000Y-101854000D01*
X124712000Y-101600000D01*
X124732000Y-101600000D01*
X124732000Y-100550750D01*
X124573250Y-100392000D01*
X124469010Y-100390893D01*
X124469010Y-100280328D01*
X124472686Y-100243005D01*
X124469010Y-100205683D01*
X124469010Y-100205673D01*
X124458013Y-100094020D01*
X124414556Y-99950759D01*
X124392808Y-99910072D01*
X124529001Y-99910072D01*
X124702255Y-99893008D01*
X124868851Y-99842472D01*
X125022387Y-99760405D01*
X125156962Y-99649962D01*
X125267405Y-99515387D01*
X125349472Y-99361851D01*
X125400008Y-99195255D01*
X125401003Y-99185154D01*
X125515000Y-99071157D01*
X125515000Y-99206260D01*
%TA.AperFunction,Conductor*%
D23*
G36*
X125515000Y-99206260D02*
G01*
X125572068Y-99493158D01*
X125684010Y-99763411D01*
X125846525Y-100006632D01*
X126053368Y-100213475D01*
X126227760Y-100330000D01*
X126053368Y-100446525D01*
X125902716Y-100597177D01*
X125885185Y-100575815D01*
X125788494Y-100496463D01*
X125678180Y-100437498D01*
X125558482Y-100401188D01*
X125434000Y-100388928D01*
X125144750Y-100392000D01*
X124986000Y-100550750D01*
X124986000Y-101600000D01*
X125006000Y-101600000D01*
X125006000Y-101854000D01*
X124986000Y-101854000D01*
X124986000Y-101874000D01*
X124732000Y-101874000D01*
X124732000Y-101854000D01*
X124712000Y-101854000D01*
X124712000Y-101600000D01*
X124732000Y-101600000D01*
X124732000Y-100550750D01*
X124573250Y-100392000D01*
X124469010Y-100390893D01*
X124469010Y-100280328D01*
X124472686Y-100243005D01*
X124469010Y-100205683D01*
X124469010Y-100205673D01*
X124458013Y-100094020D01*
X124414556Y-99950759D01*
X124392808Y-99910072D01*
X124529001Y-99910072D01*
X124702255Y-99893008D01*
X124868851Y-99842472D01*
X125022387Y-99760405D01*
X125156962Y-99649962D01*
X125267405Y-99515387D01*
X125349472Y-99361851D01*
X125400008Y-99195255D01*
X125401003Y-99185154D01*
X125515000Y-99071157D01*
X125515000Y-99206260D01*
G37*
%TD.AperFunction*%
D22*
X122744000Y-96361250D02*
X122902750Y-96520000D01*
X123952000Y-96520000D01*
X123952000Y-96500000D01*
X124206000Y-96500000D01*
X124206000Y-96520000D01*
X124226000Y-96520000D01*
X124226000Y-96774000D01*
X124206000Y-96774000D01*
X124206000Y-96794000D01*
X123952000Y-96794000D01*
X123952000Y-96774000D01*
X122902750Y-96774000D01*
X122898886Y-96777864D01*
X122783939Y-96755000D01*
X122580061Y-96755000D01*
X122380102Y-96794774D01*
X122191744Y-96872795D01*
X122022226Y-96986063D01*
X121978289Y-97030000D01*
X121785637Y-97030000D01*
X121748314Y-97026324D01*
X121710991Y-97030000D01*
X121710981Y-97030000D01*
X121599328Y-97040997D01*
X121456067Y-97084454D01*
X121324037Y-97155026D01*
X121288314Y-97184344D01*
X121208313Y-97249999D01*
X121184510Y-97279003D01*
X120773998Y-97689515D01*
X120745000Y-97713313D01*
X120721202Y-97742311D01*
X120721201Y-97742312D01*
X120656066Y-97821678D01*
X120584962Y-97735038D01*
X120578406Y-97729658D01*
X120658185Y-97664185D01*
X120737537Y-97567494D01*
X120796502Y-97457180D01*
X120832812Y-97337482D01*
X120845072Y-97213000D01*
X120842000Y-96923750D01*
X120683250Y-96765000D01*
X119634000Y-96765000D01*
X119634000Y-96785000D01*
X119380000Y-96785000D01*
X119380000Y-96765000D01*
X119360000Y-96765000D01*
X119360000Y-96511000D01*
X119380000Y-96511000D01*
X119380000Y-96491000D01*
X119634000Y-96491000D01*
X119634000Y-96511000D01*
X120683250Y-96511000D01*
X120842000Y-96352250D01*
X120843212Y-96238107D01*
X120882285Y-96212000D01*
X122742415Y-96212000D01*
X122744000Y-96361250D01*
%TA.AperFunction,Conductor*%
D23*
G36*
X122744000Y-96361250D02*
G01*
X122902750Y-96520000D01*
X123952000Y-96520000D01*
X123952000Y-96500000D01*
X124206000Y-96500000D01*
X124206000Y-96520000D01*
X124226000Y-96520000D01*
X124226000Y-96774000D01*
X124206000Y-96774000D01*
X124206000Y-96794000D01*
X123952000Y-96794000D01*
X123952000Y-96774000D01*
X122902750Y-96774000D01*
X122898886Y-96777864D01*
X122783939Y-96755000D01*
X122580061Y-96755000D01*
X122380102Y-96794774D01*
X122191744Y-96872795D01*
X122022226Y-96986063D01*
X121978289Y-97030000D01*
X121785637Y-97030000D01*
X121748314Y-97026324D01*
X121710991Y-97030000D01*
X121710981Y-97030000D01*
X121599328Y-97040997D01*
X121456067Y-97084454D01*
X121324037Y-97155026D01*
X121288314Y-97184344D01*
X121208313Y-97249999D01*
X121184510Y-97279003D01*
X120773998Y-97689515D01*
X120745000Y-97713313D01*
X120721202Y-97742311D01*
X120721201Y-97742312D01*
X120656066Y-97821678D01*
X120584962Y-97735038D01*
X120578406Y-97729658D01*
X120658185Y-97664185D01*
X120737537Y-97567494D01*
X120796502Y-97457180D01*
X120832812Y-97337482D01*
X120845072Y-97213000D01*
X120842000Y-96923750D01*
X120683250Y-96765000D01*
X119634000Y-96765000D01*
X119634000Y-96785000D01*
X119380000Y-96785000D01*
X119380000Y-96765000D01*
X119360000Y-96765000D01*
X119360000Y-96511000D01*
X119380000Y-96511000D01*
X119380000Y-96491000D01*
X119634000Y-96491000D01*
X119634000Y-96511000D01*
X120683250Y-96511000D01*
X120842000Y-96352250D01*
X120843212Y-96238107D01*
X120882285Y-96212000D01*
X122742415Y-96212000D01*
X122744000Y-96361250D01*
G37*
%TD.AperFunction*%
D22*
X116511585Y-88449013D02*
X116465000Y-88668000D01*
X116465000Y-88968000D01*
X117473000Y-88968000D01*
X117473000Y-88948000D01*
X117727000Y-88948000D01*
X117727000Y-88968000D01*
X118735000Y-88968000D01*
X118735000Y-88668000D01*
X118688415Y-88449013D01*
X118674655Y-88417000D01*
X125165345Y-88417000D01*
X125151585Y-88449013D01*
X125105000Y-88668000D01*
X125105000Y-88968000D01*
X126113000Y-88968000D01*
X126113000Y-88948000D01*
X126367000Y-88948000D01*
X126367000Y-88968000D01*
X127375000Y-88968000D01*
X127375000Y-88668000D01*
X127328415Y-88449013D01*
X127314655Y-88417000D01*
X128110721Y-88417000D01*
X128507545Y-88455909D01*
X128858208Y-88561780D01*
X129181625Y-88733744D01*
X129465484Y-88965254D01*
X129698965Y-89247486D01*
X129873183Y-89569695D01*
X129981502Y-89919614D01*
X130023001Y-90314452D01*
X130023001Y-95166833D01*
X129958574Y-95140147D01*
X129681335Y-95085000D01*
X129398665Y-95085000D01*
X129121426Y-95140147D01*
X128860273Y-95248320D01*
X128625241Y-95405363D01*
X128476643Y-95553961D01*
X128475812Y-95545518D01*
X128439502Y-95425820D01*
X128380537Y-95315506D01*
X128301185Y-95218815D01*
X128204494Y-95139463D01*
X128101472Y-95084396D01*
X128618796Y-94567072D01*
X129101450Y-94567072D01*
X129274616Y-94550017D01*
X129441128Y-94499506D01*
X129594586Y-94417481D01*
X129729094Y-94307094D01*
X129839481Y-94172586D01*
X129921506Y-94019128D01*
X129972017Y-93852616D01*
X129989072Y-93679450D01*
X129989072Y-93028550D01*
X129972017Y-92855384D01*
X129921506Y-92688872D01*
X129839481Y-92535414D01*
X129729094Y-92400906D01*
X129641330Y-92328880D01*
X129728962Y-92256962D01*
X129839405Y-92122387D01*
X129921472Y-91968851D01*
X129972008Y-91802255D01*
X129989072Y-91629001D01*
X129989072Y-90978999D01*
X129972008Y-90805745D01*
X129921472Y-90639149D01*
X129839405Y-90485613D01*
X129728962Y-90351038D01*
X129594387Y-90240595D01*
X129440851Y-90158528D01*
X129274255Y-90107992D01*
X129101001Y-90090928D01*
X128200999Y-90090928D01*
X128027745Y-90107992D01*
X127861149Y-90158528D01*
X127707613Y-90240595D01*
X127573038Y-90351038D01*
X127462595Y-90485613D01*
X127380528Y-90639149D01*
X127329992Y-90805745D01*
X127312928Y-90978999D01*
X127312928Y-91629001D01*
X127329992Y-91802255D01*
X127380528Y-91968851D01*
X127462595Y-92122387D01*
X127573038Y-92256962D01*
X127660670Y-92328880D01*
X127572906Y-92400906D01*
X127462519Y-92535414D01*
X127380494Y-92688872D01*
X127375000Y-92706983D01*
X127375000Y-92598000D01*
X127328415Y-92379013D01*
X127240003Y-92173322D01*
X127113161Y-91988831D01*
X126952764Y-91832631D01*
X126764976Y-91710724D01*
X126541874Y-91630881D01*
X126367000Y-91757046D01*
X126367000Y-93148000D01*
X126387000Y-93148000D01*
X126387000Y-93402000D01*
X126367000Y-93402000D01*
X126367000Y-93422000D01*
X126113000Y-93422000D01*
X126113000Y-93402000D01*
X126093000Y-93402000D01*
X126093000Y-93148000D01*
X126113000Y-93148000D01*
X126113000Y-91757046D01*
X125938126Y-91630881D01*
X125715024Y-91710724D01*
X125527236Y-91832631D01*
X125366839Y-91988831D01*
X125365117Y-91991335D01*
X125264731Y-91924259D01*
X125090022Y-91851892D01*
X124904552Y-91815000D01*
X124715448Y-91815000D01*
X124529978Y-91851892D01*
X124482174Y-91871693D01*
X124460472Y-91800149D01*
X124378405Y-91646613D01*
X124267962Y-91512038D01*
X124261406Y-91506658D01*
X124341185Y-91441185D01*
X124420537Y-91344494D01*
X124479502Y-91234180D01*
X124515812Y-91114482D01*
X124528072Y-90990000D01*
X124525000Y-90700750D01*
X124366250Y-90542000D01*
X123317000Y-90542000D01*
X123317000Y-90562000D01*
X123063000Y-90562000D01*
X123063000Y-90542000D01*
X122013750Y-90542000D01*
X121920000Y-90635750D01*
X121826250Y-90542000D01*
X120777000Y-90542000D01*
X120777000Y-90562000D01*
X120523000Y-90562000D01*
X120523000Y-90542000D01*
X119473750Y-90542000D01*
X119315000Y-90700750D01*
X119311928Y-90990000D01*
X119324188Y-91114482D01*
X119360498Y-91234180D01*
X119419463Y-91344494D01*
X119498815Y-91441185D01*
X119578594Y-91506658D01*
X119572038Y-91512038D01*
X119461595Y-91646613D01*
X119379528Y-91800149D01*
X119357826Y-91871693D01*
X119310022Y-91851892D01*
X119124552Y-91815000D01*
X118935448Y-91815000D01*
X118749978Y-91851892D01*
X118575269Y-91924259D01*
X118474883Y-91991335D01*
X118473161Y-91988831D01*
X118312764Y-91832631D01*
X118124976Y-91710724D01*
X117901874Y-91630881D01*
X117727000Y-91757046D01*
X117727000Y-93148000D01*
X117747000Y-93148000D01*
X117747000Y-93402000D01*
X117727000Y-93402000D01*
X117727000Y-93422000D01*
X117473000Y-93422000D01*
X117473000Y-93402000D01*
X117453000Y-93402000D01*
X117453000Y-93148000D01*
X117473000Y-93148000D01*
X117473000Y-91757046D01*
X117300072Y-91632285D01*
X117300072Y-90989999D01*
X117283008Y-90816745D01*
X117232472Y-90650149D01*
X117150405Y-90496613D01*
X117080270Y-90411153D01*
X117298126Y-90489119D01*
X117473000Y-90362954D01*
X117473000Y-89222000D01*
X117727000Y-89222000D01*
X117727000Y-90362954D01*
X117901874Y-90489119D01*
X118124976Y-90409276D01*
X118312764Y-90287369D01*
X118473161Y-90131169D01*
X118600003Y-89946678D01*
X118645856Y-89840000D01*
X119311928Y-89840000D01*
X119315000Y-90129250D01*
X119473750Y-90288000D01*
X120523000Y-90288000D01*
X120523000Y-89363750D01*
X120777000Y-89363750D01*
X120777000Y-90288000D01*
X121826250Y-90288000D01*
X121920000Y-90194250D01*
X122013750Y-90288000D01*
X123063000Y-90288000D01*
X123063000Y-89363750D01*
X123317000Y-89363750D01*
X123317000Y-90288000D01*
X124366250Y-90288000D01*
X124525000Y-90129250D01*
X124528072Y-89840000D01*
X124515812Y-89715518D01*
X124479502Y-89595820D01*
X124420537Y-89485506D01*
X124341185Y-89388815D01*
X124244494Y-89309463D01*
X124134180Y-89250498D01*
X124040235Y-89222000D01*
X125105000Y-89222000D01*
X125105000Y-89522000D01*
X125151585Y-89740987D01*
X125239997Y-89946678D01*
X125366839Y-90131169D01*
X125527236Y-90287369D01*
X125715024Y-90409276D01*
X125938126Y-90489119D01*
X126113000Y-90362954D01*
X126113000Y-89222000D01*
X126367000Y-89222000D01*
X126367000Y-90362954D01*
X126541874Y-90489119D01*
X126764976Y-90409276D01*
X126952764Y-90287369D01*
X127113161Y-90131169D01*
X127240003Y-89946678D01*
X127328415Y-89740987D01*
X127375000Y-89522000D01*
X127375000Y-89222000D01*
X126367000Y-89222000D01*
X126113000Y-89222000D01*
X125105000Y-89222000D01*
X124040235Y-89222000D01*
X124014482Y-89214188D01*
X123890000Y-89201928D01*
X123475750Y-89205000D01*
X123317000Y-89363750D01*
X123063000Y-89363750D01*
X122904250Y-89205000D01*
X122490000Y-89201928D01*
X122365518Y-89214188D01*
X122245820Y-89250498D01*
X122135506Y-89309463D01*
X122038815Y-89388815D01*
X121959463Y-89485506D01*
X121920000Y-89559335D01*
X121880537Y-89485506D01*
X121801185Y-89388815D01*
X121704494Y-89309463D01*
X121594180Y-89250498D01*
X121474482Y-89214188D01*
X121350000Y-89201928D01*
X120935750Y-89205000D01*
X120777000Y-89363750D01*
X120523000Y-89363750D01*
X120364250Y-89205000D01*
X119950000Y-89201928D01*
X119825518Y-89214188D01*
X119705820Y-89250498D01*
X119595506Y-89309463D01*
X119498815Y-89388815D01*
X119419463Y-89485506D01*
X119360498Y-89595820D01*
X119324188Y-89715518D01*
X119311928Y-89840000D01*
X118645856Y-89840000D01*
X118688415Y-89740987D01*
X118735000Y-89522000D01*
X118735000Y-89222000D01*
X117727000Y-89222000D01*
X117473000Y-89222000D01*
X116465000Y-89222000D01*
X116465000Y-89522000D01*
X116511585Y-89740987D01*
X116599997Y-89946678D01*
X116726839Y-90131169D01*
X116783722Y-90186563D01*
X116751851Y-90169528D01*
X116585255Y-90118992D01*
X116412001Y-90101928D01*
X115761999Y-90101928D01*
X115588745Y-90118992D01*
X115422149Y-90169528D01*
X115268613Y-90251595D01*
X115134038Y-90362038D01*
X115062000Y-90449816D01*
X114989962Y-90362038D01*
X114855387Y-90251595D01*
X114701851Y-90169528D01*
X114535255Y-90118992D01*
X114362001Y-90101928D01*
X113839292Y-90101928D01*
X113855909Y-89932455D01*
X113961780Y-89581792D01*
X114133744Y-89258375D01*
X114365254Y-88974516D01*
X114647486Y-88741035D01*
X114969695Y-88566817D01*
X115319614Y-88458498D01*
X115714443Y-88417000D01*
X116525345Y-88417000D01*
X116511585Y-88449013D01*
%TA.AperFunction,Conductor*%
D23*
G36*
X116511585Y-88449013D02*
G01*
X116465000Y-88668000D01*
X116465000Y-88968000D01*
X117473000Y-88968000D01*
X117473000Y-88948000D01*
X117727000Y-88948000D01*
X117727000Y-88968000D01*
X118735000Y-88968000D01*
X118735000Y-88668000D01*
X118688415Y-88449013D01*
X118674655Y-88417000D01*
X125165345Y-88417000D01*
X125151585Y-88449013D01*
X125105000Y-88668000D01*
X125105000Y-88968000D01*
X126113000Y-88968000D01*
X126113000Y-88948000D01*
X126367000Y-88948000D01*
X126367000Y-88968000D01*
X127375000Y-88968000D01*
X127375000Y-88668000D01*
X127328415Y-88449013D01*
X127314655Y-88417000D01*
X128110721Y-88417000D01*
X128507545Y-88455909D01*
X128858208Y-88561780D01*
X129181625Y-88733744D01*
X129465484Y-88965254D01*
X129698965Y-89247486D01*
X129873183Y-89569695D01*
X129981502Y-89919614D01*
X130023001Y-90314452D01*
X130023001Y-95166833D01*
X129958574Y-95140147D01*
X129681335Y-95085000D01*
X129398665Y-95085000D01*
X129121426Y-95140147D01*
X128860273Y-95248320D01*
X128625241Y-95405363D01*
X128476643Y-95553961D01*
X128475812Y-95545518D01*
X128439502Y-95425820D01*
X128380537Y-95315506D01*
X128301185Y-95218815D01*
X128204494Y-95139463D01*
X128101472Y-95084396D01*
X128618796Y-94567072D01*
X129101450Y-94567072D01*
X129274616Y-94550017D01*
X129441128Y-94499506D01*
X129594586Y-94417481D01*
X129729094Y-94307094D01*
X129839481Y-94172586D01*
X129921506Y-94019128D01*
X129972017Y-93852616D01*
X129989072Y-93679450D01*
X129989072Y-93028550D01*
X129972017Y-92855384D01*
X129921506Y-92688872D01*
X129839481Y-92535414D01*
X129729094Y-92400906D01*
X129641330Y-92328880D01*
X129728962Y-92256962D01*
X129839405Y-92122387D01*
X129921472Y-91968851D01*
X129972008Y-91802255D01*
X129989072Y-91629001D01*
X129989072Y-90978999D01*
X129972008Y-90805745D01*
X129921472Y-90639149D01*
X129839405Y-90485613D01*
X129728962Y-90351038D01*
X129594387Y-90240595D01*
X129440851Y-90158528D01*
X129274255Y-90107992D01*
X129101001Y-90090928D01*
X128200999Y-90090928D01*
X128027745Y-90107992D01*
X127861149Y-90158528D01*
X127707613Y-90240595D01*
X127573038Y-90351038D01*
X127462595Y-90485613D01*
X127380528Y-90639149D01*
X127329992Y-90805745D01*
X127312928Y-90978999D01*
X127312928Y-91629001D01*
X127329992Y-91802255D01*
X127380528Y-91968851D01*
X127462595Y-92122387D01*
X127573038Y-92256962D01*
X127660670Y-92328880D01*
X127572906Y-92400906D01*
X127462519Y-92535414D01*
X127380494Y-92688872D01*
X127375000Y-92706983D01*
X127375000Y-92598000D01*
X127328415Y-92379013D01*
X127240003Y-92173322D01*
X127113161Y-91988831D01*
X126952764Y-91832631D01*
X126764976Y-91710724D01*
X126541874Y-91630881D01*
X126367000Y-91757046D01*
X126367000Y-93148000D01*
X126387000Y-93148000D01*
X126387000Y-93402000D01*
X126367000Y-93402000D01*
X126367000Y-93422000D01*
X126113000Y-93422000D01*
X126113000Y-93402000D01*
X126093000Y-93402000D01*
X126093000Y-93148000D01*
X126113000Y-93148000D01*
X126113000Y-91757046D01*
X125938126Y-91630881D01*
X125715024Y-91710724D01*
X125527236Y-91832631D01*
X125366839Y-91988831D01*
X125365117Y-91991335D01*
X125264731Y-91924259D01*
X125090022Y-91851892D01*
X124904552Y-91815000D01*
X124715448Y-91815000D01*
X124529978Y-91851892D01*
X124482174Y-91871693D01*
X124460472Y-91800149D01*
X124378405Y-91646613D01*
X124267962Y-91512038D01*
X124261406Y-91506658D01*
X124341185Y-91441185D01*
X124420537Y-91344494D01*
X124479502Y-91234180D01*
X124515812Y-91114482D01*
X124528072Y-90990000D01*
X124525000Y-90700750D01*
X124366250Y-90542000D01*
X123317000Y-90542000D01*
X123317000Y-90562000D01*
X123063000Y-90562000D01*
X123063000Y-90542000D01*
X122013750Y-90542000D01*
X121920000Y-90635750D01*
X121826250Y-90542000D01*
X120777000Y-90542000D01*
X120777000Y-90562000D01*
X120523000Y-90562000D01*
X120523000Y-90542000D01*
X119473750Y-90542000D01*
X119315000Y-90700750D01*
X119311928Y-90990000D01*
X119324188Y-91114482D01*
X119360498Y-91234180D01*
X119419463Y-91344494D01*
X119498815Y-91441185D01*
X119578594Y-91506658D01*
X119572038Y-91512038D01*
X119461595Y-91646613D01*
X119379528Y-91800149D01*
X119357826Y-91871693D01*
X119310022Y-91851892D01*
X119124552Y-91815000D01*
X118935448Y-91815000D01*
X118749978Y-91851892D01*
X118575269Y-91924259D01*
X118474883Y-91991335D01*
X118473161Y-91988831D01*
X118312764Y-91832631D01*
X118124976Y-91710724D01*
X117901874Y-91630881D01*
X117727000Y-91757046D01*
X117727000Y-93148000D01*
X117747000Y-93148000D01*
X117747000Y-93402000D01*
X117727000Y-93402000D01*
X117727000Y-93422000D01*
X117473000Y-93422000D01*
X117473000Y-93402000D01*
X117453000Y-93402000D01*
X117453000Y-93148000D01*
X117473000Y-93148000D01*
X117473000Y-91757046D01*
X117300072Y-91632285D01*
X117300072Y-90989999D01*
X117283008Y-90816745D01*
X117232472Y-90650149D01*
X117150405Y-90496613D01*
X117080270Y-90411153D01*
X117298126Y-90489119D01*
X117473000Y-90362954D01*
X117473000Y-89222000D01*
X117727000Y-89222000D01*
X117727000Y-90362954D01*
X117901874Y-90489119D01*
X118124976Y-90409276D01*
X118312764Y-90287369D01*
X118473161Y-90131169D01*
X118600003Y-89946678D01*
X118645856Y-89840000D01*
X119311928Y-89840000D01*
X119315000Y-90129250D01*
X119473750Y-90288000D01*
X120523000Y-90288000D01*
X120523000Y-89363750D01*
X120777000Y-89363750D01*
X120777000Y-90288000D01*
X121826250Y-90288000D01*
X121920000Y-90194250D01*
X122013750Y-90288000D01*
X123063000Y-90288000D01*
X123063000Y-89363750D01*
X123317000Y-89363750D01*
X123317000Y-90288000D01*
X124366250Y-90288000D01*
X124525000Y-90129250D01*
X124528072Y-89840000D01*
X124515812Y-89715518D01*
X124479502Y-89595820D01*
X124420537Y-89485506D01*
X124341185Y-89388815D01*
X124244494Y-89309463D01*
X124134180Y-89250498D01*
X124040235Y-89222000D01*
X125105000Y-89222000D01*
X125105000Y-89522000D01*
X125151585Y-89740987D01*
X125239997Y-89946678D01*
X125366839Y-90131169D01*
X125527236Y-90287369D01*
X125715024Y-90409276D01*
X125938126Y-90489119D01*
X126113000Y-90362954D01*
X126113000Y-89222000D01*
X126367000Y-89222000D01*
X126367000Y-90362954D01*
X126541874Y-90489119D01*
X126764976Y-90409276D01*
X126952764Y-90287369D01*
X127113161Y-90131169D01*
X127240003Y-89946678D01*
X127328415Y-89740987D01*
X127375000Y-89522000D01*
X127375000Y-89222000D01*
X126367000Y-89222000D01*
X126113000Y-89222000D01*
X125105000Y-89222000D01*
X124040235Y-89222000D01*
X124014482Y-89214188D01*
X123890000Y-89201928D01*
X123475750Y-89205000D01*
X123317000Y-89363750D01*
X123063000Y-89363750D01*
X122904250Y-89205000D01*
X122490000Y-89201928D01*
X122365518Y-89214188D01*
X122245820Y-89250498D01*
X122135506Y-89309463D01*
X122038815Y-89388815D01*
X121959463Y-89485506D01*
X121920000Y-89559335D01*
X121880537Y-89485506D01*
X121801185Y-89388815D01*
X121704494Y-89309463D01*
X121594180Y-89250498D01*
X121474482Y-89214188D01*
X121350000Y-89201928D01*
X120935750Y-89205000D01*
X120777000Y-89363750D01*
X120523000Y-89363750D01*
X120364250Y-89205000D01*
X119950000Y-89201928D01*
X119825518Y-89214188D01*
X119705820Y-89250498D01*
X119595506Y-89309463D01*
X119498815Y-89388815D01*
X119419463Y-89485506D01*
X119360498Y-89595820D01*
X119324188Y-89715518D01*
X119311928Y-89840000D01*
X118645856Y-89840000D01*
X118688415Y-89740987D01*
X118735000Y-89522000D01*
X118735000Y-89222000D01*
X117727000Y-89222000D01*
X117473000Y-89222000D01*
X116465000Y-89222000D01*
X116465000Y-89522000D01*
X116511585Y-89740987D01*
X116599997Y-89946678D01*
X116726839Y-90131169D01*
X116783722Y-90186563D01*
X116751851Y-90169528D01*
X116585255Y-90118992D01*
X116412001Y-90101928D01*
X115761999Y-90101928D01*
X115588745Y-90118992D01*
X115422149Y-90169528D01*
X115268613Y-90251595D01*
X115134038Y-90362038D01*
X115062000Y-90449816D01*
X114989962Y-90362038D01*
X114855387Y-90251595D01*
X114701851Y-90169528D01*
X114535255Y-90118992D01*
X114362001Y-90101928D01*
X113839292Y-90101928D01*
X113855909Y-89932455D01*
X113961780Y-89581792D01*
X114133744Y-89258375D01*
X114365254Y-88974516D01*
X114647486Y-88741035D01*
X114969695Y-88566817D01*
X115319614Y-88458498D01*
X115714443Y-88417000D01*
X116525345Y-88417000D01*
X116511585Y-88449013D01*
G37*
%TD.AperFunction*%
%TD*%
M02*
