M48
; DRILL file {KiCad (5.1.9)-1} date 04/12/21 21:58:01
; FORMAT={-:-/ absolute / inch / decimal}
; #@! TF.CreationDate,2021-04-12T21:58:01+01:00
; #@! TF.GenerationSoftware,Kicad,Pcbnew,(5.1.9)-1
; #@! TF.FileFunction,Plated,1,2,PTH
FMAT,2
INCH
T1C0.0157
T2C0.0236
T3C0.0315
T4C0.0394
%
G90
G05
T1
X4.575Y-3.595
X4.575Y-3.675
X4.675Y-4.335
X4.675Y-4.405
X4.7014Y-4.085
X4.705Y-3.8046
X4.705Y-3.8854
X4.715Y-4.2154
X4.725Y-4.5594
X4.735Y-3.755
X4.75Y-3.5596
X4.75Y-3.6404
X4.7563Y-4.2963
X4.7585Y-4.075
X4.765Y-4.415
X4.775Y-3.8905
X4.775Y-5.425
X4.7859Y-4.195
X4.8Y-5.0154
X4.8144Y-3.8905
X4.8243Y-4.2043
X4.83Y-3.85
X4.85Y-3.5596
X4.85Y-3.6404
X4.875Y-3.755
X4.875Y-4.525
X4.875Y-4.875
X4.875Y-5.0154
X4.885Y-3.805
X4.885Y-3.8857
X4.9067Y-4.3867
X4.9157Y-4.005
X4.92Y-4.75
X5.065Y-3.595
T3
X4.5Y-3.8
X4.5Y-3.9
X4.5Y-4.0
X4.5Y-4.1
X4.5Y-4.2
X4.5Y-4.3
X4.5Y-4.4
X4.5Y-4.5
X4.5Y-4.6
X4.5Y-4.7
X4.5Y-4.8
X4.5Y-4.9
X4.5Y-5.0
X4.5Y-5.1
X4.5Y-5.2
X4.5Y-5.3
X4.5Y-5.4
X4.5Y-5.5
X4.5Y-5.6
X4.5Y-5.7
X5.1Y-3.8
X5.1Y-3.9
X5.1Y-4.0
X5.1Y-4.1
X5.1Y-4.2
X5.1Y-4.3
X5.1Y-4.4
X5.1Y-4.5
X5.1Y-4.6
X5.1Y-4.7
X5.1Y-4.8
X5.1Y-4.9
X5.1Y-5.0
X5.1Y-5.1
X5.1Y-5.2
X5.1Y-5.3
X5.1Y-5.4
X5.1Y-5.5
X5.1Y-5.6
X5.1Y-5.7
T4
X4.6Y-3.8
X4.6Y-3.9
X4.6Y-4.0
X4.6Y-4.1
X4.6Y-4.2
X4.6Y-4.3
X4.6Y-4.4
X4.6Y-4.5
X4.6Y-4.6
X4.6Y-4.7
X4.6Y-4.8
X4.6Y-4.9
X4.6Y-5.0
X4.6Y-5.1
X4.6Y-5.2
X4.6Y-5.3
X4.6Y-5.4
X4.6Y-5.5
X4.6Y-5.6
X4.6Y-5.7
X5.0Y-3.8
X5.0Y-3.9
X5.0Y-4.0
X5.0Y-4.1
X5.0Y-4.2
X5.0Y-4.3
X5.0Y-4.4
X5.0Y-4.5
X5.0Y-4.6
X5.0Y-4.7
X5.0Y-4.8
X5.0Y-4.9
X5.0Y-5.0
X5.0Y-5.1
X5.0Y-5.2
X5.0Y-5.3
X5.0Y-5.4
X5.0Y-5.5
X5.0Y-5.6
X5.0Y-5.7
T2
G00X4.6299Y-3.5195
M15
G01X4.6299Y-3.4959
M16
G05
G00X4.6299Y-3.6939
M15
G01X4.6299Y-3.6506
M16
G05
G00X4.9701Y-3.5195
M15
G01X4.9701Y-3.4959
M16
G05
G00X4.9701Y-3.6939
M15
G01X4.9701Y-3.6506
M16
G05
T0
M30
