%TF.GenerationSoftware,KiCad,Pcbnew,(5.1.9)-1*%
%TF.CreationDate,2021-04-12T21:57:58+01:00*%
%TF.ProjectId,Propeller_dev_board,50726f70-656c-46c6-9572-5f6465765f62,rev?*%
%TF.SameCoordinates,Original*%
%TF.FileFunction,Soldermask,Bot*%
%TF.FilePolarity,Negative*%
%FSLAX46Y46*%
G04 Gerber Fmt 4.6, Leading zero omitted, Abs format (unit mm)*
G04 Created by KiCad (PCBNEW (5.1.9)-1) date 2021-04-12 21:57:58*
%MOMM*%
%LPD*%
G01*
G04 APERTURE LIST*
%ADD10O,1.100000X2.200000*%
%ADD11O,1.100000X1.700000*%
%ADD12C,0.750000*%
%ADD13O,1.800000X1.800000*%
%ADD14C,0.800000*%
%ADD15O,1.700000X1.700000*%
G04 APERTURE END LIST*
%TO.C,4.7uF*%
G36*
G01*
X118901738Y-118365000D02*
X119858262Y-118365000D01*
G75*
G02*
X120130000Y-118636738I0J-271738D01*
G01*
X120130000Y-119343262D01*
G75*
G02*
X119858262Y-119615000I-271738J0D01*
G01*
X118901738Y-119615000D01*
G75*
G02*
X118630000Y-119343262I0J271738D01*
G01*
X118630000Y-118636738D01*
G75*
G02*
X118901738Y-118365000I271738J0D01*
G01*
G37*
G36*
G01*
X118901738Y-120415000D02*
X119858262Y-120415000D01*
G75*
G02*
X120130000Y-120686738I0J-271738D01*
G01*
X120130000Y-121393262D01*
G75*
G02*
X119858262Y-121665000I-271738J0D01*
G01*
X118901738Y-121665000D01*
G75*
G02*
X118630000Y-121393262I0J271738D01*
G01*
X118630000Y-120686738D01*
G75*
G02*
X118901738Y-120415000I271738J0D01*
G01*
G37*
%TD*%
D10*
%TO.C,P1*%
X126240000Y-93275000D03*
X117600000Y-93275000D03*
D11*
X126240000Y-89095000D03*
X117600000Y-89095000D03*
D12*
X119030000Y-92775000D03*
X124810000Y-92775000D03*
%TD*%
%TO.C,4.7uF*%
G36*
G01*
X123600738Y-98072000D02*
X124557262Y-98072000D01*
G75*
G02*
X124829000Y-98343738I0J-271738D01*
G01*
X124829000Y-99050262D01*
G75*
G02*
X124557262Y-99322000I-271738J0D01*
G01*
X123600738Y-99322000D01*
G75*
G02*
X123329000Y-99050262I0J271738D01*
G01*
X123329000Y-98343738D01*
G75*
G02*
X123600738Y-98072000I271738J0D01*
G01*
G37*
G36*
G01*
X123600738Y-96022000D02*
X124557262Y-96022000D01*
G75*
G02*
X124829000Y-96293738I0J-271738D01*
G01*
X124829000Y-97000262D01*
G75*
G02*
X124557262Y-97272000I-271738J0D01*
G01*
X123600738Y-97272000D01*
G75*
G02*
X123329000Y-97000262I0J271738D01*
G01*
X123329000Y-96293738D01*
G75*
G02*
X123600738Y-96022000I271738J0D01*
G01*
G37*
%TD*%
%TO.C,4.7uF*%
G36*
G01*
X119028738Y-96013000D02*
X119985262Y-96013000D01*
G75*
G02*
X120257000Y-96284738I0J-271738D01*
G01*
X120257000Y-96991262D01*
G75*
G02*
X119985262Y-97263000I-271738J0D01*
G01*
X119028738Y-97263000D01*
G75*
G02*
X118757000Y-96991262I0J271738D01*
G01*
X118757000Y-96284738D01*
G75*
G02*
X119028738Y-96013000I271738J0D01*
G01*
G37*
G36*
G01*
X119028738Y-98063000D02*
X119985262Y-98063000D01*
G75*
G02*
X120257000Y-98334738I0J-271738D01*
G01*
X120257000Y-99041262D01*
G75*
G02*
X119985262Y-99313000I-271738J0D01*
G01*
X119028738Y-99313000D01*
G75*
G02*
X118757000Y-99041262I0J271738D01*
G01*
X118757000Y-98334738D01*
G75*
G02*
X119028738Y-98063000I271738J0D01*
G01*
G37*
%TD*%
%TO.C,5.1K*%
G36*
G01*
X120171738Y-89790000D02*
X121128262Y-89790000D01*
G75*
G02*
X121400000Y-90061738I0J-271738D01*
G01*
X121400000Y-90768262D01*
G75*
G02*
X121128262Y-91040000I-271738J0D01*
G01*
X120171738Y-91040000D01*
G75*
G02*
X119900000Y-90768262I0J271738D01*
G01*
X119900000Y-90061738D01*
G75*
G02*
X120171738Y-89790000I271738J0D01*
G01*
G37*
G36*
G01*
X120171738Y-91840000D02*
X121128262Y-91840000D01*
G75*
G02*
X121400000Y-92111738I0J-271738D01*
G01*
X121400000Y-92818262D01*
G75*
G02*
X121128262Y-93090000I-271738J0D01*
G01*
X120171738Y-93090000D01*
G75*
G02*
X119900000Y-92818262I0J271738D01*
G01*
X119900000Y-92111738D01*
G75*
G02*
X120171738Y-91840000I271738J0D01*
G01*
G37*
%TD*%
%TO.C,5.1K*%
G36*
G01*
X122711738Y-89790000D02*
X123668262Y-89790000D01*
G75*
G02*
X123940000Y-90061738I0J-271738D01*
G01*
X123940000Y-90768262D01*
G75*
G02*
X123668262Y-91040000I-271738J0D01*
G01*
X122711738Y-91040000D01*
G75*
G02*
X122440000Y-90768262I0J271738D01*
G01*
X122440000Y-90061738D01*
G75*
G02*
X122711738Y-89790000I271738J0D01*
G01*
G37*
G36*
G01*
X122711738Y-91840000D02*
X123668262Y-91840000D01*
G75*
G02*
X123940000Y-92111738I0J-271738D01*
G01*
X123940000Y-92818262D01*
G75*
G02*
X123668262Y-93090000I-271738J0D01*
G01*
X122711738Y-93090000D01*
G75*
G02*
X122440000Y-92818262I0J271738D01*
G01*
X122440000Y-92111738D01*
G75*
G02*
X122711738Y-91840000I271738J0D01*
G01*
G37*
%TD*%
%TO.C,470R*%
G36*
G01*
X129129750Y-93979000D02*
X128172250Y-93979000D01*
G75*
G02*
X127901000Y-93707750I0J271250D01*
G01*
X127901000Y-93000250D01*
G75*
G02*
X128172250Y-92729000I271250J0D01*
G01*
X129129750Y-92729000D01*
G75*
G02*
X129401000Y-93000250I0J-271250D01*
G01*
X129401000Y-93707750D01*
G75*
G02*
X129129750Y-93979000I-271250J0D01*
G01*
G37*
G36*
G01*
X129129262Y-91929000D02*
X128172738Y-91929000D01*
G75*
G02*
X127901000Y-91657262I0J271738D01*
G01*
X127901000Y-90950738D01*
G75*
G02*
X128172738Y-90679000I271738J0D01*
G01*
X129129262Y-90679000D01*
G75*
G02*
X129401000Y-90950738I0J-271738D01*
G01*
X129401000Y-91657262D01*
G75*
G02*
X129129262Y-91929000I-271738J0D01*
G01*
G37*
%TD*%
%TO.C,VBUS1*%
G36*
G01*
X120415000Y-102205262D02*
X120415000Y-101248738D01*
G75*
G02*
X120686738Y-100977000I271738J0D01*
G01*
X121393262Y-100977000D01*
G75*
G02*
X121665000Y-101248738I0J-271738D01*
G01*
X121665000Y-102205262D01*
G75*
G02*
X121393262Y-102477000I-271738J0D01*
G01*
X120686738Y-102477000D01*
G75*
G02*
X120415000Y-102205262I0J271738D01*
G01*
G37*
G36*
G01*
X118365000Y-102205262D02*
X118365000Y-101248738D01*
G75*
G02*
X118636738Y-100977000I271738J0D01*
G01*
X119343262Y-100977000D01*
G75*
G02*
X119615000Y-101248738I0J-271738D01*
G01*
X119615000Y-102205262D01*
G75*
G02*
X119343262Y-102477000I-271738J0D01*
G01*
X118636738Y-102477000D01*
G75*
G02*
X118365000Y-102205262I0J271738D01*
G01*
G37*
%TD*%
%TO.C,VBUS2*%
G36*
G01*
X122184000Y-102205262D02*
X122184000Y-101248738D01*
G75*
G02*
X122455738Y-100977000I271738J0D01*
G01*
X123162262Y-100977000D01*
G75*
G02*
X123434000Y-101248738I0J-271738D01*
G01*
X123434000Y-102205262D01*
G75*
G02*
X123162262Y-102477000I-271738J0D01*
G01*
X122455738Y-102477000D01*
G75*
G02*
X122184000Y-102205262I0J271738D01*
G01*
G37*
G36*
G01*
X124234000Y-102205262D02*
X124234000Y-101248738D01*
G75*
G02*
X124505738Y-100977000I271738J0D01*
G01*
X125212262Y-100977000D01*
G75*
G02*
X125484000Y-101248738I0J-271738D01*
G01*
X125484000Y-102205262D01*
G75*
G02*
X125212262Y-102477000I-271738J0D01*
G01*
X124505738Y-102477000D01*
G75*
G02*
X124234000Y-102205262I0J271738D01*
G01*
G37*
%TD*%
%TO.C,Rx_res1*%
G36*
G01*
X115462000Y-91918262D02*
X115462000Y-90961738D01*
G75*
G02*
X115733738Y-90690000I271738J0D01*
G01*
X116440262Y-90690000D01*
G75*
G02*
X116712000Y-90961738I0J-271738D01*
G01*
X116712000Y-91918262D01*
G75*
G02*
X116440262Y-92190000I-271738J0D01*
G01*
X115733738Y-92190000D01*
G75*
G02*
X115462000Y-91918262I0J271738D01*
G01*
G37*
G36*
G01*
X113412000Y-91918262D02*
X113412000Y-90961738D01*
G75*
G02*
X113683738Y-90690000I271738J0D01*
G01*
X114390262Y-90690000D01*
G75*
G02*
X114662000Y-90961738I0J-271738D01*
G01*
X114662000Y-91918262D01*
G75*
G02*
X114390262Y-92190000I-271738J0D01*
G01*
X113683738Y-92190000D01*
G75*
G02*
X113412000Y-91918262I0J271738D01*
G01*
G37*
%TD*%
%TO.C,Tx_res1*%
G36*
G01*
X116830000Y-92866738D02*
X116830000Y-93823262D01*
G75*
G02*
X116558262Y-94095000I-271738J0D01*
G01*
X115851738Y-94095000D01*
G75*
G02*
X115580000Y-93823262I0J271738D01*
G01*
X115580000Y-92866738D01*
G75*
G02*
X115851738Y-92595000I271738J0D01*
G01*
X116558262Y-92595000D01*
G75*
G02*
X116830000Y-92866738I0J-271738D01*
G01*
G37*
G36*
G01*
X114780000Y-92866738D02*
X114780000Y-93823262D01*
G75*
G02*
X114508262Y-94095000I-271738J0D01*
G01*
X113801738Y-94095000D01*
G75*
G02*
X113530000Y-93823262I0J271738D01*
G01*
X113530000Y-92866738D01*
G75*
G02*
X113801738Y-92595000I271738J0D01*
G01*
X114508262Y-92595000D01*
G75*
G02*
X114780000Y-92866738I0J-271738D01*
G01*
G37*
%TD*%
%TO.C,J1*%
G36*
G01*
X117740000Y-143930000D02*
X117740000Y-145630000D01*
G75*
G02*
X117690000Y-145680000I-50000J0D01*
G01*
X115990000Y-145680000D01*
G75*
G02*
X115940000Y-145630000I0J50000D01*
G01*
X115940000Y-143930000D01*
G75*
G02*
X115990000Y-143880000I50000J0D01*
G01*
X117690000Y-143880000D01*
G75*
G02*
X117740000Y-143930000I0J-50000D01*
G01*
G37*
D13*
X116840000Y-142240000D03*
X116840000Y-139700000D03*
X116840000Y-137160000D03*
X116840000Y-134620000D03*
X116840000Y-132080000D03*
X116840000Y-129540000D03*
X116840000Y-127000000D03*
X116840000Y-124460000D03*
X116840000Y-121920000D03*
X116840000Y-119380000D03*
X116840000Y-116840000D03*
X116840000Y-114300000D03*
X116840000Y-111760000D03*
X116840000Y-109220000D03*
X116840000Y-106680000D03*
X116840000Y-104140000D03*
X116840000Y-101600000D03*
X116840000Y-99060000D03*
X116840000Y-96520000D03*
%TD*%
%TO.C,J2*%
X127000000Y-144780000D03*
X127000000Y-142240000D03*
X127000000Y-139700000D03*
X127000000Y-137160000D03*
X127000000Y-134620000D03*
X127000000Y-132080000D03*
X127000000Y-129540000D03*
X127000000Y-127000000D03*
X127000000Y-124460000D03*
X127000000Y-121920000D03*
X127000000Y-119380000D03*
X127000000Y-116840000D03*
X127000000Y-114300000D03*
X127000000Y-111760000D03*
X127000000Y-109220000D03*
X127000000Y-106680000D03*
X127000000Y-104140000D03*
X127000000Y-101600000D03*
X127000000Y-99060000D03*
G36*
G01*
X126100000Y-97370000D02*
X126100000Y-95670000D01*
G75*
G02*
X126150000Y-95620000I50000J0D01*
G01*
X127850000Y-95620000D01*
G75*
G02*
X127900000Y-95670000I0J-50000D01*
G01*
X127900000Y-97370000D01*
G75*
G02*
X127850000Y-97420000I-50000J0D01*
G01*
X126150000Y-97420000D01*
G75*
G02*
X126100000Y-97370000I0J50000D01*
G01*
G37*
%TD*%
%TO.C,SW1*%
G36*
G01*
X120870000Y-143535000D02*
X120870000Y-144585000D01*
G75*
G02*
X120820000Y-144635000I-50000J0D01*
G01*
X119420000Y-144635000D01*
G75*
G02*
X119370000Y-144585000I0J50000D01*
G01*
X119370000Y-143535000D01*
G75*
G02*
X119420000Y-143485000I50000J0D01*
G01*
X120820000Y-143485000D01*
G75*
G02*
X120870000Y-143535000I0J-50000D01*
G01*
G37*
G36*
G01*
X124470000Y-143535000D02*
X124470000Y-144585000D01*
G75*
G02*
X124420000Y-144635000I-50000J0D01*
G01*
X123020000Y-144635000D01*
G75*
G02*
X122970000Y-144585000I0J50000D01*
G01*
X122970000Y-143535000D01*
G75*
G02*
X123020000Y-143485000I50000J0D01*
G01*
X124420000Y-143485000D01*
G75*
G02*
X124470000Y-143535000I0J-50000D01*
G01*
G37*
G36*
G01*
X120870000Y-144975000D02*
X120870000Y-146025000D01*
G75*
G02*
X120820000Y-146075000I-50000J0D01*
G01*
X119420000Y-146075000D01*
G75*
G02*
X119370000Y-146025000I0J50000D01*
G01*
X119370000Y-144975000D01*
G75*
G02*
X119420000Y-144925000I50000J0D01*
G01*
X120820000Y-144925000D01*
G75*
G02*
X120870000Y-144975000I0J-50000D01*
G01*
G37*
G36*
G01*
X124470000Y-144975000D02*
X124470000Y-146025000D01*
G75*
G02*
X124420000Y-146075000I-50000J0D01*
G01*
X123020000Y-146075000D01*
G75*
G02*
X122970000Y-146025000I0J50000D01*
G01*
X122970000Y-144975000D01*
G75*
G02*
X123020000Y-144925000I50000J0D01*
G01*
X124420000Y-144925000D01*
G75*
G02*
X124470000Y-144975000I0J-50000D01*
G01*
G37*
D14*
X121920000Y-143880000D03*
X121920000Y-145680000D03*
%TD*%
%TO.C,U3*%
G36*
G01*
X113450000Y-97320000D02*
X113450000Y-95720000D01*
G75*
G02*
X113500000Y-95670000I50000J0D01*
G01*
X115100000Y-95670000D01*
G75*
G02*
X115150000Y-95720000I0J-50000D01*
G01*
X115150000Y-97320000D01*
G75*
G02*
X115100000Y-97370000I-50000J0D01*
G01*
X113500000Y-97370000D01*
G75*
G02*
X113450000Y-97320000I0J50000D01*
G01*
G37*
D15*
X129540000Y-144780000D03*
X114300000Y-99060000D03*
X129540000Y-142240000D03*
X114300000Y-101600000D03*
X129540000Y-139700000D03*
X114300000Y-104140000D03*
X129540000Y-137160000D03*
X114300000Y-106680000D03*
X129540000Y-134620000D03*
X114300000Y-109220000D03*
X129540000Y-132080000D03*
X114300000Y-111760000D03*
X129540000Y-129540000D03*
X114300000Y-114300000D03*
X129540000Y-127000000D03*
X114300000Y-116840000D03*
X129540000Y-124460000D03*
X114300000Y-119380000D03*
X129540000Y-121920000D03*
X114300000Y-121920000D03*
X129540000Y-119380000D03*
X114300000Y-124460000D03*
X129540000Y-116840000D03*
X114300000Y-127000000D03*
X129540000Y-114300000D03*
X114300000Y-129540000D03*
X129540000Y-111760000D03*
X114300000Y-132080000D03*
X129540000Y-109220000D03*
X114300000Y-134620000D03*
X129540000Y-106680000D03*
X114300000Y-137160000D03*
X129540000Y-104140000D03*
X114300000Y-139700000D03*
X129540000Y-101600000D03*
X114300000Y-142240000D03*
X129540000Y-99060000D03*
X114300000Y-144780000D03*
X129540000Y-96520000D03*
%TD*%
M02*
