%TF.GenerationSoftware,KiCad,Pcbnew,(5.1.9)-1*%
%TF.CreationDate,2021-04-12T21:57:58+01:00*%
%TF.ProjectId,Propeller_dev_board,50726f70-656c-46c6-9572-5f6465765f62,rev?*%
%TF.SameCoordinates,Original*%
%TF.FileFunction,Legend,Bot*%
%TF.FilePolarity,Positive*%
%FSLAX46Y46*%
G04 Gerber Fmt 4.6, Leading zero omitted, Abs format (unit mm)*
G04 Created by KiCad (PCBNEW (5.1.9)-1) date 2021-04-12 21:57:58*
%MOMM*%
%LPD*%
G01*
G04 APERTURE LIST*
%ADD10C,0.150000*%
%ADD11C,0.010000*%
%ADD12C,0.120000*%
%ADD13C,0.100000*%
G04 APERTURE END LIST*
D10*
X125340666Y-139264380D02*
X125340666Y-138264380D01*
X124959714Y-138264380D01*
X124864476Y-138312000D01*
X124816857Y-138359619D01*
X124769238Y-138454857D01*
X124769238Y-138597714D01*
X124816857Y-138692952D01*
X124864476Y-138740571D01*
X124959714Y-138788190D01*
X125340666Y-138788190D01*
X124340666Y-139264380D02*
X124340666Y-138597714D01*
X124340666Y-138788190D02*
X124293047Y-138692952D01*
X124245428Y-138645333D01*
X124150190Y-138597714D01*
X124054952Y-138597714D01*
X123578761Y-139264380D02*
X123674000Y-139216761D01*
X123721619Y-139169142D01*
X123769238Y-139073904D01*
X123769238Y-138788190D01*
X123721619Y-138692952D01*
X123674000Y-138645333D01*
X123578761Y-138597714D01*
X123435904Y-138597714D01*
X123340666Y-138645333D01*
X123293047Y-138692952D01*
X123245428Y-138788190D01*
X123245428Y-139073904D01*
X123293047Y-139169142D01*
X123340666Y-139216761D01*
X123435904Y-139264380D01*
X123578761Y-139264380D01*
X122816857Y-138597714D02*
X122816857Y-139597714D01*
X122816857Y-138645333D02*
X122721619Y-138597714D01*
X122531142Y-138597714D01*
X122435904Y-138645333D01*
X122388285Y-138692952D01*
X122340666Y-138788190D01*
X122340666Y-139073904D01*
X122388285Y-139169142D01*
X122435904Y-139216761D01*
X122531142Y-139264380D01*
X122721619Y-139264380D01*
X122816857Y-139216761D01*
X121531142Y-139216761D02*
X121626380Y-139264380D01*
X121816857Y-139264380D01*
X121912095Y-139216761D01*
X121959714Y-139121523D01*
X121959714Y-138740571D01*
X121912095Y-138645333D01*
X121816857Y-138597714D01*
X121626380Y-138597714D01*
X121531142Y-138645333D01*
X121483523Y-138740571D01*
X121483523Y-138835809D01*
X121959714Y-138931047D01*
X120912095Y-139264380D02*
X121007333Y-139216761D01*
X121054952Y-139121523D01*
X121054952Y-138264380D01*
X120388285Y-139264380D02*
X120483523Y-139216761D01*
X120531142Y-139121523D01*
X120531142Y-138264380D01*
X119626380Y-139216761D02*
X119721619Y-139264380D01*
X119912095Y-139264380D01*
X120007333Y-139216761D01*
X120054952Y-139121523D01*
X120054952Y-138740571D01*
X120007333Y-138645333D01*
X119912095Y-138597714D01*
X119721619Y-138597714D01*
X119626380Y-138645333D01*
X119578761Y-138740571D01*
X119578761Y-138835809D01*
X120054952Y-138931047D01*
X119150190Y-139264380D02*
X119150190Y-138597714D01*
X119150190Y-138788190D02*
X119102571Y-138692952D01*
X119054952Y-138645333D01*
X118959714Y-138597714D01*
X118864476Y-138597714D01*
X124935904Y-140914380D02*
X124935904Y-139914380D01*
X124697809Y-139914380D01*
X124554952Y-139962000D01*
X124459714Y-140057238D01*
X124412095Y-140152476D01*
X124364476Y-140342952D01*
X124364476Y-140485809D01*
X124412095Y-140676285D01*
X124459714Y-140771523D01*
X124554952Y-140866761D01*
X124697809Y-140914380D01*
X124935904Y-140914380D01*
X123935904Y-140914380D02*
X123935904Y-139914380D01*
X123459714Y-140914380D02*
X123459714Y-139914380D01*
X123078761Y-139914380D01*
X122983523Y-139962000D01*
X122935904Y-140009619D01*
X122888285Y-140104857D01*
X122888285Y-140247714D01*
X122935904Y-140342952D01*
X122983523Y-140390571D01*
X123078761Y-140438190D01*
X123459714Y-140438190D01*
X122507333Y-140866761D02*
X122412095Y-140914380D01*
X122221619Y-140914380D01*
X122126380Y-140866761D01*
X122078761Y-140771523D01*
X122078761Y-140723904D01*
X122126380Y-140628666D01*
X122221619Y-140581047D01*
X122364476Y-140581047D01*
X122459714Y-140533428D01*
X122507333Y-140438190D01*
X122507333Y-140390571D01*
X122459714Y-140295333D01*
X122364476Y-140247714D01*
X122221619Y-140247714D01*
X122126380Y-140295333D01*
X121793047Y-140247714D02*
X121412095Y-140247714D01*
X121650190Y-139914380D02*
X121650190Y-140771523D01*
X121602571Y-140866761D01*
X121507333Y-140914380D01*
X121412095Y-140914380D01*
X121078761Y-140914380D02*
X121078761Y-140247714D01*
X121078761Y-139914380D02*
X121126380Y-139962000D01*
X121078761Y-140009619D01*
X121031142Y-139962000D01*
X121078761Y-139914380D01*
X121078761Y-140009619D01*
X120174000Y-140866761D02*
X120269238Y-140914380D01*
X120459714Y-140914380D01*
X120554952Y-140866761D01*
X120602571Y-140819142D01*
X120650190Y-140723904D01*
X120650190Y-140438190D01*
X120602571Y-140342952D01*
X120554952Y-140295333D01*
X120459714Y-140247714D01*
X120269238Y-140247714D01*
X120174000Y-140295333D01*
X119745428Y-140914380D02*
X119745428Y-139914380D01*
X119650190Y-140533428D02*
X119364476Y-140914380D01*
X119364476Y-140247714D02*
X119745428Y-140628666D01*
X123602571Y-141897714D02*
X123364476Y-142564380D01*
X123126380Y-141897714D01*
X122554952Y-141564380D02*
X122459714Y-141564380D01*
X122364476Y-141612000D01*
X122316857Y-141659619D01*
X122269238Y-141754857D01*
X122221619Y-141945333D01*
X122221619Y-142183428D01*
X122269238Y-142373904D01*
X122316857Y-142469142D01*
X122364476Y-142516761D01*
X122459714Y-142564380D01*
X122554952Y-142564380D01*
X122650190Y-142516761D01*
X122697809Y-142469142D01*
X122745428Y-142373904D01*
X122793047Y-142183428D01*
X122793047Y-141945333D01*
X122745428Y-141754857D01*
X122697809Y-141659619D01*
X122650190Y-141612000D01*
X122554952Y-141564380D01*
X121793047Y-142469142D02*
X121745428Y-142516761D01*
X121793047Y-142564380D01*
X121840666Y-142516761D01*
X121793047Y-142469142D01*
X121793047Y-142564380D01*
X121364476Y-141659619D02*
X121316857Y-141612000D01*
X121221619Y-141564380D01*
X120983523Y-141564380D01*
X120888285Y-141612000D01*
X120840666Y-141659619D01*
X120793047Y-141754857D01*
X120793047Y-141850095D01*
X120840666Y-141992952D01*
X121412095Y-142564380D01*
X120793047Y-142564380D01*
X124379175Y-128357380D02*
X124266080Y-129357380D01*
X123986318Y-128643095D01*
X123885127Y-129357380D01*
X123522032Y-128357380D01*
X123266080Y-129357380D02*
X123141080Y-128357380D01*
X122837508Y-129357380D02*
X122772032Y-128833571D01*
X122807747Y-128738333D01*
X122897032Y-128690714D01*
X123039889Y-128690714D01*
X123141080Y-128738333D01*
X123194651Y-128785952D01*
X121974413Y-129309761D02*
X122075604Y-129357380D01*
X122266080Y-129357380D01*
X122355366Y-129309761D01*
X122391080Y-129214523D01*
X122343461Y-128833571D01*
X122283937Y-128738333D01*
X122182747Y-128690714D01*
X121992270Y-128690714D01*
X121902985Y-128738333D01*
X121867270Y-128833571D01*
X121879175Y-128928809D01*
X122367270Y-129024047D01*
X121117270Y-129309761D02*
X121218461Y-129357380D01*
X121408937Y-129357380D01*
X121498223Y-129309761D01*
X121533937Y-129214523D01*
X121486318Y-128833571D01*
X121426794Y-128738333D01*
X121325604Y-128690714D01*
X121135127Y-128690714D01*
X121045842Y-128738333D01*
X121010127Y-128833571D01*
X121022032Y-128928809D01*
X121510127Y-129024047D01*
X120635127Y-129262142D02*
X120593461Y-129309761D01*
X120647032Y-129357380D01*
X120688699Y-129309761D01*
X120635127Y-129262142D01*
X120647032Y-129357380D01*
X120599413Y-128976428D02*
X120575604Y-128405000D01*
X120522032Y-128357380D01*
X120480366Y-128405000D01*
X120599413Y-128976428D01*
X120522032Y-128357380D01*
D11*
%TO.C,G\u002A\u002A\u002A*%
G36*
X121355556Y-129991555D02*
G01*
X121367178Y-130041889D01*
X121412000Y-130048000D01*
X121481690Y-130017021D01*
X121468445Y-129991555D01*
X121367965Y-129981422D01*
X121355556Y-129991555D01*
G37*
X121355556Y-129991555D02*
X121367178Y-130041889D01*
X121412000Y-130048000D01*
X121481690Y-130017021D01*
X121468445Y-129991555D01*
X121367965Y-129981422D01*
X121355556Y-129991555D01*
G36*
X121920000Y-130005666D02*
G01*
X121962333Y-130048000D01*
X122004667Y-130005666D01*
X121962333Y-129963333D01*
X121920000Y-130005666D01*
G37*
X121920000Y-130005666D02*
X121962333Y-130048000D01*
X122004667Y-130005666D01*
X121962333Y-129963333D01*
X121920000Y-130005666D01*
G36*
X122540889Y-129991555D02*
G01*
X122552511Y-130041889D01*
X122597333Y-130048000D01*
X122667024Y-130017021D01*
X122653778Y-129991555D01*
X122553298Y-129981422D01*
X122540889Y-129991555D01*
G37*
X122540889Y-129991555D02*
X122552511Y-130041889D01*
X122597333Y-130048000D01*
X122667024Y-130017021D01*
X122653778Y-129991555D01*
X122553298Y-129981422D01*
X122540889Y-129991555D01*
G36*
X122766667Y-130090333D02*
G01*
X122809000Y-130132666D01*
X122851333Y-130090333D01*
X122809000Y-130048000D01*
X122766667Y-130090333D01*
G37*
X122766667Y-130090333D02*
X122809000Y-130132666D01*
X122851333Y-130090333D01*
X122809000Y-130048000D01*
X122766667Y-130090333D01*
G36*
X123105333Y-130598333D02*
G01*
X123147667Y-130640666D01*
X123190000Y-130598333D01*
X123147667Y-130556000D01*
X123105333Y-130598333D01*
G37*
X123105333Y-130598333D02*
X123147667Y-130640666D01*
X123190000Y-130598333D01*
X123147667Y-130556000D01*
X123105333Y-130598333D01*
G36*
X121015237Y-130515820D02*
G01*
X121062534Y-130577166D01*
X121186114Y-130708796D01*
X121241277Y-130708223D01*
X121242667Y-130693366D01*
X121184808Y-130622692D01*
X121094500Y-130545200D01*
X120994213Y-130471976D01*
X121015237Y-130515820D01*
G37*
X121015237Y-130515820D02*
X121062534Y-130577166D01*
X121186114Y-130708796D01*
X121241277Y-130708223D01*
X121242667Y-130693366D01*
X121184808Y-130622692D01*
X121094500Y-130545200D01*
X120994213Y-130471976D01*
X121015237Y-130515820D01*
G36*
X123020667Y-130767666D02*
G01*
X123063000Y-130810000D01*
X123105333Y-130767666D01*
X123063000Y-130725333D01*
X123020667Y-130767666D01*
G37*
X123020667Y-130767666D02*
X123063000Y-130810000D01*
X123105333Y-130767666D01*
X123063000Y-130725333D01*
X123020667Y-130767666D01*
G36*
X121025813Y-130161332D02*
G01*
X120988667Y-130205272D01*
X121069913Y-130264835D01*
X121303527Y-130297016D01*
X121496667Y-130302000D01*
X121764600Y-130312445D01*
X121948676Y-130339596D01*
X122004667Y-130370985D01*
X121935607Y-130447723D01*
X121763760Y-130553438D01*
X121703068Y-130583793D01*
X121446125Y-130767764D01*
X121253865Y-131063152D01*
X121230327Y-131114511D01*
X121139072Y-131343138D01*
X121094650Y-131500595D01*
X121096850Y-131539072D01*
X121193867Y-131539510D01*
X121363436Y-131489702D01*
X121645547Y-131428323D01*
X122018087Y-131405735D01*
X122406554Y-131422383D01*
X122736443Y-131478713D01*
X122746059Y-131481423D01*
X122931736Y-131523735D01*
X123006819Y-131488153D01*
X123020667Y-131357369D01*
X122973230Y-131202545D01*
X122766667Y-131202545D01*
X122694162Y-131292125D01*
X122564423Y-131318000D01*
X122420062Y-131285855D01*
X122339671Y-131158751D01*
X122304963Y-131013015D01*
X122276098Y-130804803D01*
X122277801Y-130702303D01*
X121899715Y-130702303D01*
X121889027Y-130745241D01*
X121845705Y-130990430D01*
X121836490Y-131127500D01*
X121794326Y-131274329D01*
X121641308Y-131317815D01*
X121623667Y-131318000D01*
X121464575Y-131287589D01*
X121412000Y-131229128D01*
X121462400Y-131045741D01*
X121582407Y-130830391D01*
X121725233Y-130658044D01*
X121800073Y-130607335D01*
X121897637Y-130596814D01*
X121899715Y-130702303D01*
X122277801Y-130702303D01*
X122278144Y-130681669D01*
X122282712Y-130673065D01*
X122360955Y-130697354D01*
X122492181Y-130812229D01*
X122632347Y-130969502D01*
X122737404Y-131120982D01*
X122766667Y-131202545D01*
X122973230Y-131202545D01*
X122955357Y-131144213D01*
X122790736Y-130900260D01*
X122573770Y-130680018D01*
X122351420Y-130538000D01*
X122300087Y-130521002D01*
X122118702Y-130457253D01*
X122089917Y-130403252D01*
X122197010Y-130366647D01*
X122423261Y-130355086D01*
X122639667Y-130365674D01*
X122971752Y-130380341D01*
X123150112Y-130357335D01*
X123190000Y-130313591D01*
X123107679Y-130256166D01*
X122866747Y-130224007D01*
X122609753Y-130217333D01*
X122205832Y-130208367D01*
X121773855Y-130185245D01*
X121509087Y-130162938D01*
X121192999Y-130141640D01*
X121025813Y-130161332D01*
G37*
X121025813Y-130161332D02*
X120988667Y-130205272D01*
X121069913Y-130264835D01*
X121303527Y-130297016D01*
X121496667Y-130302000D01*
X121764600Y-130312445D01*
X121948676Y-130339596D01*
X122004667Y-130370985D01*
X121935607Y-130447723D01*
X121763760Y-130553438D01*
X121703068Y-130583793D01*
X121446125Y-130767764D01*
X121253865Y-131063152D01*
X121230327Y-131114511D01*
X121139072Y-131343138D01*
X121094650Y-131500595D01*
X121096850Y-131539072D01*
X121193867Y-131539510D01*
X121363436Y-131489702D01*
X121645547Y-131428323D01*
X122018087Y-131405735D01*
X122406554Y-131422383D01*
X122736443Y-131478713D01*
X122746059Y-131481423D01*
X122931736Y-131523735D01*
X123006819Y-131488153D01*
X123020667Y-131357369D01*
X122973230Y-131202545D01*
X122766667Y-131202545D01*
X122694162Y-131292125D01*
X122564423Y-131318000D01*
X122420062Y-131285855D01*
X122339671Y-131158751D01*
X122304963Y-131013015D01*
X122276098Y-130804803D01*
X122277801Y-130702303D01*
X121899715Y-130702303D01*
X121889027Y-130745241D01*
X121845705Y-130990430D01*
X121836490Y-131127500D01*
X121794326Y-131274329D01*
X121641308Y-131317815D01*
X121623667Y-131318000D01*
X121464575Y-131287589D01*
X121412000Y-131229128D01*
X121462400Y-131045741D01*
X121582407Y-130830391D01*
X121725233Y-130658044D01*
X121800073Y-130607335D01*
X121897637Y-130596814D01*
X121899715Y-130702303D01*
X122277801Y-130702303D01*
X122278144Y-130681669D01*
X122282712Y-130673065D01*
X122360955Y-130697354D01*
X122492181Y-130812229D01*
X122632347Y-130969502D01*
X122737404Y-131120982D01*
X122766667Y-131202545D01*
X122973230Y-131202545D01*
X122955357Y-131144213D01*
X122790736Y-130900260D01*
X122573770Y-130680018D01*
X122351420Y-130538000D01*
X122300087Y-130521002D01*
X122118702Y-130457253D01*
X122089917Y-130403252D01*
X122197010Y-130366647D01*
X122423261Y-130355086D01*
X122639667Y-130365674D01*
X122971752Y-130380341D01*
X123150112Y-130357335D01*
X123190000Y-130313591D01*
X123107679Y-130256166D01*
X122866747Y-130224007D01*
X122609753Y-130217333D01*
X122205832Y-130208367D01*
X121773855Y-130185245D01*
X121509087Y-130162938D01*
X121192999Y-130141640D01*
X121025813Y-130161332D01*
G36*
X119976174Y-131108455D02*
G01*
X119743154Y-131170213D01*
X119684670Y-131192973D01*
X119479482Y-131297547D01*
X119397892Y-131410610D01*
X119395866Y-131554184D01*
X119417842Y-131674907D01*
X119474786Y-131743533D01*
X119605701Y-131774765D01*
X119849589Y-131783307D01*
X120004603Y-131783666D01*
X120365844Y-131769225D01*
X120571457Y-131724570D01*
X120629148Y-131673525D01*
X120602871Y-131540390D01*
X120481754Y-131365823D01*
X120311421Y-131202963D01*
X120142245Y-131106411D01*
X119976174Y-131108455D01*
G37*
X119976174Y-131108455D02*
X119743154Y-131170213D01*
X119684670Y-131192973D01*
X119479482Y-131297547D01*
X119397892Y-131410610D01*
X119395866Y-131554184D01*
X119417842Y-131674907D01*
X119474786Y-131743533D01*
X119605701Y-131774765D01*
X119849589Y-131783307D01*
X120004603Y-131783666D01*
X120365844Y-131769225D01*
X120571457Y-131724570D01*
X120629148Y-131673525D01*
X120602871Y-131540390D01*
X120481754Y-131365823D01*
X120311421Y-131202963D01*
X120142245Y-131106411D01*
X119976174Y-131108455D01*
G36*
X124186296Y-130534833D02*
G01*
X124070877Y-130697825D01*
X123933463Y-130936629D01*
X123795232Y-131207322D01*
X123677365Y-131465980D01*
X123601042Y-131668678D01*
X123587442Y-131771493D01*
X123589035Y-131773479D01*
X123738521Y-131822285D01*
X123921957Y-131777439D01*
X124002718Y-131716946D01*
X124121301Y-131613531D01*
X124327438Y-131456588D01*
X124492276Y-131338990D01*
X124775558Y-131121766D01*
X124917021Y-130948562D01*
X124928061Y-130791299D01*
X124820076Y-130621896D01*
X124794620Y-130594025D01*
X124562998Y-130419391D01*
X124351264Y-130412096D01*
X124186296Y-130534833D01*
G37*
X124186296Y-130534833D02*
X124070877Y-130697825D01*
X123933463Y-130936629D01*
X123795232Y-131207322D01*
X123677365Y-131465980D01*
X123601042Y-131668678D01*
X123587442Y-131771493D01*
X123589035Y-131773479D01*
X123738521Y-131822285D01*
X123921957Y-131777439D01*
X124002718Y-131716946D01*
X124121301Y-131613531D01*
X124327438Y-131456588D01*
X124492276Y-131338990D01*
X124775558Y-131121766D01*
X124917021Y-130948562D01*
X124928061Y-130791299D01*
X124820076Y-130621896D01*
X124794620Y-130594025D01*
X124562998Y-130419391D01*
X124351264Y-130412096D01*
X124186296Y-130534833D01*
G36*
X124798667Y-132207000D02*
G01*
X124841000Y-132249333D01*
X124883333Y-132207000D01*
X124841000Y-132164666D01*
X124798667Y-132207000D01*
G37*
X124798667Y-132207000D02*
X124841000Y-132249333D01*
X124883333Y-132207000D01*
X124841000Y-132164666D01*
X124798667Y-132207000D01*
G36*
X124911556Y-132362222D02*
G01*
X124901423Y-132462701D01*
X124911556Y-132475111D01*
X124961890Y-132463488D01*
X124968000Y-132418666D01*
X124937022Y-132348976D01*
X124911556Y-132362222D01*
G37*
X124911556Y-132362222D02*
X124901423Y-132462701D01*
X124911556Y-132475111D01*
X124961890Y-132463488D01*
X124968000Y-132418666D01*
X124937022Y-132348976D01*
X124911556Y-132362222D01*
G36*
X122554884Y-132521574D02*
G01*
X122541883Y-132549318D01*
X122527498Y-132702189D01*
X122616099Y-132736811D01*
X122714750Y-132680620D01*
X122842176Y-132628011D01*
X122891126Y-132668555D01*
X123015203Y-132747995D01*
X123081119Y-132757333D01*
X123163662Y-132740784D01*
X123130199Y-132665706D01*
X123063000Y-132588000D01*
X122873649Y-132452195D01*
X122686406Y-132428726D01*
X122554884Y-132521574D01*
G37*
X122554884Y-132521574D02*
X122541883Y-132549318D01*
X122527498Y-132702189D01*
X122616099Y-132736811D01*
X122714750Y-132680620D01*
X122842176Y-132628011D01*
X122891126Y-132668555D01*
X123015203Y-132747995D01*
X123081119Y-132757333D01*
X123163662Y-132740784D01*
X123130199Y-132665706D01*
X123063000Y-132588000D01*
X122873649Y-132452195D01*
X122686406Y-132428726D01*
X122554884Y-132521574D01*
G36*
X121497857Y-132485355D02*
G01*
X121382922Y-132634021D01*
X121327489Y-132787569D01*
X121327333Y-132794100D01*
X121376358Y-132845602D01*
X121480256Y-132801741D01*
X121565410Y-132704127D01*
X121649934Y-132621291D01*
X121701614Y-132661794D01*
X121829867Y-132747410D01*
X121895786Y-132757333D01*
X121978328Y-132740784D01*
X121944865Y-132665706D01*
X121877667Y-132588000D01*
X121724554Y-132460736D01*
X121613523Y-132418666D01*
X121497857Y-132485355D01*
G37*
X121497857Y-132485355D02*
X121382922Y-132634021D01*
X121327489Y-132787569D01*
X121327333Y-132794100D01*
X121376358Y-132845602D01*
X121480256Y-132801741D01*
X121565410Y-132704127D01*
X121649934Y-132621291D01*
X121701614Y-132661794D01*
X121829867Y-132747410D01*
X121895786Y-132757333D01*
X121978328Y-132740784D01*
X121944865Y-132665706D01*
X121877667Y-132588000D01*
X121724554Y-132460736D01*
X121613523Y-132418666D01*
X121497857Y-132485355D01*
G36*
X124996222Y-132700888D02*
G01*
X124986089Y-132801368D01*
X124996222Y-132813777D01*
X125046557Y-132802155D01*
X125052667Y-132757333D01*
X125021689Y-132687643D01*
X124996222Y-132700888D01*
G37*
X124996222Y-132700888D02*
X124986089Y-132801368D01*
X124996222Y-132813777D01*
X125046557Y-132802155D01*
X125052667Y-132757333D01*
X125021689Y-132687643D01*
X124996222Y-132700888D01*
G36*
X119380000Y-133053666D02*
G01*
X119422333Y-133096000D01*
X119464667Y-133053666D01*
X119422333Y-133011333D01*
X119380000Y-133053666D01*
G37*
X119380000Y-133053666D02*
X119422333Y-133096000D01*
X119464667Y-133053666D01*
X119422333Y-133011333D01*
X119380000Y-133053666D01*
G36*
X125080889Y-133039555D02*
G01*
X125070756Y-133140035D01*
X125080889Y-133152444D01*
X125131223Y-133140822D01*
X125137333Y-133096000D01*
X125106355Y-133026309D01*
X125080889Y-133039555D01*
G37*
X125080889Y-133039555D02*
X125070756Y-133140035D01*
X125080889Y-133152444D01*
X125131223Y-133140822D01*
X125137333Y-133096000D01*
X125106355Y-133026309D01*
X125080889Y-133039555D01*
G36*
X119492889Y-133293555D02*
G01*
X119482756Y-133394035D01*
X119492889Y-133406444D01*
X119543223Y-133394822D01*
X119549333Y-133350000D01*
X119518355Y-133280309D01*
X119492889Y-133293555D01*
G37*
X119492889Y-133293555D02*
X119482756Y-133394035D01*
X119492889Y-133406444D01*
X119543223Y-133394822D01*
X119549333Y-133350000D01*
X119518355Y-133280309D01*
X119492889Y-133293555D01*
G36*
X125165556Y-133378222D02*
G01*
X125155423Y-133478701D01*
X125165556Y-133491111D01*
X125215890Y-133479488D01*
X125222000Y-133434666D01*
X125191022Y-133364976D01*
X125165556Y-133378222D01*
G37*
X125165556Y-133378222D02*
X125155423Y-133478701D01*
X125165556Y-133491111D01*
X125215890Y-133479488D01*
X125222000Y-133434666D01*
X125191022Y-133364976D01*
X125165556Y-133378222D01*
G36*
X122092700Y-133176794D02*
G01*
X122019947Y-133252565D01*
X122063747Y-133355392D01*
X122126989Y-133429497D01*
X122317134Y-133579677D01*
X122466227Y-133573782D01*
X122554760Y-133435424D01*
X122561561Y-133227973D01*
X122450594Y-133110393D01*
X122258587Y-133103241D01*
X122092700Y-133176794D01*
G37*
X122092700Y-133176794D02*
X122019947Y-133252565D01*
X122063747Y-133355392D01*
X122126989Y-133429497D01*
X122317134Y-133579677D01*
X122466227Y-133573782D01*
X122554760Y-133435424D01*
X122561561Y-133227973D01*
X122450594Y-133110393D01*
X122258587Y-133103241D01*
X122092700Y-133176794D01*
G36*
X119549333Y-133731000D02*
G01*
X119591667Y-133773333D01*
X119634000Y-133731000D01*
X119591667Y-133688666D01*
X119549333Y-133731000D01*
G37*
X119549333Y-133731000D02*
X119591667Y-133773333D01*
X119634000Y-133731000D01*
X119591667Y-133688666D01*
X119549333Y-133731000D01*
G36*
X125250222Y-133716888D02*
G01*
X125240089Y-133817368D01*
X125250222Y-133829777D01*
X125300557Y-133818155D01*
X125306667Y-133773333D01*
X125275689Y-133703643D01*
X125250222Y-133716888D01*
G37*
X125250222Y-133716888D02*
X125240089Y-133817368D01*
X125250222Y-133829777D01*
X125300557Y-133818155D01*
X125306667Y-133773333D01*
X125275689Y-133703643D01*
X125250222Y-133716888D01*
G36*
X119662222Y-134055555D02*
G01*
X119652089Y-134156035D01*
X119662222Y-134168444D01*
X119712557Y-134156822D01*
X119718667Y-134112000D01*
X119687689Y-134042309D01*
X119662222Y-134055555D01*
G37*
X119662222Y-134055555D02*
X119652089Y-134156035D01*
X119662222Y-134168444D01*
X119712557Y-134156822D01*
X119718667Y-134112000D01*
X119687689Y-134042309D01*
X119662222Y-134055555D01*
G36*
X124171430Y-129791011D02*
G01*
X123929780Y-130008273D01*
X123666573Y-130377334D01*
X123517508Y-130628814D01*
X123364398Y-130923268D01*
X123244049Y-131198941D01*
X123191905Y-131360333D01*
X123142856Y-131522393D01*
X123053582Y-131585948D01*
X122867356Y-131582405D01*
X122803722Y-131575271D01*
X122159386Y-131536069D01*
X121562073Y-131568091D01*
X121348500Y-131601483D01*
X121124567Y-131638772D01*
X121020417Y-131621547D01*
X120990282Y-131530881D01*
X120988667Y-131452685D01*
X120928330Y-131248941D01*
X120775523Y-131009612D01*
X120572551Y-130782532D01*
X120361720Y-130615533D01*
X120195648Y-130556068D01*
X119979508Y-130592872D01*
X119680776Y-130686924D01*
X119365228Y-130813860D01*
X119098642Y-130949318D01*
X119048255Y-130981056D01*
X118903545Y-131166140D01*
X118820673Y-131448000D01*
X118808669Y-131762520D01*
X118876565Y-132045587D01*
X118893463Y-132080000D01*
X118955361Y-132178601D01*
X119037418Y-132240606D01*
X119176160Y-132274476D01*
X119408112Y-132288672D01*
X119769801Y-132291658D01*
X119807135Y-132291666D01*
X120184882Y-132295704D01*
X120421188Y-132310868D01*
X120543820Y-132341735D01*
X120580544Y-132392881D01*
X120577731Y-132418666D01*
X120547649Y-132897215D01*
X120668065Y-133371029D01*
X120815973Y-133641449D01*
X121087118Y-134008052D01*
X121289677Y-134219933D01*
X121423742Y-134277154D01*
X121489406Y-134179772D01*
X121496667Y-134082788D01*
X121435816Y-133876526D01*
X121324600Y-133728526D01*
X121163166Y-133549741D01*
X120995420Y-133317968D01*
X120976793Y-133288453D01*
X120872590Y-133092685D01*
X120843618Y-132920110D01*
X120880804Y-132689747D01*
X120900632Y-132608634D01*
X120954091Y-132362116D01*
X120950383Y-132221089D01*
X120883524Y-132129633D01*
X120846272Y-132100574D01*
X120586351Y-131967608D01*
X120272874Y-131928467D01*
X119860413Y-131977974D01*
X119827303Y-131984497D01*
X119479812Y-132032024D01*
X119264300Y-131996693D01*
X119158378Y-131865247D01*
X119139657Y-131624430D01*
X119142886Y-131579246D01*
X119185546Y-131366401D01*
X119300724Y-131226893D01*
X119490467Y-131118313D01*
X119764951Y-131012610D01*
X120031057Y-130952653D01*
X120074885Y-130948979D01*
X120224697Y-130959393D01*
X120352725Y-131026136D01*
X120495533Y-131178769D01*
X120688403Y-131445000D01*
X120886383Y-131715748D01*
X121031569Y-131866611D01*
X121155428Y-131924584D01*
X121246986Y-131924256D01*
X121544186Y-131897389D01*
X121910005Y-131884409D01*
X122290851Y-131884849D01*
X122633135Y-131898244D01*
X122883267Y-131924127D01*
X122949442Y-131939072D01*
X123054830Y-131963401D01*
X123141176Y-131943091D01*
X123230503Y-131853447D01*
X123344836Y-131669775D01*
X123506198Y-131367380D01*
X123571063Y-131242090D01*
X123832343Y-130753605D01*
X124040975Y-130406062D01*
X124208372Y-130183657D01*
X124345951Y-130070586D01*
X124433560Y-130048000D01*
X124580970Y-130113437D01*
X124768321Y-130276762D01*
X124952147Y-130488493D01*
X125088985Y-130699151D01*
X125136037Y-130847711D01*
X125122610Y-130984003D01*
X125068314Y-131104270D01*
X124948717Y-131233821D01*
X124739384Y-131397967D01*
X124415880Y-131622016D01*
X124337690Y-131674656D01*
X123969458Y-131927893D01*
X123727528Y-132118721D01*
X123594656Y-132274559D01*
X123553599Y-132422825D01*
X123587115Y-132590937D01*
X123656134Y-132758370D01*
X123749174Y-132980051D01*
X123770575Y-133131630D01*
X123717326Y-133293506D01*
X123629707Y-133464150D01*
X123480396Y-133807006D01*
X123452100Y-134041134D01*
X123521026Y-134149611D01*
X123648907Y-134168456D01*
X123774689Y-134118978D01*
X123824465Y-134035529D01*
X123815875Y-134012568D01*
X123823343Y-133896557D01*
X123898373Y-133691213D01*
X123964071Y-133556359D01*
X124079241Y-133323577D01*
X124118077Y-133158448D01*
X124087280Y-132981046D01*
X124027084Y-132804557D01*
X123949567Y-132572667D01*
X123939544Y-132434510D01*
X124006578Y-132324706D01*
X124112207Y-132222526D01*
X124317975Y-132058755D01*
X124592157Y-131873240D01*
X124735507Y-131786644D01*
X125149015Y-131493130D01*
X125393914Y-131184037D01*
X125470251Y-130858924D01*
X125378072Y-130517353D01*
X125117425Y-130158885D01*
X124927046Y-129975901D01*
X124654062Y-129782237D01*
X124407524Y-129718136D01*
X124171430Y-129791011D01*
G37*
X124171430Y-129791011D02*
X123929780Y-130008273D01*
X123666573Y-130377334D01*
X123517508Y-130628814D01*
X123364398Y-130923268D01*
X123244049Y-131198941D01*
X123191905Y-131360333D01*
X123142856Y-131522393D01*
X123053582Y-131585948D01*
X122867356Y-131582405D01*
X122803722Y-131575271D01*
X122159386Y-131536069D01*
X121562073Y-131568091D01*
X121348500Y-131601483D01*
X121124567Y-131638772D01*
X121020417Y-131621547D01*
X120990282Y-131530881D01*
X120988667Y-131452685D01*
X120928330Y-131248941D01*
X120775523Y-131009612D01*
X120572551Y-130782532D01*
X120361720Y-130615533D01*
X120195648Y-130556068D01*
X119979508Y-130592872D01*
X119680776Y-130686924D01*
X119365228Y-130813860D01*
X119098642Y-130949318D01*
X119048255Y-130981056D01*
X118903545Y-131166140D01*
X118820673Y-131448000D01*
X118808669Y-131762520D01*
X118876565Y-132045587D01*
X118893463Y-132080000D01*
X118955361Y-132178601D01*
X119037418Y-132240606D01*
X119176160Y-132274476D01*
X119408112Y-132288672D01*
X119769801Y-132291658D01*
X119807135Y-132291666D01*
X120184882Y-132295704D01*
X120421188Y-132310868D01*
X120543820Y-132341735D01*
X120580544Y-132392881D01*
X120577731Y-132418666D01*
X120547649Y-132897215D01*
X120668065Y-133371029D01*
X120815973Y-133641449D01*
X121087118Y-134008052D01*
X121289677Y-134219933D01*
X121423742Y-134277154D01*
X121489406Y-134179772D01*
X121496667Y-134082788D01*
X121435816Y-133876526D01*
X121324600Y-133728526D01*
X121163166Y-133549741D01*
X120995420Y-133317968D01*
X120976793Y-133288453D01*
X120872590Y-133092685D01*
X120843618Y-132920110D01*
X120880804Y-132689747D01*
X120900632Y-132608634D01*
X120954091Y-132362116D01*
X120950383Y-132221089D01*
X120883524Y-132129633D01*
X120846272Y-132100574D01*
X120586351Y-131967608D01*
X120272874Y-131928467D01*
X119860413Y-131977974D01*
X119827303Y-131984497D01*
X119479812Y-132032024D01*
X119264300Y-131996693D01*
X119158378Y-131865247D01*
X119139657Y-131624430D01*
X119142886Y-131579246D01*
X119185546Y-131366401D01*
X119300724Y-131226893D01*
X119490467Y-131118313D01*
X119764951Y-131012610D01*
X120031057Y-130952653D01*
X120074885Y-130948979D01*
X120224697Y-130959393D01*
X120352725Y-131026136D01*
X120495533Y-131178769D01*
X120688403Y-131445000D01*
X120886383Y-131715748D01*
X121031569Y-131866611D01*
X121155428Y-131924584D01*
X121246986Y-131924256D01*
X121544186Y-131897389D01*
X121910005Y-131884409D01*
X122290851Y-131884849D01*
X122633135Y-131898244D01*
X122883267Y-131924127D01*
X122949442Y-131939072D01*
X123054830Y-131963401D01*
X123141176Y-131943091D01*
X123230503Y-131853447D01*
X123344836Y-131669775D01*
X123506198Y-131367380D01*
X123571063Y-131242090D01*
X123832343Y-130753605D01*
X124040975Y-130406062D01*
X124208372Y-130183657D01*
X124345951Y-130070586D01*
X124433560Y-130048000D01*
X124580970Y-130113437D01*
X124768321Y-130276762D01*
X124952147Y-130488493D01*
X125088985Y-130699151D01*
X125136037Y-130847711D01*
X125122610Y-130984003D01*
X125068314Y-131104270D01*
X124948717Y-131233821D01*
X124739384Y-131397967D01*
X124415880Y-131622016D01*
X124337690Y-131674656D01*
X123969458Y-131927893D01*
X123727528Y-132118721D01*
X123594656Y-132274559D01*
X123553599Y-132422825D01*
X123587115Y-132590937D01*
X123656134Y-132758370D01*
X123749174Y-132980051D01*
X123770575Y-133131630D01*
X123717326Y-133293506D01*
X123629707Y-133464150D01*
X123480396Y-133807006D01*
X123452100Y-134041134D01*
X123521026Y-134149611D01*
X123648907Y-134168456D01*
X123774689Y-134118978D01*
X123824465Y-134035529D01*
X123815875Y-134012568D01*
X123823343Y-133896557D01*
X123898373Y-133691213D01*
X123964071Y-133556359D01*
X124079241Y-133323577D01*
X124118077Y-133158448D01*
X124087280Y-132981046D01*
X124027084Y-132804557D01*
X123949567Y-132572667D01*
X123939544Y-132434510D01*
X124006578Y-132324706D01*
X124112207Y-132222526D01*
X124317975Y-132058755D01*
X124592157Y-131873240D01*
X124735507Y-131786644D01*
X125149015Y-131493130D01*
X125393914Y-131184037D01*
X125470251Y-130858924D01*
X125378072Y-130517353D01*
X125117425Y-130158885D01*
X124927046Y-129975901D01*
X124654062Y-129782237D01*
X124407524Y-129718136D01*
X124171430Y-129791011D01*
G36*
X125334889Y-134140222D02*
G01*
X125324756Y-134240701D01*
X125334889Y-134253111D01*
X125385223Y-134241488D01*
X125391333Y-134196666D01*
X125360355Y-134126976D01*
X125334889Y-134140222D01*
G37*
X125334889Y-134140222D02*
X125324756Y-134240701D01*
X125334889Y-134253111D01*
X125385223Y-134241488D01*
X125391333Y-134196666D01*
X125360355Y-134126976D01*
X125334889Y-134140222D01*
G36*
X119746889Y-134478888D02*
G01*
X119736756Y-134579368D01*
X119746889Y-134591777D01*
X119797223Y-134580155D01*
X119803333Y-134535333D01*
X119772355Y-134465643D01*
X119746889Y-134478888D01*
G37*
X119746889Y-134478888D02*
X119736756Y-134579368D01*
X119746889Y-134591777D01*
X119797223Y-134580155D01*
X119803333Y-134535333D01*
X119772355Y-134465643D01*
X119746889Y-134478888D01*
G36*
X123980042Y-134152350D02*
G01*
X123760673Y-134250895D01*
X123533635Y-134373874D01*
X123363652Y-134487527D01*
X123317748Y-134534123D01*
X123292166Y-134610233D01*
X123374930Y-134589055D01*
X123576309Y-134466841D01*
X123665090Y-134407405D01*
X123861137Y-134288077D01*
X123993596Y-134232837D01*
X124018985Y-134235429D01*
X124029401Y-134271039D01*
X123997648Y-134345392D01*
X123906479Y-134487022D01*
X123738645Y-134724466D01*
X123644414Y-134855107D01*
X123537165Y-135021977D01*
X123529038Y-135077472D01*
X123600645Y-135031174D01*
X123732603Y-134892660D01*
X123841597Y-134757661D01*
X124067383Y-134437910D01*
X124175836Y-134224202D01*
X124164903Y-134121178D01*
X124127019Y-134112000D01*
X123980042Y-134152350D01*
G37*
X123980042Y-134152350D02*
X123760673Y-134250895D01*
X123533635Y-134373874D01*
X123363652Y-134487527D01*
X123317748Y-134534123D01*
X123292166Y-134610233D01*
X123374930Y-134589055D01*
X123576309Y-134466841D01*
X123665090Y-134407405D01*
X123861137Y-134288077D01*
X123993596Y-134232837D01*
X124018985Y-134235429D01*
X124029401Y-134271039D01*
X123997648Y-134345392D01*
X123906479Y-134487022D01*
X123738645Y-134724466D01*
X123644414Y-134855107D01*
X123537165Y-135021977D01*
X123529038Y-135077472D01*
X123600645Y-135031174D01*
X123732603Y-134892660D01*
X123841597Y-134757661D01*
X124067383Y-134437910D01*
X124175836Y-134224202D01*
X124164903Y-134121178D01*
X124127019Y-134112000D01*
X123980042Y-134152350D01*
G36*
X124826889Y-136426222D02*
G01*
X124816756Y-136526701D01*
X124826889Y-136539111D01*
X124877223Y-136527488D01*
X124883333Y-136482666D01*
X124852355Y-136412976D01*
X124826889Y-136426222D01*
G37*
X124826889Y-136426222D02*
X124816756Y-136526701D01*
X124826889Y-136539111D01*
X124877223Y-136527488D01*
X124883333Y-136482666D01*
X124852355Y-136412976D01*
X124826889Y-136426222D01*
G36*
X120988667Y-136779000D02*
G01*
X121031000Y-136821333D01*
X121073333Y-136779000D01*
X121031000Y-136736666D01*
X120988667Y-136779000D01*
G37*
X120988667Y-136779000D02*
X121031000Y-136821333D01*
X121073333Y-136779000D01*
X121031000Y-136736666D01*
X120988667Y-136779000D01*
G36*
X120768782Y-134319658D02*
G01*
X120734667Y-134382533D01*
X120788275Y-134504634D01*
X120921584Y-134682866D01*
X120967500Y-134734262D01*
X121091943Y-134886915D01*
X121093800Y-134942084D01*
X121059931Y-134935031D01*
X120936747Y-134956364D01*
X120865133Y-135101724D01*
X120843736Y-135334287D01*
X120871202Y-135617229D01*
X120946176Y-135913727D01*
X121067305Y-136186958D01*
X121108390Y-136252919D01*
X121345952Y-136489887D01*
X121668327Y-136667011D01*
X122032372Y-136758409D01*
X122484370Y-136804420D01*
X122952905Y-136803365D01*
X123366558Y-136753565D01*
X123527983Y-136710721D01*
X123799250Y-136533263D01*
X124008198Y-136226464D01*
X124142992Y-135822614D01*
X124191800Y-135354002D01*
X124164159Y-134974768D01*
X124124402Y-134744265D01*
X124085587Y-134657265D01*
X124028726Y-134689112D01*
X123986233Y-134743759D01*
X123914840Y-134924188D01*
X123872424Y-135191318D01*
X123867333Y-135316888D01*
X123829109Y-135653866D01*
X123728613Y-135980973D01*
X123587112Y-136249474D01*
X123425871Y-136410630D01*
X123381920Y-136429354D01*
X122789750Y-136534762D01*
X122235477Y-136501892D01*
X122022654Y-136446307D01*
X121631987Y-136275406D01*
X121379801Y-136050484D01*
X121236146Y-135734998D01*
X121181976Y-135420501D01*
X121157977Y-135148130D01*
X121164275Y-135009426D01*
X121209743Y-134970085D01*
X121292860Y-134991803D01*
X121335131Y-134976455D01*
X121260906Y-134861184D01*
X121115667Y-134698433D01*
X120777000Y-134343597D01*
X121031000Y-134395093D01*
X121295423Y-134450806D01*
X121496667Y-134495606D01*
X121591832Y-134508497D01*
X121532769Y-134465857D01*
X121423446Y-134412977D01*
X121152529Y-134317057D01*
X120919889Y-134285314D01*
X120768782Y-134319658D01*
G37*
X120768782Y-134319658D02*
X120734667Y-134382533D01*
X120788275Y-134504634D01*
X120921584Y-134682866D01*
X120967500Y-134734262D01*
X121091943Y-134886915D01*
X121093800Y-134942084D01*
X121059931Y-134935031D01*
X120936747Y-134956364D01*
X120865133Y-135101724D01*
X120843736Y-135334287D01*
X120871202Y-135617229D01*
X120946176Y-135913727D01*
X121067305Y-136186958D01*
X121108390Y-136252919D01*
X121345952Y-136489887D01*
X121668327Y-136667011D01*
X122032372Y-136758409D01*
X122484370Y-136804420D01*
X122952905Y-136803365D01*
X123366558Y-136753565D01*
X123527983Y-136710721D01*
X123799250Y-136533263D01*
X124008198Y-136226464D01*
X124142992Y-135822614D01*
X124191800Y-135354002D01*
X124164159Y-134974768D01*
X124124402Y-134744265D01*
X124085587Y-134657265D01*
X124028726Y-134689112D01*
X123986233Y-134743759D01*
X123914840Y-134924188D01*
X123872424Y-135191318D01*
X123867333Y-135316888D01*
X123829109Y-135653866D01*
X123728613Y-135980973D01*
X123587112Y-136249474D01*
X123425871Y-136410630D01*
X123381920Y-136429354D01*
X122789750Y-136534762D01*
X122235477Y-136501892D01*
X122022654Y-136446307D01*
X121631987Y-136275406D01*
X121379801Y-136050484D01*
X121236146Y-135734998D01*
X121181976Y-135420501D01*
X121157977Y-135148130D01*
X121164275Y-135009426D01*
X121209743Y-134970085D01*
X121292860Y-134991803D01*
X121335131Y-134976455D01*
X121260906Y-134861184D01*
X121115667Y-134698433D01*
X120777000Y-134343597D01*
X121031000Y-134395093D01*
X121295423Y-134450806D01*
X121496667Y-134495606D01*
X121591832Y-134508497D01*
X121532769Y-134465857D01*
X121423446Y-134412977D01*
X121152529Y-134317057D01*
X120919889Y-134285314D01*
X120768782Y-134319658D01*
G36*
X124910163Y-136890125D02*
G01*
X124900070Y-137022448D01*
X124916847Y-137052402D01*
X124955329Y-137027151D01*
X124961316Y-136941277D01*
X124940639Y-136850935D01*
X124910163Y-136890125D01*
G37*
X124910163Y-136890125D02*
X124900070Y-137022448D01*
X124916847Y-137052402D01*
X124955329Y-137027151D01*
X124961316Y-136941277D01*
X124940639Y-136850935D01*
X124910163Y-136890125D01*
G36*
X121101556Y-137018888D02*
G01*
X121091423Y-137119368D01*
X121101556Y-137131777D01*
X121151890Y-137120155D01*
X121158000Y-137075333D01*
X121127022Y-137005643D01*
X121101556Y-137018888D01*
G37*
X121101556Y-137018888D02*
X121091423Y-137119368D01*
X121101556Y-137131777D01*
X121151890Y-137120155D01*
X121158000Y-137075333D01*
X121127022Y-137005643D01*
X121101556Y-137018888D01*
G36*
X121158000Y-137371666D02*
G01*
X121200333Y-137414000D01*
X121242667Y-137371666D01*
X121200333Y-137329333D01*
X121158000Y-137371666D01*
G37*
X121158000Y-137371666D02*
X121200333Y-137414000D01*
X121242667Y-137371666D01*
X121200333Y-137329333D01*
X121158000Y-137371666D01*
G36*
X123048889Y-137272888D02*
G01*
X123038756Y-137373368D01*
X123048889Y-137385777D01*
X123099223Y-137374155D01*
X123105333Y-137329333D01*
X123074355Y-137259643D01*
X123048889Y-137272888D01*
G37*
X123048889Y-137272888D02*
X123038756Y-137373368D01*
X123048889Y-137385777D01*
X123099223Y-137374155D01*
X123105333Y-137329333D01*
X123074355Y-137259643D01*
X123048889Y-137272888D01*
G36*
X123132163Y-137821458D02*
G01*
X123122070Y-137953782D01*
X123138847Y-137983736D01*
X123177329Y-137958485D01*
X123183316Y-137872611D01*
X123162639Y-137782268D01*
X123132163Y-137821458D01*
G37*
X123132163Y-137821458D02*
X123122070Y-137953782D01*
X123138847Y-137983736D01*
X123177329Y-137958485D01*
X123183316Y-137872611D01*
X123162639Y-137782268D01*
X123132163Y-137821458D01*
G36*
X121121410Y-105440114D02*
G01*
X121174052Y-105554428D01*
X121233874Y-105679091D01*
X121256407Y-105762892D01*
X121245786Y-105838813D01*
X121218652Y-105910178D01*
X121182754Y-106009264D01*
X121171366Y-106069156D01*
X121173295Y-106074406D01*
X121212237Y-106060010D01*
X121290982Y-106004465D01*
X121329285Y-105973361D01*
X121468868Y-105855910D01*
X121441286Y-105993822D01*
X121427338Y-106084443D01*
X121443609Y-106109499D01*
X121496548Y-106087396D01*
X121584382Y-106015480D01*
X121620816Y-105965660D01*
X121671954Y-105916868D01*
X121774006Y-105884190D01*
X121932976Y-105862979D01*
X122299709Y-105789226D01*
X122640695Y-105644039D01*
X122943984Y-105436297D01*
X123197625Y-105174880D01*
X123389670Y-104868668D01*
X123445173Y-104739334D01*
X123493833Y-104565404D01*
X123530958Y-104348334D01*
X123553015Y-104121316D01*
X123556473Y-103917541D01*
X123544998Y-103801333D01*
X123520007Y-103704759D01*
X123475690Y-103563824D01*
X123434614Y-103445390D01*
X123344004Y-103195280D01*
X123292026Y-103450099D01*
X123245768Y-103627193D01*
X123183809Y-103803704D01*
X123144841Y-103890709D01*
X123049635Y-104076500D01*
X122989658Y-103897687D01*
X122929135Y-103774694D01*
X122839238Y-103653370D01*
X122740549Y-103556594D01*
X122653647Y-103507246D01*
X122636419Y-103505000D01*
X122607645Y-103541427D01*
X122597334Y-103617093D01*
X122597334Y-103729187D01*
X122502084Y-103589236D01*
X122336645Y-103404209D01*
X122144645Y-103289770D01*
X122077980Y-103269294D01*
X121997646Y-103255386D01*
X121980285Y-103282472D01*
X122005081Y-103357921D01*
X122032717Y-103460486D01*
X122014821Y-103495573D01*
X121954343Y-103459737D01*
X121934278Y-103440659D01*
X121767899Y-103328017D01*
X121566765Y-103270839D01*
X121406627Y-103273074D01*
X121302962Y-103294679D01*
X121246274Y-103314448D01*
X121242667Y-103318819D01*
X121267363Y-103358211D01*
X121332130Y-103444206D01*
X121422982Y-103558240D01*
X121423620Y-103559024D01*
X121605121Y-103823399D01*
X121740346Y-104106151D01*
X121817203Y-104380604D01*
X121826093Y-104446916D01*
X121846106Y-104648000D01*
X121681970Y-104648158D01*
X121467469Y-104687000D01*
X121290111Y-104796200D01*
X121161374Y-104965434D01*
X121093817Y-105177166D01*
X121088032Y-105309534D01*
X121121410Y-105440114D01*
G37*
X121121410Y-105440114D02*
X121174052Y-105554428D01*
X121233874Y-105679091D01*
X121256407Y-105762892D01*
X121245786Y-105838813D01*
X121218652Y-105910178D01*
X121182754Y-106009264D01*
X121171366Y-106069156D01*
X121173295Y-106074406D01*
X121212237Y-106060010D01*
X121290982Y-106004465D01*
X121329285Y-105973361D01*
X121468868Y-105855910D01*
X121441286Y-105993822D01*
X121427338Y-106084443D01*
X121443609Y-106109499D01*
X121496548Y-106087396D01*
X121584382Y-106015480D01*
X121620816Y-105965660D01*
X121671954Y-105916868D01*
X121774006Y-105884190D01*
X121932976Y-105862979D01*
X122299709Y-105789226D01*
X122640695Y-105644039D01*
X122943984Y-105436297D01*
X123197625Y-105174880D01*
X123389670Y-104868668D01*
X123445173Y-104739334D01*
X123493833Y-104565404D01*
X123530958Y-104348334D01*
X123553015Y-104121316D01*
X123556473Y-103917541D01*
X123544998Y-103801333D01*
X123520007Y-103704759D01*
X123475690Y-103563824D01*
X123434614Y-103445390D01*
X123344004Y-103195280D01*
X123292026Y-103450099D01*
X123245768Y-103627193D01*
X123183809Y-103803704D01*
X123144841Y-103890709D01*
X123049635Y-104076500D01*
X122989658Y-103897687D01*
X122929135Y-103774694D01*
X122839238Y-103653370D01*
X122740549Y-103556594D01*
X122653647Y-103507246D01*
X122636419Y-103505000D01*
X122607645Y-103541427D01*
X122597334Y-103617093D01*
X122597334Y-103729187D01*
X122502084Y-103589236D01*
X122336645Y-103404209D01*
X122144645Y-103289770D01*
X122077980Y-103269294D01*
X121997646Y-103255386D01*
X121980285Y-103282472D01*
X122005081Y-103357921D01*
X122032717Y-103460486D01*
X122014821Y-103495573D01*
X121954343Y-103459737D01*
X121934278Y-103440659D01*
X121767899Y-103328017D01*
X121566765Y-103270839D01*
X121406627Y-103273074D01*
X121302962Y-103294679D01*
X121246274Y-103314448D01*
X121242667Y-103318819D01*
X121267363Y-103358211D01*
X121332130Y-103444206D01*
X121422982Y-103558240D01*
X121423620Y-103559024D01*
X121605121Y-103823399D01*
X121740346Y-104106151D01*
X121817203Y-104380604D01*
X121826093Y-104446916D01*
X121846106Y-104648000D01*
X121681970Y-104648158D01*
X121467469Y-104687000D01*
X121290111Y-104796200D01*
X121161374Y-104965434D01*
X121093817Y-105177166D01*
X121088032Y-105309534D01*
X121121410Y-105440114D01*
G36*
X122914672Y-107390451D02*
G01*
X122970396Y-107432298D01*
X123013579Y-107413874D01*
X123020667Y-107382027D01*
X122986582Y-107323711D01*
X122953639Y-107315000D01*
X122907280Y-107339676D01*
X122914672Y-107390451D01*
G37*
X122914672Y-107390451D02*
X122970396Y-107432298D01*
X123013579Y-107413874D01*
X123020667Y-107382027D01*
X122986582Y-107323711D01*
X122953639Y-107315000D01*
X122907280Y-107339676D01*
X122914672Y-107390451D01*
G36*
X122957167Y-107613569D02*
G01*
X123000774Y-107580776D01*
X123014126Y-107545193D01*
X123003660Y-107493273D01*
X122971793Y-107493569D01*
X122923723Y-107535710D01*
X122919697Y-107589304D01*
X122957167Y-107613569D01*
G37*
X122957167Y-107613569D02*
X123000774Y-107580776D01*
X123014126Y-107545193D01*
X123003660Y-107493273D01*
X122971793Y-107493569D01*
X122923723Y-107535710D01*
X122919697Y-107589304D01*
X122957167Y-107613569D01*
G36*
X122953639Y-107823000D02*
G01*
X123011955Y-107788915D01*
X123020667Y-107755972D01*
X122996053Y-107706599D01*
X122970396Y-107705701D01*
X122914492Y-107747837D01*
X122907384Y-107798564D01*
X122953639Y-107823000D01*
G37*
X122953639Y-107823000D02*
X123011955Y-107788915D01*
X123020667Y-107755972D01*
X122996053Y-107706599D01*
X122970396Y-107705701D01*
X122914492Y-107747837D01*
X122907384Y-107798564D01*
X122953639Y-107823000D01*
G36*
X122914672Y-107983118D02*
G01*
X122970396Y-108024965D01*
X123013579Y-108006540D01*
X123020667Y-107974694D01*
X122986582Y-107916378D01*
X122953639Y-107907666D01*
X122907280Y-107932343D01*
X122914672Y-107983118D01*
G37*
X122914672Y-107983118D02*
X122970396Y-108024965D01*
X123013579Y-108006540D01*
X123020667Y-107974694D01*
X122986582Y-107916378D01*
X122953639Y-107907666D01*
X122907280Y-107932343D01*
X122914672Y-107983118D01*
G36*
X122957167Y-108629569D02*
G01*
X123000774Y-108596776D01*
X123014126Y-108561193D01*
X123003660Y-108509273D01*
X122971793Y-108509569D01*
X122923723Y-108551710D01*
X122919697Y-108605304D01*
X122957167Y-108629569D01*
G37*
X122957167Y-108629569D02*
X123000774Y-108596776D01*
X123014126Y-108561193D01*
X123003660Y-108509273D01*
X122971793Y-108509569D01*
X122923723Y-108551710D01*
X122919697Y-108605304D01*
X122957167Y-108629569D01*
G36*
X122927553Y-108831624D02*
G01*
X122957167Y-108839000D01*
X123013291Y-108805113D01*
X123020667Y-108775500D01*
X122986780Y-108719375D01*
X122957167Y-108712000D01*
X122901043Y-108745886D01*
X122893667Y-108775500D01*
X122927553Y-108831624D01*
G37*
X122927553Y-108831624D02*
X122957167Y-108839000D01*
X123013291Y-108805113D01*
X123020667Y-108775500D01*
X122986780Y-108719375D01*
X122957167Y-108712000D01*
X122901043Y-108745886D01*
X122893667Y-108775500D01*
X122927553Y-108831624D01*
G36*
X122945505Y-109029841D02*
G01*
X122996231Y-109036949D01*
X123020667Y-108990694D01*
X122986582Y-108932378D01*
X122953639Y-108923666D01*
X122904266Y-108948280D01*
X122903368Y-108973937D01*
X122945505Y-109029841D01*
G37*
X122945505Y-109029841D02*
X122996231Y-109036949D01*
X123020667Y-108990694D01*
X122986582Y-108932378D01*
X122953639Y-108923666D01*
X122904266Y-108948280D01*
X122903368Y-108973937D01*
X122945505Y-109029841D01*
G36*
X122957167Y-109645569D02*
G01*
X123000774Y-109612776D01*
X123014126Y-109577193D01*
X123003660Y-109525273D01*
X122971793Y-109525569D01*
X122923723Y-109567710D01*
X122919697Y-109621304D01*
X122957167Y-109645569D01*
G37*
X122957167Y-109645569D02*
X123000774Y-109612776D01*
X123014126Y-109577193D01*
X123003660Y-109525273D01*
X122971793Y-109525569D01*
X122923723Y-109567710D01*
X122919697Y-109621304D01*
X122957167Y-109645569D01*
G36*
X122914672Y-110396118D02*
G01*
X122970396Y-110437965D01*
X123013579Y-110419540D01*
X123020667Y-110387694D01*
X122986582Y-110329378D01*
X122953639Y-110320666D01*
X122907280Y-110345343D01*
X122914672Y-110396118D01*
G37*
X122914672Y-110396118D02*
X122970396Y-110437965D01*
X123013579Y-110419540D01*
X123020667Y-110387694D01*
X122986582Y-110329378D01*
X122953639Y-110320666D01*
X122907280Y-110345343D01*
X122914672Y-110396118D01*
G36*
X122914672Y-110819451D02*
G01*
X122970396Y-110861298D01*
X123013579Y-110842874D01*
X123020667Y-110811027D01*
X122986582Y-110752711D01*
X122953639Y-110744000D01*
X122907280Y-110768676D01*
X122914672Y-110819451D01*
G37*
X122914672Y-110819451D02*
X122970396Y-110861298D01*
X123013579Y-110842874D01*
X123020667Y-110811027D01*
X122986582Y-110752711D01*
X122953639Y-110744000D01*
X122907280Y-110768676D01*
X122914672Y-110819451D01*
G36*
X122948217Y-112077564D02*
G01*
X122967750Y-112088083D01*
X123010238Y-112068435D01*
X123020667Y-112014000D01*
X123001161Y-111946856D01*
X122967750Y-111939916D01*
X122918591Y-111991911D01*
X122914834Y-112014000D01*
X122948217Y-112077564D01*
G37*
X122948217Y-112077564D02*
X122967750Y-112088083D01*
X123010238Y-112068435D01*
X123020667Y-112014000D01*
X123001161Y-111946856D01*
X122967750Y-111939916D01*
X122918591Y-111991911D01*
X122914834Y-112014000D01*
X122948217Y-112077564D01*
G36*
X122953639Y-112268000D02*
G01*
X123011955Y-112233915D01*
X123020667Y-112200972D01*
X122996053Y-112151599D01*
X122970396Y-112150701D01*
X122914492Y-112192837D01*
X122907384Y-112243564D01*
X122953639Y-112268000D01*
G37*
X122953639Y-112268000D02*
X123011955Y-112233915D01*
X123020667Y-112200972D01*
X122996053Y-112151599D01*
X122970396Y-112150701D01*
X122914492Y-112192837D01*
X122907384Y-112243564D01*
X122953639Y-112268000D01*
G36*
X122914672Y-112428118D02*
G01*
X122970396Y-112469965D01*
X123013579Y-112451540D01*
X123020667Y-112419694D01*
X122986582Y-112361378D01*
X122953639Y-112352666D01*
X122907280Y-112377343D01*
X122914672Y-112428118D01*
G37*
X122914672Y-112428118D02*
X122970396Y-112469965D01*
X123013579Y-112451540D01*
X123020667Y-112419694D01*
X122986582Y-112361378D01*
X122953639Y-112352666D01*
X122907280Y-112377343D01*
X122914672Y-112428118D01*
G36*
X122914672Y-112851451D02*
G01*
X122970396Y-112893298D01*
X123013579Y-112874874D01*
X123020667Y-112843027D01*
X122986582Y-112784711D01*
X122953639Y-112776000D01*
X122907280Y-112800676D01*
X122914672Y-112851451D01*
G37*
X122914672Y-112851451D02*
X122970396Y-112893298D01*
X123013579Y-112874874D01*
X123020667Y-112843027D01*
X122986582Y-112784711D01*
X122953639Y-112776000D01*
X122907280Y-112800676D01*
X122914672Y-112851451D01*
G36*
X122957167Y-113667236D02*
G01*
X123000774Y-113634443D01*
X123014126Y-113598860D01*
X123003660Y-113546940D01*
X122971793Y-113547235D01*
X122923723Y-113589377D01*
X122919697Y-113642971D01*
X122957167Y-113667236D01*
G37*
X122957167Y-113667236D02*
X123000774Y-113634443D01*
X123014126Y-113598860D01*
X123003660Y-113546940D01*
X122971793Y-113547235D01*
X122923723Y-113589377D01*
X122919697Y-113642971D01*
X122957167Y-113667236D01*
G36*
X122957167Y-114090569D02*
G01*
X123000774Y-114057776D01*
X123014126Y-114022193D01*
X123003660Y-113970273D01*
X122971793Y-113970569D01*
X122923723Y-114012710D01*
X122919697Y-114066304D01*
X122957167Y-114090569D01*
G37*
X122957167Y-114090569D02*
X123000774Y-114057776D01*
X123014126Y-114022193D01*
X123003660Y-113970273D01*
X122971793Y-113970569D01*
X122923723Y-114012710D01*
X122919697Y-114066304D01*
X122957167Y-114090569D01*
G36*
X122927553Y-114292624D02*
G01*
X122957167Y-114300000D01*
X123013291Y-114266113D01*
X123020667Y-114236500D01*
X122986780Y-114180375D01*
X122957167Y-114173000D01*
X122901043Y-114206886D01*
X122893667Y-114236500D01*
X122927553Y-114292624D01*
G37*
X122927553Y-114292624D02*
X122957167Y-114300000D01*
X123013291Y-114266113D01*
X123020667Y-114236500D01*
X122986780Y-114180375D01*
X122957167Y-114173000D01*
X122901043Y-114206886D01*
X122893667Y-114236500D01*
X122927553Y-114292624D01*
G36*
X122955642Y-114506461D02*
G01*
X122980832Y-114511666D01*
X123015366Y-114480456D01*
X123015242Y-114416597D01*
X122981259Y-114365307D01*
X122926889Y-114370616D01*
X122915260Y-114383976D01*
X122909593Y-114454413D01*
X122955642Y-114506461D01*
G37*
X122955642Y-114506461D02*
X122980832Y-114511666D01*
X123015366Y-114480456D01*
X123015242Y-114416597D01*
X122981259Y-114365307D01*
X122926889Y-114370616D01*
X122915260Y-114383976D01*
X122909593Y-114454413D01*
X122955642Y-114506461D01*
G36*
X122953639Y-115104333D02*
G01*
X123011955Y-115070248D01*
X123020667Y-115037305D01*
X122996053Y-114987932D01*
X122970396Y-114987034D01*
X122914492Y-115029171D01*
X122907384Y-115079897D01*
X122953639Y-115104333D01*
G37*
X122953639Y-115104333D02*
X123011955Y-115070248D01*
X123020667Y-115037305D01*
X122996053Y-114987932D01*
X122970396Y-114987034D01*
X122914492Y-115029171D01*
X122907384Y-115079897D01*
X122953639Y-115104333D01*
G36*
X122914672Y-115264451D02*
G01*
X122970396Y-115306298D01*
X123013579Y-115287874D01*
X123020667Y-115256027D01*
X122986582Y-115197711D01*
X122953639Y-115189000D01*
X122907280Y-115213676D01*
X122914672Y-115264451D01*
G37*
X122914672Y-115264451D02*
X122970396Y-115306298D01*
X123013579Y-115287874D01*
X123020667Y-115256027D01*
X122986582Y-115197711D01*
X122953639Y-115189000D01*
X122907280Y-115213676D01*
X122914672Y-115264451D01*
G36*
X122948217Y-115506564D02*
G01*
X122967750Y-115517083D01*
X123010238Y-115497435D01*
X123020667Y-115443000D01*
X123001161Y-115375856D01*
X122967750Y-115368916D01*
X122918591Y-115420911D01*
X122914834Y-115443000D01*
X122948217Y-115506564D01*
G37*
X122948217Y-115506564D02*
X122967750Y-115517083D01*
X123010238Y-115497435D01*
X123020667Y-115443000D01*
X123001161Y-115375856D01*
X122967750Y-115368916D01*
X122918591Y-115420911D01*
X122914834Y-115443000D01*
X122948217Y-115506564D01*
G36*
X122953639Y-116120333D02*
G01*
X123011955Y-116086248D01*
X123020667Y-116053305D01*
X122996053Y-116003932D01*
X122970396Y-116003034D01*
X122914492Y-116045171D01*
X122907384Y-116095897D01*
X122953639Y-116120333D01*
G37*
X122953639Y-116120333D02*
X123011955Y-116086248D01*
X123020667Y-116053305D01*
X122996053Y-116003932D01*
X122970396Y-116003034D01*
X122914492Y-116045171D01*
X122907384Y-116095897D01*
X122953639Y-116120333D01*
G36*
X122914672Y-116873118D02*
G01*
X122970396Y-116914965D01*
X123013579Y-116896540D01*
X123020667Y-116864694D01*
X122986582Y-116806378D01*
X122953639Y-116797666D01*
X122907280Y-116822343D01*
X122914672Y-116873118D01*
G37*
X122914672Y-116873118D02*
X122970396Y-116914965D01*
X123013579Y-116896540D01*
X123020667Y-116864694D01*
X122986582Y-116806378D01*
X122953639Y-116797666D01*
X122907280Y-116822343D01*
X122914672Y-116873118D01*
G36*
X122914672Y-117296451D02*
G01*
X122970396Y-117338298D01*
X123013579Y-117319874D01*
X123020667Y-117288027D01*
X122986582Y-117229711D01*
X122953639Y-117221000D01*
X122907280Y-117245676D01*
X122914672Y-117296451D01*
G37*
X122914672Y-117296451D02*
X122970396Y-117338298D01*
X123013579Y-117319874D01*
X123020667Y-117288027D01*
X122986582Y-117229711D01*
X122953639Y-117221000D01*
X122907280Y-117245676D01*
X122914672Y-117296451D01*
G36*
X122948217Y-117538564D02*
G01*
X122967750Y-117549083D01*
X123010238Y-117529435D01*
X123020667Y-117475000D01*
X123001161Y-117407856D01*
X122967750Y-117400916D01*
X122918591Y-117452911D01*
X122914834Y-117475000D01*
X122948217Y-117538564D01*
G37*
X122948217Y-117538564D02*
X122967750Y-117549083D01*
X123010238Y-117529435D01*
X123020667Y-117475000D01*
X123001161Y-117407856D01*
X122967750Y-117400916D01*
X122918591Y-117452911D01*
X122914834Y-117475000D01*
X122948217Y-117538564D01*
G36*
X122953639Y-117729000D02*
G01*
X123011955Y-117694915D01*
X123020667Y-117661972D01*
X122996053Y-117612599D01*
X122970396Y-117611701D01*
X122914492Y-117653837D01*
X122907384Y-117704564D01*
X122953639Y-117729000D01*
G37*
X122953639Y-117729000D02*
X123011955Y-117694915D01*
X123020667Y-117661972D01*
X122996053Y-117612599D01*
X122970396Y-117611701D01*
X122914492Y-117653837D01*
X122907384Y-117704564D01*
X122953639Y-117729000D01*
G36*
X122945505Y-117919841D02*
G01*
X122996231Y-117926949D01*
X123020667Y-117880694D01*
X122986582Y-117822378D01*
X122953639Y-117813666D01*
X122904266Y-117838280D01*
X122903368Y-117863937D01*
X122945505Y-117919841D01*
G37*
X122945505Y-117919841D02*
X122996231Y-117926949D01*
X123020667Y-117880694D01*
X122986582Y-117822378D01*
X122953639Y-117813666D01*
X122904266Y-117838280D01*
X122903368Y-117863937D01*
X122945505Y-117919841D01*
G36*
X122948217Y-118131230D02*
G01*
X122967750Y-118141750D01*
X123010238Y-118122102D01*
X123020667Y-118067666D01*
X123001161Y-118000523D01*
X122967750Y-117993583D01*
X122918591Y-118045578D01*
X122914834Y-118067666D01*
X122948217Y-118131230D01*
G37*
X122948217Y-118131230D02*
X122967750Y-118141750D01*
X123010238Y-118122102D01*
X123020667Y-118067666D01*
X123001161Y-118000523D01*
X122967750Y-117993583D01*
X122918591Y-118045578D01*
X122914834Y-118067666D01*
X122948217Y-118131230D01*
G36*
X122957167Y-118535569D02*
G01*
X123000774Y-118502776D01*
X123014126Y-118467193D01*
X123003660Y-118415273D01*
X122971793Y-118415569D01*
X122923723Y-118457710D01*
X122919697Y-118511304D01*
X122957167Y-118535569D01*
G37*
X122957167Y-118535569D02*
X123000774Y-118502776D01*
X123014126Y-118467193D01*
X123003660Y-118415273D01*
X122971793Y-118415569D01*
X122923723Y-118457710D01*
X122919697Y-118511304D01*
X122957167Y-118535569D01*
G36*
X122953639Y-118745000D02*
G01*
X123011955Y-118710915D01*
X123020667Y-118677972D01*
X122996053Y-118628599D01*
X122970396Y-118627701D01*
X122914492Y-118669837D01*
X122907384Y-118720564D01*
X122953639Y-118745000D01*
G37*
X122953639Y-118745000D02*
X123011955Y-118710915D01*
X123020667Y-118677972D01*
X122996053Y-118628599D01*
X122970396Y-118627701D01*
X122914492Y-118669837D01*
X122907384Y-118720564D01*
X122953639Y-118745000D01*
G36*
X122955642Y-118951461D02*
G01*
X122980832Y-118956666D01*
X123015366Y-118925456D01*
X123015242Y-118861597D01*
X122981259Y-118810307D01*
X122926889Y-118815616D01*
X122915260Y-118828976D01*
X122909593Y-118899413D01*
X122955642Y-118951461D01*
G37*
X122955642Y-118951461D02*
X122980832Y-118956666D01*
X123015366Y-118925456D01*
X123015242Y-118861597D01*
X122981259Y-118810307D01*
X122926889Y-118815616D01*
X122915260Y-118828976D01*
X122909593Y-118899413D01*
X122955642Y-118951461D01*
G36*
X122957167Y-119128236D02*
G01*
X123000774Y-119095443D01*
X123014126Y-119059860D01*
X123003660Y-119007940D01*
X122971793Y-119008235D01*
X122923723Y-119050377D01*
X122919697Y-119103971D01*
X122957167Y-119128236D01*
G37*
X122957167Y-119128236D02*
X123000774Y-119095443D01*
X123014126Y-119059860D01*
X123003660Y-119007940D01*
X122971793Y-119008235D01*
X122923723Y-119050377D01*
X122919697Y-119103971D01*
X122957167Y-119128236D01*
G36*
X122955642Y-119967461D02*
G01*
X122980832Y-119972666D01*
X123015366Y-119941456D01*
X123015242Y-119877597D01*
X122981259Y-119826307D01*
X122926889Y-119831616D01*
X122915260Y-119844976D01*
X122909593Y-119915413D01*
X122955642Y-119967461D01*
G37*
X122955642Y-119967461D02*
X122980832Y-119972666D01*
X123015366Y-119941456D01*
X123015242Y-119877597D01*
X122981259Y-119826307D01*
X122926889Y-119831616D01*
X122915260Y-119844976D01*
X122909593Y-119915413D01*
X122955642Y-119967461D01*
G36*
X122953639Y-120142000D02*
G01*
X123011955Y-120107915D01*
X123020667Y-120074972D01*
X122996053Y-120025599D01*
X122970396Y-120024701D01*
X122914492Y-120066837D01*
X122907384Y-120117564D01*
X122953639Y-120142000D01*
G37*
X122953639Y-120142000D02*
X123011955Y-120107915D01*
X123020667Y-120074972D01*
X122996053Y-120025599D01*
X122970396Y-120024701D01*
X122914492Y-120066837D01*
X122907384Y-120117564D01*
X122953639Y-120142000D01*
G36*
X122927553Y-120346290D02*
G01*
X122957167Y-120353666D01*
X123013291Y-120319780D01*
X123020667Y-120290166D01*
X122986780Y-120234042D01*
X122957167Y-120226666D01*
X122901043Y-120260553D01*
X122893667Y-120290166D01*
X122927553Y-120346290D01*
G37*
X122927553Y-120346290D02*
X122957167Y-120353666D01*
X123013291Y-120319780D01*
X123020667Y-120290166D01*
X122986780Y-120234042D01*
X122957167Y-120226666D01*
X122901043Y-120260553D01*
X122893667Y-120290166D01*
X122927553Y-120346290D01*
G36*
X122914672Y-121318118D02*
G01*
X122970396Y-121359965D01*
X123013579Y-121341540D01*
X123020667Y-121309694D01*
X122986582Y-121251378D01*
X122953639Y-121242666D01*
X122907280Y-121267343D01*
X122914672Y-121318118D01*
G37*
X122914672Y-121318118D02*
X122970396Y-121359965D01*
X123013579Y-121341540D01*
X123020667Y-121309694D01*
X122986582Y-121251378D01*
X122953639Y-121242666D01*
X122907280Y-121267343D01*
X122914672Y-121318118D01*
G36*
X122945505Y-122364841D02*
G01*
X122996231Y-122371949D01*
X123020667Y-122325694D01*
X122986582Y-122267378D01*
X122953639Y-122258666D01*
X122904266Y-122283280D01*
X122903368Y-122308937D01*
X122945505Y-122364841D01*
G37*
X122945505Y-122364841D02*
X122996231Y-122371949D01*
X123020667Y-122325694D01*
X122986582Y-122267378D01*
X122953639Y-122258666D01*
X122904266Y-122283280D01*
X122903368Y-122308937D01*
X122945505Y-122364841D01*
G36*
X122948217Y-122576230D02*
G01*
X122967750Y-122586750D01*
X123010238Y-122567102D01*
X123020667Y-122512666D01*
X123001161Y-122445523D01*
X122967750Y-122438583D01*
X122918591Y-122490578D01*
X122914834Y-122512666D01*
X122948217Y-122576230D01*
G37*
X122948217Y-122576230D02*
X122967750Y-122586750D01*
X123010238Y-122567102D01*
X123020667Y-122512666D01*
X123001161Y-122445523D01*
X122967750Y-122438583D01*
X122918591Y-122490578D01*
X122914834Y-122512666D01*
X122948217Y-122576230D01*
G36*
X122953639Y-122766666D02*
G01*
X123011955Y-122732581D01*
X123020667Y-122699638D01*
X122996053Y-122650265D01*
X122970396Y-122649368D01*
X122914492Y-122691504D01*
X122907384Y-122742231D01*
X122953639Y-122766666D01*
G37*
X122953639Y-122766666D02*
X123011955Y-122732581D01*
X123020667Y-122699638D01*
X122996053Y-122650265D01*
X122970396Y-122649368D01*
X122914492Y-122691504D01*
X122907384Y-122742231D01*
X122953639Y-122766666D01*
G36*
X122914672Y-123350118D02*
G01*
X122970396Y-123391965D01*
X123013579Y-123373540D01*
X123020667Y-123341694D01*
X122986582Y-123283378D01*
X122953639Y-123274666D01*
X122907280Y-123299343D01*
X122914672Y-123350118D01*
G37*
X122914672Y-123350118D02*
X122970396Y-123391965D01*
X123013579Y-123373540D01*
X123020667Y-123341694D01*
X122986582Y-123283378D01*
X122953639Y-123274666D01*
X122907280Y-123299343D01*
X122914672Y-123350118D01*
G36*
X122957167Y-124589236D02*
G01*
X123000774Y-124556443D01*
X123014126Y-124520860D01*
X123003660Y-124468940D01*
X122971793Y-124469235D01*
X122923723Y-124511377D01*
X122919697Y-124564971D01*
X122957167Y-124589236D01*
G37*
X122957167Y-124589236D02*
X123000774Y-124556443D01*
X123014126Y-124520860D01*
X123003660Y-124468940D01*
X122971793Y-124469235D01*
X122923723Y-124511377D01*
X122919697Y-124564971D01*
X122957167Y-124589236D01*
G36*
X122758220Y-107222957D02*
G01*
X122787834Y-107230333D01*
X122843958Y-107196446D01*
X122851334Y-107166833D01*
X122817447Y-107110709D01*
X122787834Y-107103333D01*
X122731709Y-107137219D01*
X122724334Y-107166833D01*
X122758220Y-107222957D01*
G37*
X122758220Y-107222957D02*
X122787834Y-107230333D01*
X122843958Y-107196446D01*
X122851334Y-107166833D01*
X122817447Y-107110709D01*
X122787834Y-107103333D01*
X122731709Y-107137219D01*
X122724334Y-107166833D01*
X122758220Y-107222957D01*
G36*
X122748948Y-108447400D02*
G01*
X122774604Y-108448298D01*
X122830508Y-108406162D01*
X122837616Y-108355435D01*
X122791361Y-108331000D01*
X122733045Y-108365084D01*
X122724334Y-108398027D01*
X122748948Y-108447400D01*
G37*
X122748948Y-108447400D02*
X122774604Y-108448298D01*
X122830508Y-108406162D01*
X122837616Y-108355435D01*
X122791361Y-108331000D01*
X122733045Y-108365084D01*
X122724334Y-108398027D01*
X122748948Y-108447400D01*
G36*
X122739971Y-109199690D02*
G01*
X122781867Y-109244839D01*
X122808701Y-109241351D01*
X122849567Y-109180446D01*
X122813668Y-109117418D01*
X122806184Y-109112425D01*
X122746853Y-109102868D01*
X122728801Y-109155120D01*
X122739971Y-109199690D01*
G37*
X122739971Y-109199690D02*
X122781867Y-109244839D01*
X122808701Y-109241351D01*
X122849567Y-109180446D01*
X122813668Y-109117418D01*
X122806184Y-109112425D01*
X122746853Y-109102868D01*
X122728801Y-109155120D01*
X122739971Y-109199690D01*
G36*
X122739971Y-109623024D02*
G01*
X122781867Y-109668172D01*
X122808701Y-109664684D01*
X122849567Y-109603779D01*
X122813668Y-109540751D01*
X122806184Y-109535759D01*
X122746853Y-109526201D01*
X122728801Y-109578453D01*
X122739971Y-109623024D01*
G37*
X122739971Y-109623024D02*
X122781867Y-109668172D01*
X122808701Y-109664684D01*
X122849567Y-109603779D01*
X122813668Y-109540751D01*
X122806184Y-109535759D01*
X122746853Y-109526201D01*
X122728801Y-109578453D01*
X122739971Y-109623024D01*
G36*
X122758220Y-110440290D02*
G01*
X122787834Y-110447666D01*
X122843958Y-110413780D01*
X122851334Y-110384166D01*
X122817447Y-110328042D01*
X122787834Y-110320666D01*
X122731709Y-110354553D01*
X122724334Y-110384166D01*
X122758220Y-110440290D01*
G37*
X122758220Y-110440290D02*
X122787834Y-110447666D01*
X122843958Y-110413780D01*
X122851334Y-110384166D01*
X122817447Y-110328042D01*
X122787834Y-110320666D01*
X122731709Y-110354553D01*
X122724334Y-110384166D01*
X122758220Y-110440290D01*
G36*
X122758220Y-110863624D02*
G01*
X122787834Y-110871000D01*
X122843958Y-110837113D01*
X122851334Y-110807500D01*
X122817447Y-110751375D01*
X122787834Y-110744000D01*
X122731709Y-110777886D01*
X122724334Y-110807500D01*
X122758220Y-110863624D01*
G37*
X122758220Y-110863624D02*
X122787834Y-110871000D01*
X122843958Y-110837113D01*
X122851334Y-110807500D01*
X122817447Y-110751375D01*
X122787834Y-110744000D01*
X122731709Y-110777886D01*
X122724334Y-110807500D01*
X122758220Y-110863624D01*
G36*
X122758220Y-112260624D02*
G01*
X122787834Y-112268000D01*
X122843958Y-112234113D01*
X122851334Y-112204500D01*
X122817447Y-112148375D01*
X122787834Y-112141000D01*
X122731709Y-112174886D01*
X122724334Y-112204500D01*
X122758220Y-112260624D01*
G37*
X122758220Y-112260624D02*
X122787834Y-112268000D01*
X122843958Y-112234113D01*
X122851334Y-112204500D01*
X122817447Y-112148375D01*
X122787834Y-112141000D01*
X122731709Y-112174886D01*
X122724334Y-112204500D01*
X122758220Y-112260624D01*
G36*
X122748948Y-112892400D02*
G01*
X122774604Y-112893298D01*
X122830508Y-112851162D01*
X122837616Y-112800435D01*
X122791361Y-112776000D01*
X122733045Y-112810084D01*
X122724334Y-112843027D01*
X122748948Y-112892400D01*
G37*
X122748948Y-112892400D02*
X122774604Y-112893298D01*
X122830508Y-112851162D01*
X122837616Y-112800435D01*
X122791361Y-112776000D01*
X122733045Y-112810084D01*
X122724334Y-112843027D01*
X122748948Y-112892400D01*
G36*
X122739971Y-113644690D02*
G01*
X122781867Y-113689839D01*
X122808701Y-113686351D01*
X122849567Y-113625446D01*
X122813668Y-113562418D01*
X122806184Y-113557425D01*
X122746853Y-113547868D01*
X122728801Y-113600120D01*
X122739971Y-113644690D01*
G37*
X122739971Y-113644690D02*
X122781867Y-113689839D01*
X122808701Y-113686351D01*
X122849567Y-113625446D01*
X122813668Y-113562418D01*
X122806184Y-113557425D01*
X122746853Y-113547868D01*
X122728801Y-113600120D01*
X122739971Y-113644690D01*
G36*
X122758220Y-114292624D02*
G01*
X122787834Y-114300000D01*
X122843958Y-114266113D01*
X122851334Y-114236500D01*
X122817447Y-114180375D01*
X122787834Y-114173000D01*
X122731709Y-114206886D01*
X122724334Y-114236500D01*
X122758220Y-114292624D01*
G37*
X122758220Y-114292624D02*
X122787834Y-114300000D01*
X122843958Y-114266113D01*
X122851334Y-114236500D01*
X122817447Y-114180375D01*
X122787834Y-114173000D01*
X122731709Y-114206886D01*
X122724334Y-114236500D01*
X122758220Y-114292624D01*
G36*
X122771617Y-114929308D02*
G01*
X122806184Y-114915574D01*
X122849440Y-114854041D01*
X122815992Y-114791530D01*
X122808701Y-114786648D01*
X122760548Y-114796083D01*
X122739971Y-114828309D01*
X122731611Y-114905044D01*
X122771617Y-114929308D01*
G37*
X122771617Y-114929308D02*
X122806184Y-114915574D01*
X122849440Y-114854041D01*
X122815992Y-114791530D01*
X122808701Y-114786648D01*
X122760548Y-114796083D01*
X122739971Y-114828309D01*
X122731611Y-114905044D01*
X122771617Y-114929308D01*
G36*
X122758220Y-115689624D02*
G01*
X122787834Y-115697000D01*
X122846138Y-115671213D01*
X122835628Y-115612665D01*
X122823111Y-115598222D01*
X122761149Y-115571256D01*
X122725753Y-115615317D01*
X122724334Y-115633500D01*
X122758220Y-115689624D01*
G37*
X122758220Y-115689624D02*
X122787834Y-115697000D01*
X122846138Y-115671213D01*
X122835628Y-115612665D01*
X122823111Y-115598222D01*
X122761149Y-115571256D01*
X122725753Y-115615317D01*
X122724334Y-115633500D01*
X122758220Y-115689624D01*
G36*
X122758220Y-116112957D02*
G01*
X122787834Y-116120333D01*
X122846138Y-116094546D01*
X122835628Y-116035999D01*
X122823111Y-116021555D01*
X122761149Y-115994589D01*
X122725753Y-116038650D01*
X122724334Y-116056833D01*
X122758220Y-116112957D01*
G37*
X122758220Y-116112957D02*
X122787834Y-116120333D01*
X122846138Y-116094546D01*
X122835628Y-116035999D01*
X122823111Y-116021555D01*
X122761149Y-115994589D01*
X122725753Y-116038650D01*
X122724334Y-116056833D01*
X122758220Y-116112957D01*
G36*
X122749010Y-116911053D02*
G01*
X122799785Y-116903661D01*
X122841632Y-116847937D01*
X122823208Y-116804754D01*
X122791361Y-116797666D01*
X122733045Y-116831751D01*
X122724334Y-116864694D01*
X122749010Y-116911053D01*
G37*
X122749010Y-116911053D02*
X122799785Y-116903661D01*
X122841632Y-116847937D01*
X122823208Y-116804754D01*
X122791361Y-116797666D01*
X122733045Y-116831751D01*
X122724334Y-116864694D01*
X122749010Y-116911053D01*
G36*
X122748948Y-117337400D02*
G01*
X122774604Y-117338298D01*
X122830508Y-117296162D01*
X122837616Y-117245435D01*
X122791361Y-117221000D01*
X122733045Y-117255084D01*
X122724334Y-117288027D01*
X122748948Y-117337400D01*
G37*
X122748948Y-117337400D02*
X122774604Y-117338298D01*
X122830508Y-117296162D01*
X122837616Y-117245435D01*
X122791361Y-117221000D01*
X122733045Y-117255084D01*
X122724334Y-117288027D01*
X122748948Y-117337400D01*
G36*
X122739971Y-118513024D02*
G01*
X122781867Y-118558172D01*
X122808701Y-118554684D01*
X122849567Y-118493779D01*
X122813668Y-118430751D01*
X122806184Y-118425759D01*
X122746853Y-118416201D01*
X122728801Y-118468453D01*
X122739971Y-118513024D01*
G37*
X122739971Y-118513024D02*
X122781867Y-118558172D01*
X122808701Y-118554684D01*
X122849567Y-118493779D01*
X122813668Y-118430751D01*
X122806184Y-118425759D01*
X122746853Y-118416201D01*
X122728801Y-118468453D01*
X122739971Y-118513024D01*
G36*
X122758220Y-119330290D02*
G01*
X122787834Y-119337666D01*
X122843958Y-119303780D01*
X122851334Y-119274166D01*
X122817447Y-119218042D01*
X122787834Y-119210666D01*
X122731709Y-119244553D01*
X122724334Y-119274166D01*
X122758220Y-119330290D01*
G37*
X122758220Y-119330290D02*
X122787834Y-119337666D01*
X122843958Y-119303780D01*
X122851334Y-119274166D01*
X122817447Y-119218042D01*
X122787834Y-119210666D01*
X122731709Y-119244553D01*
X122724334Y-119274166D01*
X122758220Y-119330290D01*
G36*
X122758220Y-119753624D02*
G01*
X122787834Y-119761000D01*
X122843958Y-119727113D01*
X122851334Y-119697500D01*
X122817447Y-119641375D01*
X122787834Y-119634000D01*
X122731709Y-119667886D01*
X122724334Y-119697500D01*
X122758220Y-119753624D01*
G37*
X122758220Y-119753624D02*
X122787834Y-119761000D01*
X122843958Y-119727113D01*
X122851334Y-119697500D01*
X122817447Y-119641375D01*
X122787834Y-119634000D01*
X122731709Y-119667886D01*
X122724334Y-119697500D01*
X122758220Y-119753624D01*
G36*
X122771617Y-120559642D02*
G01*
X122806184Y-120545907D01*
X122849440Y-120484374D01*
X122815992Y-120421864D01*
X122808701Y-120416981D01*
X122760548Y-120426416D01*
X122739971Y-120458642D01*
X122731611Y-120535377D01*
X122771617Y-120559642D01*
G37*
X122771617Y-120559642D02*
X122806184Y-120545907D01*
X122849440Y-120484374D01*
X122815992Y-120421864D01*
X122808701Y-120416981D01*
X122760548Y-120426416D01*
X122739971Y-120458642D01*
X122731611Y-120535377D01*
X122771617Y-120559642D01*
G36*
X122758220Y-121362290D02*
G01*
X122787834Y-121369666D01*
X122843958Y-121335780D01*
X122851334Y-121306166D01*
X122817447Y-121250042D01*
X122787834Y-121242666D01*
X122731709Y-121276553D01*
X122724334Y-121306166D01*
X122758220Y-121362290D01*
G37*
X122758220Y-121362290D02*
X122787834Y-121369666D01*
X122843958Y-121335780D01*
X122851334Y-121306166D01*
X122817447Y-121250042D01*
X122787834Y-121242666D01*
X122731709Y-121276553D01*
X122724334Y-121306166D01*
X122758220Y-121362290D01*
G36*
X122758220Y-122166624D02*
G01*
X122787834Y-122174000D01*
X122846138Y-122148213D01*
X122835628Y-122089665D01*
X122823111Y-122075222D01*
X122761149Y-122048256D01*
X122725753Y-122092317D01*
X122724334Y-122110500D01*
X122758220Y-122166624D01*
G37*
X122758220Y-122166624D02*
X122787834Y-122174000D01*
X122846138Y-122148213D01*
X122835628Y-122089665D01*
X122823111Y-122075222D01*
X122761149Y-122048256D01*
X122725753Y-122092317D01*
X122724334Y-122110500D01*
X122758220Y-122166624D01*
G36*
X122748948Y-122967734D02*
G01*
X122774604Y-122968631D01*
X122830508Y-122926495D01*
X122837616Y-122875768D01*
X122791361Y-122851333D01*
X122733045Y-122885418D01*
X122724334Y-122918361D01*
X122748948Y-122967734D01*
G37*
X122748948Y-122967734D02*
X122774604Y-122968631D01*
X122830508Y-122926495D01*
X122837616Y-122875768D01*
X122791361Y-122851333D01*
X122733045Y-122885418D01*
X122724334Y-122918361D01*
X122748948Y-122967734D01*
G36*
X122749010Y-123388053D02*
G01*
X122799785Y-123380661D01*
X122841632Y-123324937D01*
X122823208Y-123281754D01*
X122791361Y-123274666D01*
X122733045Y-123308751D01*
X122724334Y-123341694D01*
X122749010Y-123388053D01*
G37*
X122749010Y-123388053D02*
X122799785Y-123380661D01*
X122841632Y-123324937D01*
X122823208Y-123281754D01*
X122791361Y-123274666D01*
X122733045Y-123308751D01*
X122724334Y-123341694D01*
X122749010Y-123388053D01*
G36*
X122739971Y-124566690D02*
G01*
X122781867Y-124611839D01*
X122808701Y-124608351D01*
X122849567Y-124547446D01*
X122813668Y-124484418D01*
X122806184Y-124479425D01*
X122746853Y-124469868D01*
X122728801Y-124522120D01*
X122739971Y-124566690D01*
G37*
X122739971Y-124566690D02*
X122781867Y-124611839D01*
X122808701Y-124608351D01*
X122849567Y-124547446D01*
X122813668Y-124484418D01*
X122806184Y-124479425D01*
X122746853Y-124469868D01*
X122728801Y-124522120D01*
X122739971Y-124566690D01*
G36*
X122546553Y-107222957D02*
G01*
X122576167Y-107230333D01*
X122632291Y-107196446D01*
X122639667Y-107166833D01*
X122605780Y-107110709D01*
X122576167Y-107103333D01*
X122520043Y-107137219D01*
X122512667Y-107166833D01*
X122546553Y-107222957D01*
G37*
X122546553Y-107222957D02*
X122576167Y-107230333D01*
X122632291Y-107196446D01*
X122639667Y-107166833D01*
X122605780Y-107110709D01*
X122576167Y-107103333D01*
X122520043Y-107137219D01*
X122512667Y-107166833D01*
X122546553Y-107222957D01*
G36*
X122576167Y-107613569D02*
G01*
X122619774Y-107580776D01*
X122633126Y-107545193D01*
X122622660Y-107493273D01*
X122590793Y-107493569D01*
X122542723Y-107535710D01*
X122538697Y-107589304D01*
X122576167Y-107613569D01*
G37*
X122576167Y-107613569D02*
X122619774Y-107580776D01*
X122633126Y-107545193D01*
X122622660Y-107493273D01*
X122590793Y-107493569D01*
X122542723Y-107535710D01*
X122538697Y-107589304D01*
X122576167Y-107613569D01*
G36*
X122546553Y-107815624D02*
G01*
X122576167Y-107823000D01*
X122632291Y-107789113D01*
X122639667Y-107759500D01*
X122605780Y-107703375D01*
X122576167Y-107696000D01*
X122520043Y-107729886D01*
X122512667Y-107759500D01*
X122546553Y-107815624D01*
G37*
X122546553Y-107815624D02*
X122576167Y-107823000D01*
X122632291Y-107789113D01*
X122639667Y-107759500D01*
X122605780Y-107703375D01*
X122576167Y-107696000D01*
X122520043Y-107729886D01*
X122512667Y-107759500D01*
X122546553Y-107815624D01*
G36*
X122564505Y-108013841D02*
G01*
X122615231Y-108020949D01*
X122639667Y-107974694D01*
X122605582Y-107916378D01*
X122572639Y-107907666D01*
X122523266Y-107932280D01*
X122522368Y-107957937D01*
X122564505Y-108013841D01*
G37*
X122564505Y-108013841D02*
X122615231Y-108020949D01*
X122639667Y-107974694D01*
X122605582Y-107916378D01*
X122572639Y-107907666D01*
X122523266Y-107932280D01*
X122522368Y-107957937D01*
X122564505Y-108013841D01*
G36*
X122533672Y-108406451D02*
G01*
X122589396Y-108448298D01*
X122632579Y-108429874D01*
X122639667Y-108398027D01*
X122605582Y-108339711D01*
X122572639Y-108331000D01*
X122526280Y-108355676D01*
X122533672Y-108406451D01*
G37*
X122533672Y-108406451D02*
X122589396Y-108448298D01*
X122632579Y-108429874D01*
X122639667Y-108398027D01*
X122605582Y-108339711D01*
X122572639Y-108331000D01*
X122526280Y-108355676D01*
X122533672Y-108406451D01*
G36*
X122576167Y-109222236D02*
G01*
X122619774Y-109189443D01*
X122633126Y-109153860D01*
X122622660Y-109101940D01*
X122590793Y-109102235D01*
X122542723Y-109144377D01*
X122538697Y-109197971D01*
X122576167Y-109222236D01*
G37*
X122576167Y-109222236D02*
X122619774Y-109189443D01*
X122633126Y-109153860D01*
X122622660Y-109101940D01*
X122590793Y-109102235D01*
X122542723Y-109144377D01*
X122538697Y-109197971D01*
X122576167Y-109222236D01*
G36*
X122576167Y-109645569D02*
G01*
X122619774Y-109612776D01*
X122633126Y-109577193D01*
X122622660Y-109525273D01*
X122590793Y-109525569D01*
X122542723Y-109567710D01*
X122538697Y-109621304D01*
X122576167Y-109645569D01*
G37*
X122576167Y-109645569D02*
X122619774Y-109612776D01*
X122633126Y-109577193D01*
X122622660Y-109525273D01*
X122590793Y-109525569D01*
X122542723Y-109567710D01*
X122538697Y-109621304D01*
X122576167Y-109645569D01*
G36*
X122546553Y-110440290D02*
G01*
X122576167Y-110447666D01*
X122632291Y-110413780D01*
X122639667Y-110384166D01*
X122605780Y-110328042D01*
X122576167Y-110320666D01*
X122520043Y-110354553D01*
X122512667Y-110384166D01*
X122546553Y-110440290D01*
G37*
X122546553Y-110440290D02*
X122576167Y-110447666D01*
X122632291Y-110413780D01*
X122639667Y-110384166D01*
X122605780Y-110328042D01*
X122576167Y-110320666D01*
X122520043Y-110354553D01*
X122512667Y-110384166D01*
X122546553Y-110440290D01*
G36*
X122546553Y-110863624D02*
G01*
X122576167Y-110871000D01*
X122632291Y-110837113D01*
X122639667Y-110807500D01*
X122605780Y-110751375D01*
X122576167Y-110744000D01*
X122520043Y-110777886D01*
X122512667Y-110807500D01*
X122546553Y-110863624D01*
G37*
X122546553Y-110863624D02*
X122576167Y-110871000D01*
X122632291Y-110837113D01*
X122639667Y-110807500D01*
X122605780Y-110751375D01*
X122576167Y-110744000D01*
X122520043Y-110777886D01*
X122512667Y-110807500D01*
X122546553Y-110863624D01*
G36*
X122546553Y-112260624D02*
G01*
X122576167Y-112268000D01*
X122632291Y-112234113D01*
X122639667Y-112204500D01*
X122605780Y-112148375D01*
X122576167Y-112141000D01*
X122520043Y-112174886D01*
X122512667Y-112204500D01*
X122546553Y-112260624D01*
G37*
X122546553Y-112260624D02*
X122576167Y-112268000D01*
X122632291Y-112234113D01*
X122639667Y-112204500D01*
X122605780Y-112148375D01*
X122576167Y-112141000D01*
X122520043Y-112174886D01*
X122512667Y-112204500D01*
X122546553Y-112260624D01*
G36*
X122533672Y-112851451D02*
G01*
X122589396Y-112893298D01*
X122632579Y-112874874D01*
X122639667Y-112843027D01*
X122605582Y-112784711D01*
X122572639Y-112776000D01*
X122526280Y-112800676D01*
X122533672Y-112851451D01*
G37*
X122533672Y-112851451D02*
X122589396Y-112893298D01*
X122632579Y-112874874D01*
X122639667Y-112843027D01*
X122605582Y-112784711D01*
X122572639Y-112776000D01*
X122526280Y-112800676D01*
X122533672Y-112851451D01*
G36*
X122576167Y-113667236D02*
G01*
X122619774Y-113634443D01*
X122633126Y-113598860D01*
X122622660Y-113546940D01*
X122590793Y-113547235D01*
X122542723Y-113589377D01*
X122538697Y-113642971D01*
X122576167Y-113667236D01*
G37*
X122576167Y-113667236D02*
X122619774Y-113634443D01*
X122633126Y-113598860D01*
X122622660Y-113546940D01*
X122590793Y-113547235D01*
X122542723Y-113589377D01*
X122538697Y-113642971D01*
X122576167Y-113667236D01*
G36*
X122546553Y-114292624D02*
G01*
X122576167Y-114300000D01*
X122632291Y-114266113D01*
X122639667Y-114236500D01*
X122605780Y-114180375D01*
X122576167Y-114173000D01*
X122520043Y-114206886D01*
X122512667Y-114236500D01*
X122546553Y-114292624D01*
G37*
X122546553Y-114292624D02*
X122576167Y-114300000D01*
X122632291Y-114266113D01*
X122639667Y-114236500D01*
X122605780Y-114180375D01*
X122576167Y-114173000D01*
X122520043Y-114206886D01*
X122512667Y-114236500D01*
X122546553Y-114292624D01*
G36*
X122572639Y-115697000D02*
G01*
X122630955Y-115662915D01*
X122639667Y-115629972D01*
X122615053Y-115580599D01*
X122589396Y-115579701D01*
X122533492Y-115621837D01*
X122526384Y-115672564D01*
X122572639Y-115697000D01*
G37*
X122572639Y-115697000D02*
X122630955Y-115662915D01*
X122639667Y-115629972D01*
X122615053Y-115580599D01*
X122589396Y-115579701D01*
X122533492Y-115621837D01*
X122526384Y-115672564D01*
X122572639Y-115697000D01*
G36*
X122572639Y-116120333D02*
G01*
X122630955Y-116086248D01*
X122639667Y-116053305D01*
X122615053Y-116003932D01*
X122589396Y-116003034D01*
X122533492Y-116045171D01*
X122526384Y-116095897D01*
X122572639Y-116120333D01*
G37*
X122572639Y-116120333D02*
X122630955Y-116086248D01*
X122639667Y-116053305D01*
X122615053Y-116003932D01*
X122589396Y-116003034D01*
X122533492Y-116045171D01*
X122526384Y-116095897D01*
X122572639Y-116120333D01*
G36*
X122546553Y-116917290D02*
G01*
X122576167Y-116924666D01*
X122632291Y-116890780D01*
X122639667Y-116861166D01*
X122605780Y-116805042D01*
X122576167Y-116797666D01*
X122520043Y-116831553D01*
X122512667Y-116861166D01*
X122546553Y-116917290D01*
G37*
X122546553Y-116917290D02*
X122576167Y-116924666D01*
X122632291Y-116890780D01*
X122639667Y-116861166D01*
X122605780Y-116805042D01*
X122576167Y-116797666D01*
X122520043Y-116831553D01*
X122512667Y-116861166D01*
X122546553Y-116917290D01*
G36*
X122533672Y-117296451D02*
G01*
X122589396Y-117338298D01*
X122632579Y-117319874D01*
X122639667Y-117288027D01*
X122605582Y-117229711D01*
X122572639Y-117221000D01*
X122526280Y-117245676D01*
X122533672Y-117296451D01*
G37*
X122533672Y-117296451D02*
X122589396Y-117338298D01*
X122632579Y-117319874D01*
X122639667Y-117288027D01*
X122605582Y-117229711D01*
X122572639Y-117221000D01*
X122526280Y-117245676D01*
X122533672Y-117296451D01*
G36*
X122576167Y-118535569D02*
G01*
X122619774Y-118502776D01*
X122633126Y-118467193D01*
X122622660Y-118415273D01*
X122590793Y-118415569D01*
X122542723Y-118457710D01*
X122538697Y-118511304D01*
X122576167Y-118535569D01*
G37*
X122576167Y-118535569D02*
X122619774Y-118502776D01*
X122633126Y-118467193D01*
X122622660Y-118415273D01*
X122590793Y-118415569D01*
X122542723Y-118457710D01*
X122538697Y-118511304D01*
X122576167Y-118535569D01*
G36*
X122546553Y-119330290D02*
G01*
X122576167Y-119337666D01*
X122632291Y-119303780D01*
X122639667Y-119274166D01*
X122605780Y-119218042D01*
X122576167Y-119210666D01*
X122520043Y-119244553D01*
X122512667Y-119274166D01*
X122546553Y-119330290D01*
G37*
X122546553Y-119330290D02*
X122576167Y-119337666D01*
X122632291Y-119303780D01*
X122639667Y-119274166D01*
X122605780Y-119218042D01*
X122576167Y-119210666D01*
X122520043Y-119244553D01*
X122512667Y-119274166D01*
X122546553Y-119330290D01*
G36*
X122574642Y-120560127D02*
G01*
X122599832Y-120565333D01*
X122634366Y-120534123D01*
X122634242Y-120470263D01*
X122600259Y-120418974D01*
X122545889Y-120424283D01*
X122534260Y-120437642D01*
X122528593Y-120508080D01*
X122574642Y-120560127D01*
G37*
X122574642Y-120560127D02*
X122599832Y-120565333D01*
X122634366Y-120534123D01*
X122634242Y-120470263D01*
X122600259Y-120418974D01*
X122545889Y-120424283D01*
X122534260Y-120437642D01*
X122528593Y-120508080D01*
X122574642Y-120560127D01*
G36*
X122546553Y-121362290D02*
G01*
X122576167Y-121369666D01*
X122632291Y-121335780D01*
X122639667Y-121306166D01*
X122605780Y-121250042D01*
X122576167Y-121242666D01*
X122520043Y-121276553D01*
X122512667Y-121306166D01*
X122546553Y-121362290D01*
G37*
X122546553Y-121362290D02*
X122576167Y-121369666D01*
X122632291Y-121335780D01*
X122639667Y-121306166D01*
X122605780Y-121250042D01*
X122576167Y-121242666D01*
X122520043Y-121276553D01*
X122512667Y-121306166D01*
X122546553Y-121362290D01*
G36*
X122572639Y-122174000D02*
G01*
X122630955Y-122139915D01*
X122639667Y-122106972D01*
X122615053Y-122057599D01*
X122589396Y-122056701D01*
X122533492Y-122098837D01*
X122526384Y-122149564D01*
X122572639Y-122174000D01*
G37*
X122572639Y-122174000D02*
X122630955Y-122139915D01*
X122639667Y-122106972D01*
X122615053Y-122057599D01*
X122589396Y-122056701D01*
X122533492Y-122098837D01*
X122526384Y-122149564D01*
X122572639Y-122174000D01*
G36*
X122533672Y-122926785D02*
G01*
X122589396Y-122968631D01*
X122632579Y-122950207D01*
X122639667Y-122918361D01*
X122605582Y-122860045D01*
X122572639Y-122851333D01*
X122526280Y-122876010D01*
X122533672Y-122926785D01*
G37*
X122533672Y-122926785D02*
X122589396Y-122968631D01*
X122632579Y-122950207D01*
X122639667Y-122918361D01*
X122605582Y-122860045D01*
X122572639Y-122851333D01*
X122526280Y-122876010D01*
X122533672Y-122926785D01*
G36*
X122533672Y-123350118D02*
G01*
X122589396Y-123391965D01*
X122632579Y-123373540D01*
X122639667Y-123341694D01*
X122605582Y-123283378D01*
X122572639Y-123274666D01*
X122526280Y-123299343D01*
X122533672Y-123350118D01*
G37*
X122533672Y-123350118D02*
X122589396Y-123391965D01*
X122632579Y-123373540D01*
X122639667Y-123341694D01*
X122605582Y-123283378D01*
X122572639Y-123274666D01*
X122526280Y-123299343D01*
X122533672Y-123350118D01*
G36*
X122576167Y-124589236D02*
G01*
X122619774Y-124556443D01*
X122633126Y-124520860D01*
X122622660Y-124468940D01*
X122590793Y-124469235D01*
X122542723Y-124511377D01*
X122538697Y-124564971D01*
X122576167Y-124589236D01*
G37*
X122576167Y-124589236D02*
X122619774Y-124556443D01*
X122633126Y-124520860D01*
X122622660Y-124468940D01*
X122590793Y-124469235D01*
X122542723Y-124511377D01*
X122538697Y-124564971D01*
X122576167Y-124589236D01*
G36*
X122377220Y-107222957D02*
G01*
X122406834Y-107230333D01*
X122465138Y-107204546D01*
X122454628Y-107145999D01*
X122442111Y-107131555D01*
X122380149Y-107104589D01*
X122344753Y-107148650D01*
X122343334Y-107166833D01*
X122377220Y-107222957D01*
G37*
X122377220Y-107222957D02*
X122406834Y-107230333D01*
X122465138Y-107204546D01*
X122454628Y-107145999D01*
X122442111Y-107131555D01*
X122380149Y-107104589D01*
X122344753Y-107148650D01*
X122343334Y-107166833D01*
X122377220Y-107222957D01*
G36*
X122358971Y-107591024D02*
G01*
X122400867Y-107636172D01*
X122427701Y-107632684D01*
X122468567Y-107571779D01*
X122432668Y-107508751D01*
X122425184Y-107503759D01*
X122365853Y-107494201D01*
X122347801Y-107546453D01*
X122358971Y-107591024D01*
G37*
X122358971Y-107591024D02*
X122400867Y-107636172D01*
X122427701Y-107632684D01*
X122468567Y-107571779D01*
X122432668Y-107508751D01*
X122425184Y-107503759D01*
X122365853Y-107494201D01*
X122347801Y-107546453D01*
X122358971Y-107591024D01*
G36*
X122368010Y-108021053D02*
G01*
X122418785Y-108013661D01*
X122460632Y-107957937D01*
X122442208Y-107914754D01*
X122410361Y-107907666D01*
X122352045Y-107941751D01*
X122343334Y-107974694D01*
X122368010Y-108021053D01*
G37*
X122368010Y-108021053D02*
X122418785Y-108013661D01*
X122460632Y-107957937D01*
X122442208Y-107914754D01*
X122410361Y-107907666D01*
X122352045Y-107941751D01*
X122343334Y-107974694D01*
X122368010Y-108021053D01*
G36*
X122367948Y-108447400D02*
G01*
X122393604Y-108448298D01*
X122449508Y-108406162D01*
X122456616Y-108355435D01*
X122410361Y-108331000D01*
X122352045Y-108365084D01*
X122343334Y-108398027D01*
X122367948Y-108447400D01*
G37*
X122367948Y-108447400D02*
X122393604Y-108448298D01*
X122449508Y-108406162D01*
X122456616Y-108355435D01*
X122410361Y-108331000D01*
X122352045Y-108365084D01*
X122343334Y-108398027D01*
X122367948Y-108447400D01*
G36*
X122358971Y-109199690D02*
G01*
X122400867Y-109244839D01*
X122427701Y-109241351D01*
X122468567Y-109180446D01*
X122432668Y-109117418D01*
X122425184Y-109112425D01*
X122365853Y-109102868D01*
X122347801Y-109155120D01*
X122358971Y-109199690D01*
G37*
X122358971Y-109199690D02*
X122400867Y-109244839D01*
X122427701Y-109241351D01*
X122468567Y-109180446D01*
X122432668Y-109117418D01*
X122425184Y-109112425D01*
X122365853Y-109102868D01*
X122347801Y-109155120D01*
X122358971Y-109199690D01*
G36*
X122358971Y-109623024D02*
G01*
X122400867Y-109668172D01*
X122427701Y-109664684D01*
X122468567Y-109603779D01*
X122432668Y-109540751D01*
X122425184Y-109535759D01*
X122365853Y-109526201D01*
X122347801Y-109578453D01*
X122358971Y-109623024D01*
G37*
X122358971Y-109623024D02*
X122400867Y-109668172D01*
X122427701Y-109664684D01*
X122468567Y-109603779D01*
X122432668Y-109540751D01*
X122425184Y-109535759D01*
X122365853Y-109526201D01*
X122347801Y-109578453D01*
X122358971Y-109623024D01*
G36*
X122377220Y-110228624D02*
G01*
X122406834Y-110236000D01*
X122465138Y-110210213D01*
X122454628Y-110151665D01*
X122442111Y-110137222D01*
X122380149Y-110110256D01*
X122344753Y-110154317D01*
X122343334Y-110172500D01*
X122377220Y-110228624D01*
G37*
X122377220Y-110228624D02*
X122406834Y-110236000D01*
X122465138Y-110210213D01*
X122454628Y-110151665D01*
X122442111Y-110137222D01*
X122380149Y-110110256D01*
X122344753Y-110154317D01*
X122343334Y-110172500D01*
X122377220Y-110228624D01*
G36*
X122367948Y-110437067D02*
G01*
X122393604Y-110437965D01*
X122449508Y-110395828D01*
X122456616Y-110345102D01*
X122410361Y-110320666D01*
X122352045Y-110354751D01*
X122343334Y-110387694D01*
X122367948Y-110437067D01*
G37*
X122367948Y-110437067D02*
X122393604Y-110437965D01*
X122449508Y-110395828D01*
X122456616Y-110345102D01*
X122410361Y-110320666D01*
X122352045Y-110354751D01*
X122343334Y-110387694D01*
X122367948Y-110437067D01*
G36*
X122367948Y-110860400D02*
G01*
X122393604Y-110861298D01*
X122449508Y-110819162D01*
X122456616Y-110768435D01*
X122410361Y-110744000D01*
X122352045Y-110778084D01*
X122343334Y-110811027D01*
X122367948Y-110860400D01*
G37*
X122367948Y-110860400D02*
X122393604Y-110861298D01*
X122449508Y-110819162D01*
X122456616Y-110768435D01*
X122410361Y-110744000D01*
X122352045Y-110778084D01*
X122343334Y-110811027D01*
X122367948Y-110860400D01*
G36*
X122362817Y-111065109D02*
G01*
X122393604Y-111072965D01*
X122452195Y-111023700D01*
X122454402Y-110957939D01*
X122442993Y-110942437D01*
X122382329Y-110914396D01*
X122347094Y-110961778D01*
X122343334Y-111001527D01*
X122362817Y-111065109D01*
G37*
X122362817Y-111065109D02*
X122393604Y-111072965D01*
X122452195Y-111023700D01*
X122454402Y-110957939D01*
X122442993Y-110942437D01*
X122382329Y-110914396D01*
X122347094Y-110961778D01*
X122343334Y-111001527D01*
X122362817Y-111065109D01*
G36*
X122377220Y-111244624D02*
G01*
X122406834Y-111252000D01*
X122465138Y-111226213D01*
X122454628Y-111167665D01*
X122442111Y-111153222D01*
X122380149Y-111126256D01*
X122344753Y-111170317D01*
X122343334Y-111188500D01*
X122377220Y-111244624D01*
G37*
X122377220Y-111244624D02*
X122406834Y-111252000D01*
X122465138Y-111226213D01*
X122454628Y-111167665D01*
X122442111Y-111153222D01*
X122380149Y-111126256D01*
X122344753Y-111170317D01*
X122343334Y-111188500D01*
X122377220Y-111244624D01*
G36*
X122367948Y-111453067D02*
G01*
X122393604Y-111453965D01*
X122449508Y-111411828D01*
X122456616Y-111361102D01*
X122410361Y-111336666D01*
X122352045Y-111370751D01*
X122343334Y-111403694D01*
X122367948Y-111453067D01*
G37*
X122367948Y-111453067D02*
X122393604Y-111453965D01*
X122449508Y-111411828D01*
X122456616Y-111361102D01*
X122410361Y-111336666D01*
X122352045Y-111370751D01*
X122343334Y-111403694D01*
X122367948Y-111453067D01*
G36*
X122377220Y-112260624D02*
G01*
X122406834Y-112268000D01*
X122465138Y-112242213D01*
X122454628Y-112183665D01*
X122442111Y-112169222D01*
X122380149Y-112142256D01*
X122344753Y-112186317D01*
X122343334Y-112204500D01*
X122377220Y-112260624D01*
G37*
X122377220Y-112260624D02*
X122406834Y-112268000D01*
X122465138Y-112242213D01*
X122454628Y-112183665D01*
X122442111Y-112169222D01*
X122380149Y-112142256D01*
X122344753Y-112186317D01*
X122343334Y-112204500D01*
X122377220Y-112260624D01*
G36*
X122367948Y-112892400D02*
G01*
X122393604Y-112893298D01*
X122449508Y-112851162D01*
X122456616Y-112800435D01*
X122410361Y-112776000D01*
X122352045Y-112810084D01*
X122343334Y-112843027D01*
X122367948Y-112892400D01*
G37*
X122367948Y-112892400D02*
X122393604Y-112893298D01*
X122449508Y-112851162D01*
X122456616Y-112800435D01*
X122410361Y-112776000D01*
X122352045Y-112810084D01*
X122343334Y-112843027D01*
X122367948Y-112892400D01*
G36*
X122367948Y-113485067D02*
G01*
X122393604Y-113485965D01*
X122449508Y-113443828D01*
X122456616Y-113393102D01*
X122410361Y-113368666D01*
X122352045Y-113402751D01*
X122343334Y-113435694D01*
X122367948Y-113485067D01*
G37*
X122367948Y-113485067D02*
X122393604Y-113485965D01*
X122449508Y-113443828D01*
X122456616Y-113393102D01*
X122410361Y-113368666D01*
X122352045Y-113402751D01*
X122343334Y-113435694D01*
X122367948Y-113485067D01*
G36*
X122358971Y-113644690D02*
G01*
X122400867Y-113689839D01*
X122427701Y-113686351D01*
X122468567Y-113625446D01*
X122432668Y-113562418D01*
X122425184Y-113557425D01*
X122365853Y-113547868D01*
X122347801Y-113600120D01*
X122358971Y-113644690D01*
G37*
X122358971Y-113644690D02*
X122400867Y-113689839D01*
X122427701Y-113686351D01*
X122468567Y-113625446D01*
X122432668Y-113562418D01*
X122425184Y-113557425D01*
X122365853Y-113547868D01*
X122347801Y-113600120D01*
X122358971Y-113644690D01*
G36*
X122377220Y-114292624D02*
G01*
X122406834Y-114300000D01*
X122462958Y-114266113D01*
X122470334Y-114236500D01*
X122436447Y-114180375D01*
X122406834Y-114173000D01*
X122350709Y-114206886D01*
X122343334Y-114236500D01*
X122377220Y-114292624D01*
G37*
X122377220Y-114292624D02*
X122406834Y-114300000D01*
X122462958Y-114266113D01*
X122470334Y-114236500D01*
X122436447Y-114180375D01*
X122406834Y-114173000D01*
X122350709Y-114206886D01*
X122343334Y-114236500D01*
X122377220Y-114292624D01*
G36*
X122377220Y-115096957D02*
G01*
X122406834Y-115104333D01*
X122465138Y-115078546D01*
X122454628Y-115019999D01*
X122442111Y-115005555D01*
X122380149Y-114978589D01*
X122344753Y-115022650D01*
X122343334Y-115040833D01*
X122377220Y-115096957D01*
G37*
X122377220Y-115096957D02*
X122406834Y-115104333D01*
X122465138Y-115078546D01*
X122454628Y-115019999D01*
X122442111Y-115005555D01*
X122380149Y-114978589D01*
X122344753Y-115022650D01*
X122343334Y-115040833D01*
X122377220Y-115096957D01*
G36*
X122368010Y-115302386D02*
G01*
X122418785Y-115294994D01*
X122460632Y-115239270D01*
X122442208Y-115196087D01*
X122410361Y-115189000D01*
X122352045Y-115223084D01*
X122343334Y-115256027D01*
X122368010Y-115302386D01*
G37*
X122368010Y-115302386D02*
X122418785Y-115294994D01*
X122460632Y-115239270D01*
X122442208Y-115196087D01*
X122410361Y-115189000D01*
X122352045Y-115223084D01*
X122343334Y-115256027D01*
X122368010Y-115302386D01*
G36*
X122362817Y-115510109D02*
G01*
X122393604Y-115517965D01*
X122452195Y-115468700D01*
X122454402Y-115402939D01*
X122442993Y-115387437D01*
X122382329Y-115359396D01*
X122347094Y-115406778D01*
X122343334Y-115446527D01*
X122362817Y-115510109D01*
G37*
X122362817Y-115510109D02*
X122393604Y-115517965D01*
X122452195Y-115468700D01*
X122454402Y-115402939D01*
X122442993Y-115387437D01*
X122382329Y-115359396D01*
X122347094Y-115406778D01*
X122343334Y-115446527D01*
X122362817Y-115510109D01*
G36*
X122377220Y-116112957D02*
G01*
X122406834Y-116120333D01*
X122465138Y-116094546D01*
X122454628Y-116035999D01*
X122442111Y-116021555D01*
X122380149Y-115994589D01*
X122344753Y-116038650D01*
X122343334Y-116056833D01*
X122377220Y-116112957D01*
G37*
X122377220Y-116112957D02*
X122406834Y-116120333D01*
X122465138Y-116094546D01*
X122454628Y-116035999D01*
X122442111Y-116021555D01*
X122380149Y-115994589D01*
X122344753Y-116038650D01*
X122343334Y-116056833D01*
X122377220Y-116112957D01*
G36*
X122368010Y-116318386D02*
G01*
X122418785Y-116310994D01*
X122460632Y-116255270D01*
X122442208Y-116212087D01*
X122410361Y-116205000D01*
X122352045Y-116239084D01*
X122343334Y-116272027D01*
X122368010Y-116318386D01*
G37*
X122368010Y-116318386D02*
X122418785Y-116310994D01*
X122460632Y-116255270D01*
X122442208Y-116212087D01*
X122410361Y-116205000D01*
X122352045Y-116239084D01*
X122343334Y-116272027D01*
X122368010Y-116318386D01*
G36*
X122362817Y-116526109D02*
G01*
X122393604Y-116533965D01*
X122452195Y-116484700D01*
X122454402Y-116418939D01*
X122442993Y-116403437D01*
X122382329Y-116375396D01*
X122347094Y-116422778D01*
X122343334Y-116462527D01*
X122362817Y-116526109D01*
G37*
X122362817Y-116526109D02*
X122393604Y-116533965D01*
X122452195Y-116484700D01*
X122454402Y-116418939D01*
X122442993Y-116403437D01*
X122382329Y-116375396D01*
X122347094Y-116422778D01*
X122343334Y-116462527D01*
X122362817Y-116526109D01*
G36*
X122377220Y-116705624D02*
G01*
X122406834Y-116713000D01*
X122465138Y-116687213D01*
X122454628Y-116628665D01*
X122442111Y-116614222D01*
X122380149Y-116587256D01*
X122344753Y-116631317D01*
X122343334Y-116649500D01*
X122377220Y-116705624D01*
G37*
X122377220Y-116705624D02*
X122406834Y-116713000D01*
X122465138Y-116687213D01*
X122454628Y-116628665D01*
X122442111Y-116614222D01*
X122380149Y-116587256D01*
X122344753Y-116631317D01*
X122343334Y-116649500D01*
X122377220Y-116705624D01*
G36*
X122368010Y-116911053D02*
G01*
X122418785Y-116903661D01*
X122460632Y-116847937D01*
X122442208Y-116804754D01*
X122410361Y-116797666D01*
X122352045Y-116831751D01*
X122343334Y-116864694D01*
X122368010Y-116911053D01*
G37*
X122368010Y-116911053D02*
X122418785Y-116903661D01*
X122460632Y-116847937D01*
X122442208Y-116804754D01*
X122410361Y-116797666D01*
X122352045Y-116831751D01*
X122343334Y-116864694D01*
X122368010Y-116911053D01*
G36*
X122368010Y-117334386D02*
G01*
X122418785Y-117326994D01*
X122460632Y-117271270D01*
X122442208Y-117228087D01*
X122410361Y-117221000D01*
X122352045Y-117255084D01*
X122343334Y-117288027D01*
X122368010Y-117334386D01*
G37*
X122368010Y-117334386D02*
X122418785Y-117326994D01*
X122460632Y-117271270D01*
X122442208Y-117228087D01*
X122410361Y-117221000D01*
X122352045Y-117255084D01*
X122343334Y-117288027D01*
X122368010Y-117334386D01*
G36*
X122362817Y-117542109D02*
G01*
X122393604Y-117549965D01*
X122452195Y-117500700D01*
X122454402Y-117434939D01*
X122442993Y-117419437D01*
X122382329Y-117391396D01*
X122347094Y-117438778D01*
X122343334Y-117478527D01*
X122362817Y-117542109D01*
G37*
X122362817Y-117542109D02*
X122393604Y-117549965D01*
X122452195Y-117500700D01*
X122454402Y-117434939D01*
X122442993Y-117419437D01*
X122382329Y-117391396D01*
X122347094Y-117438778D01*
X122343334Y-117478527D01*
X122362817Y-117542109D01*
G36*
X122377220Y-117721624D02*
G01*
X122406834Y-117729000D01*
X122465138Y-117703213D01*
X122454628Y-117644665D01*
X122442111Y-117630222D01*
X122380149Y-117603256D01*
X122344753Y-117647317D01*
X122343334Y-117665500D01*
X122377220Y-117721624D01*
G37*
X122377220Y-117721624D02*
X122406834Y-117729000D01*
X122465138Y-117703213D01*
X122454628Y-117644665D01*
X122442111Y-117630222D01*
X122380149Y-117603256D01*
X122344753Y-117647317D01*
X122343334Y-117665500D01*
X122377220Y-117721624D01*
G36*
X122368010Y-117927053D02*
G01*
X122418785Y-117919661D01*
X122460632Y-117863937D01*
X122442208Y-117820754D01*
X122410361Y-117813666D01*
X122352045Y-117847751D01*
X122343334Y-117880694D01*
X122368010Y-117927053D01*
G37*
X122368010Y-117927053D02*
X122418785Y-117919661D01*
X122460632Y-117863937D01*
X122442208Y-117820754D01*
X122410361Y-117813666D01*
X122352045Y-117847751D01*
X122343334Y-117880694D01*
X122368010Y-117927053D01*
G36*
X122358971Y-118513024D02*
G01*
X122400867Y-118558172D01*
X122427701Y-118554684D01*
X122468567Y-118493779D01*
X122432668Y-118430751D01*
X122425184Y-118425759D01*
X122365853Y-118416201D01*
X122347801Y-118468453D01*
X122358971Y-118513024D01*
G37*
X122358971Y-118513024D02*
X122400867Y-118558172D01*
X122427701Y-118554684D01*
X122468567Y-118493779D01*
X122432668Y-118430751D01*
X122425184Y-118425759D01*
X122365853Y-118416201D01*
X122347801Y-118468453D01*
X122358971Y-118513024D01*
G36*
X122377220Y-119330290D02*
G01*
X122406834Y-119337666D01*
X122465138Y-119311879D01*
X122454628Y-119253332D01*
X122442111Y-119238888D01*
X122380149Y-119211923D01*
X122344753Y-119255984D01*
X122343334Y-119274166D01*
X122377220Y-119330290D01*
G37*
X122377220Y-119330290D02*
X122406834Y-119337666D01*
X122465138Y-119311879D01*
X122454628Y-119253332D01*
X122442111Y-119238888D01*
X122380149Y-119211923D01*
X122344753Y-119255984D01*
X122343334Y-119274166D01*
X122377220Y-119330290D01*
G36*
X122390617Y-119966975D02*
G01*
X122425184Y-119953240D01*
X122468440Y-119891708D01*
X122434992Y-119829197D01*
X122427701Y-119824315D01*
X122379548Y-119833750D01*
X122358971Y-119865975D01*
X122350611Y-119942711D01*
X122390617Y-119966975D01*
G37*
X122390617Y-119966975D02*
X122425184Y-119953240D01*
X122468440Y-119891708D01*
X122434992Y-119829197D01*
X122427701Y-119824315D01*
X122379548Y-119833750D01*
X122358971Y-119865975D01*
X122350611Y-119942711D01*
X122390617Y-119966975D01*
G36*
X122377220Y-120134624D02*
G01*
X122406834Y-120142000D01*
X122465138Y-120116213D01*
X122454628Y-120057665D01*
X122442111Y-120043222D01*
X122380149Y-120016256D01*
X122344753Y-120060317D01*
X122343334Y-120078500D01*
X122377220Y-120134624D01*
G37*
X122377220Y-120134624D02*
X122406834Y-120142000D01*
X122465138Y-120116213D01*
X122454628Y-120057665D01*
X122442111Y-120043222D01*
X122380149Y-120016256D01*
X122344753Y-120060317D01*
X122343334Y-120078500D01*
X122377220Y-120134624D01*
G36*
X122368010Y-120340053D02*
G01*
X122418785Y-120332661D01*
X122460632Y-120276937D01*
X122442208Y-120233754D01*
X122410361Y-120226666D01*
X122352045Y-120260751D01*
X122343334Y-120293694D01*
X122368010Y-120340053D01*
G37*
X122368010Y-120340053D02*
X122418785Y-120332661D01*
X122460632Y-120276937D01*
X122442208Y-120233754D01*
X122410361Y-120226666D01*
X122352045Y-120260751D01*
X122343334Y-120293694D01*
X122368010Y-120340053D01*
G36*
X122368010Y-121356053D02*
G01*
X122418785Y-121348661D01*
X122460632Y-121292937D01*
X122442208Y-121249754D01*
X122410361Y-121242666D01*
X122352045Y-121276751D01*
X122343334Y-121309694D01*
X122368010Y-121356053D01*
G37*
X122368010Y-121356053D02*
X122418785Y-121348661D01*
X122460632Y-121292937D01*
X122442208Y-121249754D01*
X122410361Y-121242666D01*
X122352045Y-121276751D01*
X122343334Y-121309694D01*
X122368010Y-121356053D01*
G36*
X122377220Y-122166624D02*
G01*
X122406834Y-122174000D01*
X122465138Y-122148213D01*
X122454628Y-122089665D01*
X122442111Y-122075222D01*
X122380149Y-122048256D01*
X122344753Y-122092317D01*
X122343334Y-122110500D01*
X122377220Y-122166624D01*
G37*
X122377220Y-122166624D02*
X122406834Y-122174000D01*
X122465138Y-122148213D01*
X122454628Y-122089665D01*
X122442111Y-122075222D01*
X122380149Y-122048256D01*
X122344753Y-122092317D01*
X122343334Y-122110500D01*
X122377220Y-122166624D01*
G36*
X122368010Y-122964720D02*
G01*
X122418785Y-122957327D01*
X122460632Y-122901604D01*
X122442208Y-122858420D01*
X122410361Y-122851333D01*
X122352045Y-122885418D01*
X122343334Y-122918361D01*
X122368010Y-122964720D01*
G37*
X122368010Y-122964720D02*
X122418785Y-122957327D01*
X122460632Y-122901604D01*
X122442208Y-122858420D01*
X122410361Y-122851333D01*
X122352045Y-122885418D01*
X122343334Y-122918361D01*
X122368010Y-122964720D01*
G36*
X122367948Y-123391067D02*
G01*
X122393604Y-123391965D01*
X122449508Y-123349828D01*
X122456616Y-123299102D01*
X122410361Y-123274666D01*
X122352045Y-123308751D01*
X122343334Y-123341694D01*
X122367948Y-123391067D01*
G37*
X122367948Y-123391067D02*
X122393604Y-123391965D01*
X122449508Y-123349828D01*
X122456616Y-123299102D01*
X122410361Y-123274666D01*
X122352045Y-123308751D01*
X122343334Y-123341694D01*
X122367948Y-123391067D01*
G36*
X122358971Y-123550690D02*
G01*
X122400867Y-123595839D01*
X122427701Y-123592351D01*
X122468567Y-123531446D01*
X122432668Y-123468418D01*
X122425184Y-123463425D01*
X122365853Y-123453868D01*
X122347801Y-123506120D01*
X122358971Y-123550690D01*
G37*
X122358971Y-123550690D02*
X122400867Y-123595839D01*
X122427701Y-123592351D01*
X122468567Y-123531446D01*
X122432668Y-123468418D01*
X122425184Y-123463425D01*
X122365853Y-123453868D01*
X122347801Y-123506120D01*
X122358971Y-123550690D01*
G36*
X122377220Y-123775290D02*
G01*
X122406834Y-123782666D01*
X122465138Y-123756879D01*
X122454628Y-123698332D01*
X122442111Y-123683888D01*
X122380149Y-123656923D01*
X122344753Y-123700984D01*
X122343334Y-123719166D01*
X122377220Y-123775290D01*
G37*
X122377220Y-123775290D02*
X122406834Y-123782666D01*
X122465138Y-123756879D01*
X122454628Y-123698332D01*
X122442111Y-123683888D01*
X122380149Y-123656923D01*
X122344753Y-123700984D01*
X122343334Y-123719166D01*
X122377220Y-123775290D01*
G36*
X122368010Y-123980720D02*
G01*
X122418785Y-123973327D01*
X122460632Y-123917604D01*
X122442208Y-123874420D01*
X122410361Y-123867333D01*
X122352045Y-123901418D01*
X122343334Y-123934361D01*
X122368010Y-123980720D01*
G37*
X122368010Y-123980720D02*
X122418785Y-123973327D01*
X122460632Y-123917604D01*
X122442208Y-123874420D01*
X122410361Y-123867333D01*
X122352045Y-123901418D01*
X122343334Y-123934361D01*
X122368010Y-123980720D01*
G36*
X122358971Y-124566690D02*
G01*
X122400867Y-124611839D01*
X122427701Y-124608351D01*
X122468567Y-124547446D01*
X122432668Y-124484418D01*
X122425184Y-124479425D01*
X122365853Y-124469868D01*
X122347801Y-124522120D01*
X122358971Y-124566690D01*
G37*
X122358971Y-124566690D02*
X122400867Y-124611839D01*
X122427701Y-124608351D01*
X122468567Y-124547446D01*
X122432668Y-124484418D01*
X122425184Y-124479425D01*
X122365853Y-124469868D01*
X122347801Y-124522120D01*
X122358971Y-124566690D01*
G36*
X122377220Y-124791290D02*
G01*
X122406834Y-124798666D01*
X122465138Y-124772879D01*
X122454628Y-124714332D01*
X122442111Y-124699888D01*
X122380149Y-124672923D01*
X122344753Y-124716984D01*
X122343334Y-124735166D01*
X122377220Y-124791290D01*
G37*
X122377220Y-124791290D02*
X122406834Y-124798666D01*
X122465138Y-124772879D01*
X122454628Y-124714332D01*
X122442111Y-124699888D01*
X122380149Y-124672923D01*
X122344753Y-124716984D01*
X122343334Y-124735166D01*
X122377220Y-124791290D01*
G36*
X122367948Y-124999734D02*
G01*
X122393604Y-125000631D01*
X122449508Y-124958495D01*
X122456616Y-124907768D01*
X122410361Y-124883333D01*
X122352045Y-124917418D01*
X122343334Y-124950361D01*
X122367948Y-124999734D01*
G37*
X122367948Y-124999734D02*
X122393604Y-125000631D01*
X122449508Y-124958495D01*
X122456616Y-124907768D01*
X122410361Y-124883333D01*
X122352045Y-124917418D01*
X122343334Y-124950361D01*
X122367948Y-124999734D01*
G36*
X122377220Y-125172290D02*
G01*
X122406834Y-125179666D01*
X122465138Y-125153879D01*
X122454628Y-125095332D01*
X122442111Y-125080888D01*
X122380149Y-125053923D01*
X122344753Y-125097984D01*
X122343334Y-125116166D01*
X122377220Y-125172290D01*
G37*
X122377220Y-125172290D02*
X122406834Y-125179666D01*
X122465138Y-125153879D01*
X122454628Y-125095332D01*
X122442111Y-125080888D01*
X122380149Y-125053923D01*
X122344753Y-125097984D01*
X122343334Y-125116166D01*
X122377220Y-125172290D01*
G36*
X122165553Y-107222957D02*
G01*
X122195167Y-107230333D01*
X122251291Y-107196446D01*
X122258667Y-107166833D01*
X122224780Y-107110709D01*
X122195167Y-107103333D01*
X122139043Y-107137219D01*
X122131667Y-107166833D01*
X122165553Y-107222957D01*
G37*
X122165553Y-107222957D02*
X122195167Y-107230333D01*
X122251291Y-107196446D01*
X122258667Y-107166833D01*
X122224780Y-107110709D01*
X122195167Y-107103333D01*
X122139043Y-107137219D01*
X122131667Y-107166833D01*
X122165553Y-107222957D01*
G36*
X122195167Y-107613569D02*
G01*
X122238774Y-107580776D01*
X122252126Y-107545193D01*
X122241660Y-107493273D01*
X122209793Y-107493569D01*
X122161723Y-107535710D01*
X122157697Y-107589304D01*
X122195167Y-107613569D01*
G37*
X122195167Y-107613569D02*
X122238774Y-107580776D01*
X122252126Y-107545193D01*
X122241660Y-107493273D01*
X122209793Y-107493569D01*
X122161723Y-107535710D01*
X122157697Y-107589304D01*
X122195167Y-107613569D01*
G36*
X122165553Y-107815624D02*
G01*
X122195167Y-107823000D01*
X122251291Y-107789113D01*
X122258667Y-107759500D01*
X122224780Y-107703375D01*
X122195167Y-107696000D01*
X122139043Y-107729886D01*
X122131667Y-107759500D01*
X122165553Y-107815624D01*
G37*
X122165553Y-107815624D02*
X122195167Y-107823000D01*
X122251291Y-107789113D01*
X122258667Y-107759500D01*
X122224780Y-107703375D01*
X122195167Y-107696000D01*
X122139043Y-107729886D01*
X122131667Y-107759500D01*
X122165553Y-107815624D01*
G36*
X122152672Y-107983118D02*
G01*
X122208396Y-108024965D01*
X122251579Y-108006540D01*
X122258667Y-107974694D01*
X122224582Y-107916378D01*
X122191639Y-107907666D01*
X122145280Y-107932343D01*
X122152672Y-107983118D01*
G37*
X122152672Y-107983118D02*
X122208396Y-108024965D01*
X122251579Y-108006540D01*
X122258667Y-107974694D01*
X122224582Y-107916378D01*
X122191639Y-107907666D01*
X122145280Y-107932343D01*
X122152672Y-107983118D01*
G36*
X122152672Y-108406451D02*
G01*
X122208396Y-108448298D01*
X122251579Y-108429874D01*
X122258667Y-108398027D01*
X122224582Y-108339711D01*
X122191639Y-108331000D01*
X122145280Y-108355676D01*
X122152672Y-108406451D01*
G37*
X122152672Y-108406451D02*
X122208396Y-108448298D01*
X122251579Y-108429874D01*
X122258667Y-108398027D01*
X122224582Y-108339711D01*
X122191639Y-108331000D01*
X122145280Y-108355676D01*
X122152672Y-108406451D01*
G36*
X122195167Y-109222236D02*
G01*
X122238774Y-109189443D01*
X122252126Y-109153860D01*
X122241660Y-109101940D01*
X122209793Y-109102235D01*
X122161723Y-109144377D01*
X122157697Y-109197971D01*
X122195167Y-109222236D01*
G37*
X122195167Y-109222236D02*
X122238774Y-109189443D01*
X122252126Y-109153860D01*
X122241660Y-109101940D01*
X122209793Y-109102235D01*
X122161723Y-109144377D01*
X122157697Y-109197971D01*
X122195167Y-109222236D01*
G36*
X122195167Y-109645569D02*
G01*
X122238774Y-109612776D01*
X122252126Y-109577193D01*
X122241660Y-109525273D01*
X122209793Y-109525569D01*
X122161723Y-109567710D01*
X122157697Y-109621304D01*
X122195167Y-109645569D01*
G37*
X122195167Y-109645569D02*
X122238774Y-109612776D01*
X122252126Y-109577193D01*
X122241660Y-109525273D01*
X122209793Y-109525569D01*
X122161723Y-109567710D01*
X122157697Y-109621304D01*
X122195167Y-109645569D01*
G36*
X122193642Y-110061461D02*
G01*
X122218832Y-110066666D01*
X122253366Y-110035456D01*
X122253242Y-109971597D01*
X122219259Y-109920307D01*
X122164889Y-109925616D01*
X122153260Y-109938976D01*
X122147593Y-110009413D01*
X122193642Y-110061461D01*
G37*
X122193642Y-110061461D02*
X122218832Y-110066666D01*
X122253366Y-110035456D01*
X122253242Y-109971597D01*
X122219259Y-109920307D01*
X122164889Y-109925616D01*
X122153260Y-109938976D01*
X122147593Y-110009413D01*
X122193642Y-110061461D01*
G36*
X122165553Y-110440290D02*
G01*
X122195167Y-110447666D01*
X122251291Y-110413780D01*
X122258667Y-110384166D01*
X122224780Y-110328042D01*
X122195167Y-110320666D01*
X122139043Y-110354553D01*
X122131667Y-110384166D01*
X122165553Y-110440290D01*
G37*
X122165553Y-110440290D02*
X122195167Y-110447666D01*
X122251291Y-110413780D01*
X122258667Y-110384166D01*
X122224780Y-110328042D01*
X122195167Y-110320666D01*
X122139043Y-110354553D01*
X122131667Y-110384166D01*
X122165553Y-110440290D01*
G36*
X122165553Y-110863624D02*
G01*
X122195167Y-110871000D01*
X122251291Y-110837113D01*
X122258667Y-110807500D01*
X122224780Y-110751375D01*
X122195167Y-110744000D01*
X122139043Y-110777886D01*
X122131667Y-110807500D01*
X122165553Y-110863624D01*
G37*
X122165553Y-110863624D02*
X122195167Y-110871000D01*
X122251291Y-110837113D01*
X122258667Y-110807500D01*
X122224780Y-110751375D01*
X122195167Y-110744000D01*
X122139043Y-110777886D01*
X122131667Y-110807500D01*
X122165553Y-110863624D01*
G36*
X122165553Y-112260624D02*
G01*
X122195167Y-112268000D01*
X122251291Y-112234113D01*
X122258667Y-112204500D01*
X122224780Y-112148375D01*
X122195167Y-112141000D01*
X122139043Y-112174886D01*
X122131667Y-112204500D01*
X122165553Y-112260624D01*
G37*
X122165553Y-112260624D02*
X122195167Y-112268000D01*
X122251291Y-112234113D01*
X122258667Y-112204500D01*
X122224780Y-112148375D01*
X122195167Y-112141000D01*
X122139043Y-112174886D01*
X122131667Y-112204500D01*
X122165553Y-112260624D01*
G36*
X122165553Y-112895624D02*
G01*
X122195167Y-112903000D01*
X122251291Y-112869113D01*
X122258667Y-112839500D01*
X122224780Y-112783375D01*
X122195167Y-112776000D01*
X122139043Y-112809886D01*
X122131667Y-112839500D01*
X122165553Y-112895624D01*
G37*
X122165553Y-112895624D02*
X122195167Y-112903000D01*
X122251291Y-112869113D01*
X122258667Y-112839500D01*
X122224780Y-112783375D01*
X122195167Y-112776000D01*
X122139043Y-112809886D01*
X122131667Y-112839500D01*
X122165553Y-112895624D01*
G36*
X122165553Y-113276624D02*
G01*
X122195167Y-113284000D01*
X122251291Y-113250113D01*
X122258667Y-113220500D01*
X122224780Y-113164375D01*
X122195167Y-113157000D01*
X122139043Y-113190886D01*
X122131667Y-113220500D01*
X122165553Y-113276624D01*
G37*
X122165553Y-113276624D02*
X122195167Y-113284000D01*
X122251291Y-113250113D01*
X122258667Y-113220500D01*
X122224780Y-113164375D01*
X122195167Y-113157000D01*
X122139043Y-113190886D01*
X122131667Y-113220500D01*
X122165553Y-113276624D01*
G36*
X122195167Y-113667236D02*
G01*
X122238774Y-113634443D01*
X122252126Y-113598860D01*
X122241660Y-113546940D01*
X122209793Y-113547235D01*
X122161723Y-113589377D01*
X122157697Y-113642971D01*
X122195167Y-113667236D01*
G37*
X122195167Y-113667236D02*
X122238774Y-113634443D01*
X122252126Y-113598860D01*
X122241660Y-113546940D01*
X122209793Y-113547235D01*
X122161723Y-113589377D01*
X122157697Y-113642971D01*
X122195167Y-113667236D01*
G36*
X122165553Y-114292624D02*
G01*
X122195167Y-114300000D01*
X122251291Y-114266113D01*
X122258667Y-114236500D01*
X122224780Y-114180375D01*
X122195167Y-114173000D01*
X122139043Y-114206886D01*
X122131667Y-114236500D01*
X122165553Y-114292624D01*
G37*
X122165553Y-114292624D02*
X122195167Y-114300000D01*
X122251291Y-114266113D01*
X122258667Y-114236500D01*
X122224780Y-114180375D01*
X122195167Y-114173000D01*
X122139043Y-114206886D01*
X122131667Y-114236500D01*
X122165553Y-114292624D01*
G36*
X122193642Y-114929794D02*
G01*
X122218832Y-114935000D01*
X122253366Y-114903789D01*
X122253242Y-114839930D01*
X122219259Y-114788641D01*
X122164889Y-114793949D01*
X122153260Y-114807309D01*
X122147593Y-114877747D01*
X122193642Y-114929794D01*
G37*
X122193642Y-114929794D02*
X122218832Y-114935000D01*
X122253366Y-114903789D01*
X122253242Y-114839930D01*
X122219259Y-114788641D01*
X122164889Y-114793949D01*
X122153260Y-114807309D01*
X122147593Y-114877747D01*
X122193642Y-114929794D01*
G36*
X122165553Y-116112957D02*
G01*
X122195167Y-116120333D01*
X122251291Y-116086446D01*
X122258667Y-116056833D01*
X122224780Y-116000709D01*
X122195167Y-115993333D01*
X122139043Y-116027219D01*
X122131667Y-116056833D01*
X122165553Y-116112957D01*
G37*
X122165553Y-116112957D02*
X122195167Y-116120333D01*
X122251291Y-116086446D01*
X122258667Y-116056833D01*
X122224780Y-116000709D01*
X122195167Y-115993333D01*
X122139043Y-116027219D01*
X122131667Y-116056833D01*
X122165553Y-116112957D01*
G36*
X122165553Y-116917290D02*
G01*
X122195167Y-116924666D01*
X122251291Y-116890780D01*
X122258667Y-116861166D01*
X122224780Y-116805042D01*
X122195167Y-116797666D01*
X122139043Y-116831553D01*
X122131667Y-116861166D01*
X122165553Y-116917290D01*
G37*
X122165553Y-116917290D02*
X122195167Y-116924666D01*
X122251291Y-116890780D01*
X122258667Y-116861166D01*
X122224780Y-116805042D01*
X122195167Y-116797666D01*
X122139043Y-116831553D01*
X122131667Y-116861166D01*
X122165553Y-116917290D01*
G36*
X122165553Y-117340624D02*
G01*
X122195167Y-117348000D01*
X122251291Y-117314113D01*
X122258667Y-117284500D01*
X122224780Y-117228375D01*
X122195167Y-117221000D01*
X122139043Y-117254886D01*
X122131667Y-117284500D01*
X122165553Y-117340624D01*
G37*
X122165553Y-117340624D02*
X122195167Y-117348000D01*
X122251291Y-117314113D01*
X122258667Y-117284500D01*
X122224780Y-117228375D01*
X122195167Y-117221000D01*
X122139043Y-117254886D01*
X122131667Y-117284500D01*
X122165553Y-117340624D01*
G36*
X122195167Y-118535569D02*
G01*
X122238774Y-118502776D01*
X122252126Y-118467193D01*
X122241660Y-118415273D01*
X122209793Y-118415569D01*
X122161723Y-118457710D01*
X122157697Y-118511304D01*
X122195167Y-118535569D01*
G37*
X122195167Y-118535569D02*
X122238774Y-118502776D01*
X122252126Y-118467193D01*
X122241660Y-118415273D01*
X122209793Y-118415569D01*
X122161723Y-118457710D01*
X122157697Y-118511304D01*
X122195167Y-118535569D01*
G36*
X122165553Y-119330290D02*
G01*
X122195167Y-119337666D01*
X122251291Y-119303780D01*
X122258667Y-119274166D01*
X122224780Y-119218042D01*
X122195167Y-119210666D01*
X122139043Y-119244553D01*
X122131667Y-119274166D01*
X122165553Y-119330290D01*
G37*
X122165553Y-119330290D02*
X122195167Y-119337666D01*
X122251291Y-119303780D01*
X122258667Y-119274166D01*
X122224780Y-119218042D01*
X122195167Y-119210666D01*
X122139043Y-119244553D01*
X122131667Y-119274166D01*
X122165553Y-119330290D01*
G36*
X122165553Y-119753624D02*
G01*
X122195167Y-119761000D01*
X122251291Y-119727113D01*
X122258667Y-119697500D01*
X122224780Y-119641375D01*
X122195167Y-119634000D01*
X122139043Y-119667886D01*
X122131667Y-119697500D01*
X122165553Y-119753624D01*
G37*
X122165553Y-119753624D02*
X122195167Y-119761000D01*
X122251291Y-119727113D01*
X122258667Y-119697500D01*
X122224780Y-119641375D01*
X122195167Y-119634000D01*
X122139043Y-119667886D01*
X122131667Y-119697500D01*
X122165553Y-119753624D01*
G36*
X122165553Y-121362290D02*
G01*
X122195167Y-121369666D01*
X122251291Y-121335780D01*
X122258667Y-121306166D01*
X122224780Y-121250042D01*
X122195167Y-121242666D01*
X122139043Y-121276553D01*
X122131667Y-121306166D01*
X122165553Y-121362290D01*
G37*
X122165553Y-121362290D02*
X122195167Y-121369666D01*
X122251291Y-121335780D01*
X122258667Y-121306166D01*
X122224780Y-121250042D01*
X122195167Y-121242666D01*
X122139043Y-121276553D01*
X122131667Y-121306166D01*
X122165553Y-121362290D01*
G36*
X122165553Y-122166624D02*
G01*
X122195167Y-122174000D01*
X122251291Y-122140113D01*
X122258667Y-122110500D01*
X122224780Y-122054375D01*
X122195167Y-122047000D01*
X122139043Y-122080886D01*
X122131667Y-122110500D01*
X122165553Y-122166624D01*
G37*
X122165553Y-122166624D02*
X122195167Y-122174000D01*
X122251291Y-122140113D01*
X122258667Y-122110500D01*
X122224780Y-122054375D01*
X122195167Y-122047000D01*
X122139043Y-122080886D01*
X122131667Y-122110500D01*
X122165553Y-122166624D01*
G36*
X122165553Y-122970957D02*
G01*
X122195167Y-122978333D01*
X122251291Y-122944446D01*
X122258667Y-122914833D01*
X122224780Y-122858709D01*
X122195167Y-122851333D01*
X122139043Y-122885219D01*
X122131667Y-122914833D01*
X122165553Y-122970957D01*
G37*
X122165553Y-122970957D02*
X122195167Y-122978333D01*
X122251291Y-122944446D01*
X122258667Y-122914833D01*
X122224780Y-122858709D01*
X122195167Y-122851333D01*
X122139043Y-122885219D01*
X122131667Y-122914833D01*
X122165553Y-122970957D01*
G36*
X122165553Y-123394290D02*
G01*
X122195167Y-123401666D01*
X122251291Y-123367780D01*
X122258667Y-123338166D01*
X122224780Y-123282042D01*
X122195167Y-123274666D01*
X122139043Y-123308553D01*
X122131667Y-123338166D01*
X122165553Y-123394290D01*
G37*
X122165553Y-123394290D02*
X122195167Y-123401666D01*
X122251291Y-123367780D01*
X122258667Y-123338166D01*
X122224780Y-123282042D01*
X122195167Y-123274666D01*
X122139043Y-123308553D01*
X122131667Y-123338166D01*
X122165553Y-123394290D01*
G36*
X122195167Y-124589236D02*
G01*
X122238774Y-124556443D01*
X122252126Y-124520860D01*
X122241660Y-124468940D01*
X122209793Y-124469235D01*
X122161723Y-124511377D01*
X122157697Y-124564971D01*
X122195167Y-124589236D01*
G37*
X122195167Y-124589236D02*
X122238774Y-124556443D01*
X122252126Y-124520860D01*
X122241660Y-124468940D01*
X122209793Y-124469235D01*
X122161723Y-124511377D01*
X122157697Y-124564971D01*
X122195167Y-124589236D01*
G36*
X121962334Y-107209166D02*
G01*
X122032515Y-107212243D01*
X122054377Y-107197556D01*
X122069570Y-107145661D01*
X122047000Y-107124500D01*
X121976819Y-107121423D01*
X121954956Y-107136110D01*
X121939764Y-107188005D01*
X121962334Y-107209166D01*
G37*
X121962334Y-107209166D02*
X122032515Y-107212243D01*
X122054377Y-107197556D01*
X122069570Y-107145661D01*
X122047000Y-107124500D01*
X121976819Y-107121423D01*
X121954956Y-107136110D01*
X121939764Y-107188005D01*
X121962334Y-107209166D01*
G36*
X121989575Y-108010507D02*
G01*
X122043909Y-108001378D01*
X122080098Y-107956540D01*
X122067843Y-107914382D01*
X122028473Y-107914207D01*
X121968831Y-107947602D01*
X121960097Y-107971166D01*
X121989575Y-108010507D01*
G37*
X121989575Y-108010507D02*
X122043909Y-108001378D01*
X122080098Y-107956540D01*
X122067843Y-107914382D01*
X122028473Y-107914207D01*
X121968831Y-107947602D01*
X121960097Y-107971166D01*
X121989575Y-108010507D01*
G36*
X121989575Y-108433840D02*
G01*
X122043909Y-108424711D01*
X122080098Y-108379873D01*
X122067843Y-108337715D01*
X122028473Y-108337540D01*
X121968831Y-108370935D01*
X121960097Y-108394500D01*
X121989575Y-108433840D01*
G37*
X121989575Y-108433840D02*
X122043909Y-108424711D01*
X122080098Y-108379873D01*
X122067843Y-108337715D01*
X122028473Y-108337540D01*
X121968831Y-108370935D01*
X121960097Y-108394500D01*
X121989575Y-108433840D01*
G36*
X121965075Y-109202136D02*
G01*
X122023876Y-109241323D01*
X122051797Y-109238202D01*
X122087838Y-109178973D01*
X122051890Y-109117369D01*
X122047000Y-109114166D01*
X121978713Y-109102748D01*
X121944833Y-109144150D01*
X121965075Y-109202136D01*
G37*
X121965075Y-109202136D02*
X122023876Y-109241323D01*
X122051797Y-109238202D01*
X122087838Y-109178973D01*
X122051890Y-109117369D01*
X122047000Y-109114166D01*
X121978713Y-109102748D01*
X121944833Y-109144150D01*
X121965075Y-109202136D01*
G36*
X121942975Y-109603925D02*
G01*
X121995434Y-109638215D01*
X122059101Y-109637719D01*
X122089334Y-109603498D01*
X122058561Y-109546164D01*
X122047000Y-109537500D01*
X121984218Y-109529217D01*
X121940172Y-109562814D01*
X121942975Y-109603925D01*
G37*
X121942975Y-109603925D02*
X121995434Y-109638215D01*
X122059101Y-109637719D01*
X122089334Y-109603498D01*
X122058561Y-109546164D01*
X122047000Y-109537500D01*
X121984218Y-109529217D01*
X121940172Y-109562814D01*
X121942975Y-109603925D01*
G36*
X121962334Y-109833833D02*
G01*
X122032515Y-109836910D01*
X122054377Y-109822222D01*
X122069570Y-109770327D01*
X122047000Y-109749166D01*
X121976819Y-109746089D01*
X121954956Y-109760777D01*
X121939764Y-109812672D01*
X121962334Y-109833833D01*
G37*
X121962334Y-109833833D02*
X122032515Y-109836910D01*
X122054377Y-109822222D01*
X122069570Y-109770327D01*
X122047000Y-109749166D01*
X121976819Y-109746089D01*
X121954956Y-109760777D01*
X121939764Y-109812672D01*
X121962334Y-109833833D01*
G36*
X121962334Y-110426500D02*
G01*
X122032515Y-110429576D01*
X122054377Y-110414889D01*
X122069570Y-110362994D01*
X122047000Y-110341833D01*
X121976819Y-110338756D01*
X121954956Y-110353443D01*
X121939764Y-110405338D01*
X121962334Y-110426500D01*
G37*
X121962334Y-110426500D02*
X122032515Y-110429576D01*
X122054377Y-110414889D01*
X122069570Y-110362994D01*
X122047000Y-110341833D01*
X121976819Y-110338756D01*
X121954956Y-110353443D01*
X121939764Y-110405338D01*
X121962334Y-110426500D01*
G36*
X121962334Y-110849833D02*
G01*
X122032515Y-110852910D01*
X122054377Y-110838222D01*
X122069570Y-110786327D01*
X122047000Y-110765166D01*
X121976819Y-110762089D01*
X121954956Y-110776777D01*
X121939764Y-110828672D01*
X121962334Y-110849833D01*
G37*
X121962334Y-110849833D02*
X122032515Y-110852910D01*
X122054377Y-110838222D01*
X122069570Y-110786327D01*
X122047000Y-110765166D01*
X121976819Y-110762089D01*
X121954956Y-110776777D01*
X121939764Y-110828672D01*
X121962334Y-110849833D01*
G36*
X121962334Y-112246833D02*
G01*
X122032515Y-112249910D01*
X122054377Y-112235222D01*
X122069570Y-112183327D01*
X122047000Y-112162166D01*
X121976819Y-112159089D01*
X121954956Y-112173777D01*
X121939764Y-112225672D01*
X121962334Y-112246833D01*
G37*
X121962334Y-112246833D02*
X122032515Y-112249910D01*
X122054377Y-112235222D01*
X122069570Y-112183327D01*
X122047000Y-112162166D01*
X121976819Y-112159089D01*
X121954956Y-112173777D01*
X121939764Y-112225672D01*
X121962334Y-112246833D01*
G36*
X121989575Y-112878840D02*
G01*
X122043909Y-112869711D01*
X122080098Y-112824873D01*
X122067843Y-112782715D01*
X122028473Y-112782540D01*
X121968831Y-112815935D01*
X121960097Y-112839500D01*
X121989575Y-112878840D01*
G37*
X121989575Y-112878840D02*
X122043909Y-112869711D01*
X122080098Y-112824873D01*
X122067843Y-112782715D01*
X122028473Y-112782540D01*
X121968831Y-112815935D01*
X121960097Y-112839500D01*
X121989575Y-112878840D01*
G36*
X121976311Y-113085689D02*
G01*
X122029427Y-113102082D01*
X122042267Y-113096425D01*
X122087263Y-113034350D01*
X122053048Y-112970827D01*
X122043312Y-112964220D01*
X121976620Y-112961377D01*
X121960408Y-112972659D01*
X121945196Y-113030288D01*
X121976311Y-113085689D01*
G37*
X121976311Y-113085689D02*
X122029427Y-113102082D01*
X122042267Y-113096425D01*
X122087263Y-113034350D01*
X122053048Y-112970827D01*
X122043312Y-112964220D01*
X121976620Y-112961377D01*
X121960408Y-112972659D01*
X121945196Y-113030288D01*
X121976311Y-113085689D01*
G36*
X121976311Y-113678355D02*
G01*
X122029427Y-113694748D01*
X122042267Y-113689091D01*
X122087263Y-113627017D01*
X122053048Y-113563494D01*
X122043312Y-113556886D01*
X121976620Y-113554044D01*
X121960408Y-113565325D01*
X121945196Y-113622955D01*
X121976311Y-113678355D01*
G37*
X121976311Y-113678355D02*
X122029427Y-113694748D01*
X122042267Y-113689091D01*
X122087263Y-113627017D01*
X122053048Y-113563494D01*
X122043312Y-113556886D01*
X121976620Y-113554044D01*
X121960408Y-113565325D01*
X121945196Y-113622955D01*
X121976311Y-113678355D01*
G36*
X121962334Y-114278833D02*
G01*
X122032515Y-114281910D01*
X122054377Y-114267222D01*
X122069570Y-114215327D01*
X122047000Y-114194166D01*
X121976819Y-114191089D01*
X121954956Y-114205777D01*
X121939764Y-114257672D01*
X121962334Y-114278833D01*
G37*
X121962334Y-114278833D02*
X122032515Y-114281910D01*
X122054377Y-114267222D01*
X122069570Y-114215327D01*
X122047000Y-114194166D01*
X121976819Y-114191089D01*
X121954956Y-114205777D01*
X121939764Y-114257672D01*
X121962334Y-114278833D01*
G36*
X121951497Y-114896076D02*
G01*
X121960408Y-114907674D01*
X122021593Y-114922432D01*
X122077884Y-114885800D01*
X122089334Y-114850333D01*
X122058448Y-114796195D01*
X122042267Y-114783908D01*
X121987527Y-114786044D01*
X121949161Y-114835693D01*
X121951497Y-114896076D01*
G37*
X121951497Y-114896076D02*
X121960408Y-114907674D01*
X122021593Y-114922432D01*
X122077884Y-114885800D01*
X122089334Y-114850333D01*
X122058448Y-114796195D01*
X122042267Y-114783908D01*
X121987527Y-114786044D01*
X121949161Y-114835693D01*
X121951497Y-114896076D01*
G36*
X121942975Y-115657591D02*
G01*
X121995434Y-115691882D01*
X122059101Y-115691385D01*
X122089334Y-115657165D01*
X122058561Y-115599831D01*
X122047000Y-115591166D01*
X121984218Y-115582884D01*
X121940172Y-115616481D01*
X121942975Y-115657591D01*
G37*
X121942975Y-115657591D02*
X121995434Y-115691882D01*
X122059101Y-115691385D01*
X122089334Y-115657165D01*
X122058561Y-115599831D01*
X122047000Y-115591166D01*
X121984218Y-115582884D01*
X121940172Y-115616481D01*
X121942975Y-115657591D01*
G36*
X121942975Y-116080925D02*
G01*
X121995434Y-116115215D01*
X122059101Y-116114719D01*
X122089334Y-116080498D01*
X122058561Y-116023164D01*
X122047000Y-116014500D01*
X121984218Y-116006217D01*
X121940172Y-116039814D01*
X121942975Y-116080925D01*
G37*
X121942975Y-116080925D02*
X121995434Y-116115215D01*
X122059101Y-116114719D01*
X122089334Y-116080498D01*
X122058561Y-116023164D01*
X122047000Y-116014500D01*
X121984218Y-116006217D01*
X121940172Y-116039814D01*
X121942975Y-116080925D01*
G36*
X121989575Y-116900507D02*
G01*
X122043909Y-116891378D01*
X122080098Y-116846540D01*
X122067843Y-116804382D01*
X122028473Y-116804207D01*
X121968831Y-116837602D01*
X121960097Y-116861166D01*
X121989575Y-116900507D01*
G37*
X121989575Y-116900507D02*
X122043909Y-116891378D01*
X122080098Y-116846540D01*
X122067843Y-116804382D01*
X122028473Y-116804207D01*
X121968831Y-116837602D01*
X121960097Y-116861166D01*
X121989575Y-116900507D01*
G36*
X121989575Y-117323840D02*
G01*
X122043909Y-117314711D01*
X122080098Y-117269873D01*
X122067843Y-117227715D01*
X122028473Y-117227540D01*
X121968831Y-117260935D01*
X121960097Y-117284500D01*
X121989575Y-117323840D01*
G37*
X121989575Y-117323840D02*
X122043909Y-117314711D01*
X122080098Y-117269873D01*
X122067843Y-117227715D01*
X122028473Y-117227540D01*
X121968831Y-117260935D01*
X121960097Y-117284500D01*
X121989575Y-117323840D01*
G36*
X121981817Y-118558109D02*
G01*
X122012604Y-118565965D01*
X122071195Y-118516700D01*
X122073402Y-118450939D01*
X122061993Y-118435437D01*
X122001329Y-118407396D01*
X121966094Y-118454778D01*
X121962334Y-118494527D01*
X121981817Y-118558109D01*
G37*
X121981817Y-118558109D02*
X122012604Y-118565965D01*
X122071195Y-118516700D01*
X122073402Y-118450939D01*
X122061993Y-118435437D01*
X122001329Y-118407396D01*
X121966094Y-118454778D01*
X121962334Y-118494527D01*
X121981817Y-118558109D01*
G36*
X121962334Y-119316500D02*
G01*
X122032515Y-119319576D01*
X122054377Y-119304889D01*
X122069570Y-119252994D01*
X122047000Y-119231833D01*
X121976819Y-119228756D01*
X121954956Y-119243443D01*
X121939764Y-119295338D01*
X121962334Y-119316500D01*
G37*
X121962334Y-119316500D02*
X122032515Y-119319576D01*
X122054377Y-119304889D01*
X122069570Y-119252994D01*
X122047000Y-119231833D01*
X121976819Y-119228756D01*
X121954956Y-119243443D01*
X121939764Y-119295338D01*
X121962334Y-119316500D01*
G36*
X121962334Y-119739833D02*
G01*
X122032515Y-119742910D01*
X122054377Y-119728222D01*
X122069570Y-119676327D01*
X122047000Y-119655166D01*
X121976819Y-119652089D01*
X121954956Y-119666777D01*
X121939764Y-119718672D01*
X121962334Y-119739833D01*
G37*
X121962334Y-119739833D02*
X122032515Y-119742910D01*
X122054377Y-119728222D01*
X122069570Y-119676327D01*
X122047000Y-119655166D01*
X121976819Y-119652089D01*
X121954956Y-119666777D01*
X121939764Y-119718672D01*
X121962334Y-119739833D01*
G36*
X121951497Y-120526409D02*
G01*
X121960408Y-120538007D01*
X122021593Y-120552766D01*
X122077884Y-120516133D01*
X122089334Y-120480666D01*
X122058448Y-120426528D01*
X122042267Y-120414241D01*
X121987527Y-120416377D01*
X121949161Y-120466026D01*
X121951497Y-120526409D01*
G37*
X121951497Y-120526409D02*
X121960408Y-120538007D01*
X122021593Y-120552766D01*
X122077884Y-120516133D01*
X122089334Y-120480666D01*
X122058448Y-120426528D01*
X122042267Y-120414241D01*
X121987527Y-120416377D01*
X121949161Y-120466026D01*
X121951497Y-120526409D01*
G36*
X121962334Y-121348500D02*
G01*
X122032515Y-121351576D01*
X122054377Y-121336889D01*
X122069570Y-121284994D01*
X122047000Y-121263833D01*
X121976819Y-121260756D01*
X121954956Y-121275443D01*
X121939764Y-121327338D01*
X121962334Y-121348500D01*
G37*
X121962334Y-121348500D02*
X122032515Y-121351576D01*
X122054377Y-121336889D01*
X122069570Y-121284994D01*
X122047000Y-121263833D01*
X121976819Y-121260756D01*
X121954956Y-121275443D01*
X121939764Y-121327338D01*
X121962334Y-121348500D01*
G36*
X121942975Y-122134591D02*
G01*
X121995434Y-122168882D01*
X122059101Y-122168385D01*
X122089334Y-122134165D01*
X122058561Y-122076831D01*
X122047000Y-122068166D01*
X121984218Y-122059884D01*
X121940172Y-122093481D01*
X121942975Y-122134591D01*
G37*
X121942975Y-122134591D02*
X121995434Y-122168882D01*
X122059101Y-122168385D01*
X122089334Y-122134165D01*
X122058561Y-122076831D01*
X122047000Y-122068166D01*
X121984218Y-122059884D01*
X121940172Y-122093481D01*
X121942975Y-122134591D01*
G36*
X121989575Y-122954174D02*
G01*
X122043909Y-122945045D01*
X122080098Y-122900207D01*
X122067843Y-122858048D01*
X122028473Y-122857873D01*
X121968831Y-122891268D01*
X121960097Y-122914833D01*
X121989575Y-122954174D01*
G37*
X121989575Y-122954174D02*
X122043909Y-122945045D01*
X122080098Y-122900207D01*
X122067843Y-122858048D01*
X122028473Y-122857873D01*
X121968831Y-122891268D01*
X121960097Y-122914833D01*
X121989575Y-122954174D01*
G36*
X121989575Y-123377507D02*
G01*
X122043909Y-123368378D01*
X122080098Y-123323540D01*
X122067843Y-123281382D01*
X122028473Y-123281207D01*
X121968831Y-123314602D01*
X121960097Y-123338166D01*
X121989575Y-123377507D01*
G37*
X121989575Y-123377507D02*
X122043909Y-123368378D01*
X122080098Y-123323540D01*
X122067843Y-123281382D01*
X122028473Y-123281207D01*
X121968831Y-123314602D01*
X121960097Y-123338166D01*
X121989575Y-123377507D01*
G36*
X121942975Y-124547591D02*
G01*
X121995434Y-124581882D01*
X122059101Y-124581385D01*
X122089334Y-124547165D01*
X122058561Y-124489831D01*
X122047000Y-124481166D01*
X121984218Y-124472884D01*
X121940172Y-124506481D01*
X121942975Y-124547591D01*
G37*
X121942975Y-124547591D02*
X121995434Y-124581882D01*
X122059101Y-124581385D01*
X122089334Y-124547165D01*
X122058561Y-124489831D01*
X122047000Y-124481166D01*
X121984218Y-124472884D01*
X121940172Y-124506481D01*
X121942975Y-124547591D01*
G36*
X121784553Y-107434624D02*
G01*
X121814167Y-107442000D01*
X121870291Y-107408113D01*
X121877667Y-107378500D01*
X121843780Y-107322375D01*
X121814167Y-107315000D01*
X121758043Y-107348886D01*
X121750667Y-107378500D01*
X121784553Y-107434624D01*
G37*
X121784553Y-107434624D02*
X121814167Y-107442000D01*
X121870291Y-107408113D01*
X121877667Y-107378500D01*
X121843780Y-107322375D01*
X121814167Y-107315000D01*
X121758043Y-107348886D01*
X121750667Y-107378500D01*
X121784553Y-107434624D01*
G36*
X121772260Y-107612023D02*
G01*
X121821012Y-107634552D01*
X121868408Y-107602699D01*
X121877667Y-107569000D01*
X121847188Y-107513799D01*
X121838259Y-107507307D01*
X121788075Y-107510057D01*
X121761264Y-107560950D01*
X121772260Y-107612023D01*
G37*
X121772260Y-107612023D02*
X121821012Y-107634552D01*
X121868408Y-107602699D01*
X121877667Y-107569000D01*
X121847188Y-107513799D01*
X121838259Y-107507307D01*
X121788075Y-107510057D01*
X121761264Y-107560950D01*
X121772260Y-107612023D01*
G36*
X121784553Y-107815624D02*
G01*
X121814167Y-107823000D01*
X121870291Y-107789113D01*
X121877667Y-107759500D01*
X121843780Y-107703375D01*
X121814167Y-107696000D01*
X121758043Y-107729886D01*
X121750667Y-107759500D01*
X121784553Y-107815624D01*
G37*
X121784553Y-107815624D02*
X121814167Y-107823000D01*
X121870291Y-107789113D01*
X121877667Y-107759500D01*
X121843780Y-107703375D01*
X121814167Y-107696000D01*
X121758043Y-107729886D01*
X121750667Y-107759500D01*
X121784553Y-107815624D01*
G36*
X121771672Y-108406451D02*
G01*
X121827396Y-108448298D01*
X121870579Y-108429874D01*
X121877667Y-108398027D01*
X121843582Y-108339711D01*
X121810639Y-108331000D01*
X121764280Y-108355676D01*
X121771672Y-108406451D01*
G37*
X121771672Y-108406451D02*
X121827396Y-108448298D01*
X121870579Y-108429874D01*
X121877667Y-108398027D01*
X121843582Y-108339711D01*
X121810639Y-108331000D01*
X121764280Y-108355676D01*
X121771672Y-108406451D01*
G36*
X121794009Y-109226722D02*
G01*
X121842511Y-109216424D01*
X121870188Y-109158736D01*
X121849734Y-109102253D01*
X121814167Y-109093000D01*
X121760789Y-109123432D01*
X121758726Y-109167083D01*
X121794009Y-109226722D01*
G37*
X121794009Y-109226722D02*
X121842511Y-109216424D01*
X121870188Y-109158736D01*
X121849734Y-109102253D01*
X121814167Y-109093000D01*
X121760789Y-109123432D01*
X121758726Y-109167083D01*
X121794009Y-109226722D01*
G36*
X121794009Y-109650055D02*
G01*
X121842511Y-109639758D01*
X121870188Y-109582069D01*
X121849734Y-109525586D01*
X121814167Y-109516333D01*
X121760789Y-109546765D01*
X121758726Y-109590416D01*
X121794009Y-109650055D01*
G37*
X121794009Y-109650055D02*
X121842511Y-109639758D01*
X121870188Y-109582069D01*
X121849734Y-109525586D01*
X121814167Y-109516333D01*
X121760789Y-109546765D01*
X121758726Y-109590416D01*
X121794009Y-109650055D01*
G36*
X121784553Y-110440290D02*
G01*
X121814167Y-110447666D01*
X121870291Y-110413780D01*
X121877667Y-110384166D01*
X121843780Y-110328042D01*
X121814167Y-110320666D01*
X121758043Y-110354553D01*
X121750667Y-110384166D01*
X121784553Y-110440290D01*
G37*
X121784553Y-110440290D02*
X121814167Y-110447666D01*
X121870291Y-110413780D01*
X121877667Y-110384166D01*
X121843780Y-110328042D01*
X121814167Y-110320666D01*
X121758043Y-110354553D01*
X121750667Y-110384166D01*
X121784553Y-110440290D01*
G36*
X121784553Y-110863624D02*
G01*
X121814167Y-110871000D01*
X121870291Y-110837113D01*
X121877667Y-110807500D01*
X121843780Y-110751375D01*
X121814167Y-110744000D01*
X121758043Y-110777886D01*
X121750667Y-110807500D01*
X121784553Y-110863624D01*
G37*
X121784553Y-110863624D02*
X121814167Y-110871000D01*
X121870291Y-110837113D01*
X121877667Y-110807500D01*
X121843780Y-110751375D01*
X121814167Y-110744000D01*
X121758043Y-110777886D01*
X121750667Y-110807500D01*
X121784553Y-110863624D01*
G36*
X121772260Y-111041023D02*
G01*
X121821012Y-111063552D01*
X121868408Y-111031699D01*
X121877667Y-110998000D01*
X121847188Y-110942799D01*
X121838259Y-110936307D01*
X121788075Y-110939057D01*
X121761264Y-110989950D01*
X121772260Y-111041023D01*
G37*
X121772260Y-111041023D02*
X121821012Y-111063552D01*
X121868408Y-111031699D01*
X121877667Y-110998000D01*
X121847188Y-110942799D01*
X121838259Y-110936307D01*
X121788075Y-110939057D01*
X121761264Y-110989950D01*
X121772260Y-111041023D01*
G36*
X121784553Y-111244624D02*
G01*
X121814167Y-111252000D01*
X121870291Y-111218113D01*
X121877667Y-111188500D01*
X121843780Y-111132375D01*
X121814167Y-111125000D01*
X121758043Y-111158886D01*
X121750667Y-111188500D01*
X121784553Y-111244624D01*
G37*
X121784553Y-111244624D02*
X121814167Y-111252000D01*
X121870291Y-111218113D01*
X121877667Y-111188500D01*
X121843780Y-111132375D01*
X121814167Y-111125000D01*
X121758043Y-111158886D01*
X121750667Y-111188500D01*
X121784553Y-111244624D01*
G36*
X121784553Y-111456290D02*
G01*
X121814167Y-111463666D01*
X121870291Y-111429780D01*
X121877667Y-111400166D01*
X121843780Y-111344042D01*
X121814167Y-111336666D01*
X121758043Y-111370553D01*
X121750667Y-111400166D01*
X121784553Y-111456290D01*
G37*
X121784553Y-111456290D02*
X121814167Y-111463666D01*
X121870291Y-111429780D01*
X121877667Y-111400166D01*
X121843780Y-111344042D01*
X121814167Y-111336666D01*
X121758043Y-111370553D01*
X121750667Y-111400166D01*
X121784553Y-111456290D01*
G36*
X121772260Y-111633690D02*
G01*
X121821012Y-111656219D01*
X121868408Y-111624365D01*
X121877667Y-111590666D01*
X121847188Y-111535466D01*
X121838259Y-111528974D01*
X121788075Y-111531724D01*
X121761264Y-111582617D01*
X121772260Y-111633690D01*
G37*
X121772260Y-111633690D02*
X121821012Y-111656219D01*
X121868408Y-111624365D01*
X121877667Y-111590666D01*
X121847188Y-111535466D01*
X121838259Y-111528974D01*
X121788075Y-111531724D01*
X121761264Y-111582617D01*
X121772260Y-111633690D01*
G36*
X121772260Y-112057023D02*
G01*
X121821012Y-112079552D01*
X121868408Y-112047699D01*
X121877667Y-112014000D01*
X121847188Y-111958799D01*
X121838259Y-111952307D01*
X121788075Y-111955057D01*
X121761264Y-112005950D01*
X121772260Y-112057023D01*
G37*
X121772260Y-112057023D02*
X121821012Y-112079552D01*
X121868408Y-112047699D01*
X121877667Y-112014000D01*
X121847188Y-111958799D01*
X121838259Y-111952307D01*
X121788075Y-111955057D01*
X121761264Y-112005950D01*
X121772260Y-112057023D01*
G36*
X121784553Y-112260624D02*
G01*
X121814167Y-112268000D01*
X121870291Y-112234113D01*
X121877667Y-112204500D01*
X121843780Y-112148375D01*
X121814167Y-112141000D01*
X121758043Y-112174886D01*
X121750667Y-112204500D01*
X121784553Y-112260624D01*
G37*
X121784553Y-112260624D02*
X121814167Y-112268000D01*
X121870291Y-112234113D01*
X121877667Y-112204500D01*
X121843780Y-112148375D01*
X121814167Y-112141000D01*
X121758043Y-112174886D01*
X121750667Y-112204500D01*
X121784553Y-112260624D01*
G36*
X121784553Y-112472290D02*
G01*
X121814167Y-112479666D01*
X121870291Y-112445780D01*
X121877667Y-112416166D01*
X121843780Y-112360042D01*
X121814167Y-112352666D01*
X121758043Y-112386553D01*
X121750667Y-112416166D01*
X121784553Y-112472290D01*
G37*
X121784553Y-112472290D02*
X121814167Y-112479666D01*
X121870291Y-112445780D01*
X121877667Y-112416166D01*
X121843780Y-112360042D01*
X121814167Y-112352666D01*
X121758043Y-112386553D01*
X121750667Y-112416166D01*
X121784553Y-112472290D01*
G36*
X121784553Y-112895624D02*
G01*
X121814167Y-112903000D01*
X121870291Y-112869113D01*
X121877667Y-112839500D01*
X121843780Y-112783375D01*
X121814167Y-112776000D01*
X121758043Y-112809886D01*
X121750667Y-112839500D01*
X121784553Y-112895624D01*
G37*
X121784553Y-112895624D02*
X121814167Y-112903000D01*
X121870291Y-112869113D01*
X121877667Y-112839500D01*
X121843780Y-112783375D01*
X121814167Y-112776000D01*
X121758043Y-112809886D01*
X121750667Y-112839500D01*
X121784553Y-112895624D01*
G36*
X121814167Y-113667236D02*
G01*
X121857774Y-113634443D01*
X121871126Y-113598860D01*
X121860660Y-113546940D01*
X121828793Y-113547235D01*
X121780723Y-113589377D01*
X121776697Y-113642971D01*
X121814167Y-113667236D01*
G37*
X121814167Y-113667236D02*
X121857774Y-113634443D01*
X121871126Y-113598860D01*
X121860660Y-113546940D01*
X121828793Y-113547235D01*
X121780723Y-113589377D01*
X121776697Y-113642971D01*
X121814167Y-113667236D01*
G36*
X121794009Y-114095055D02*
G01*
X121842511Y-114084758D01*
X121870188Y-114027069D01*
X121849734Y-113970586D01*
X121814167Y-113961333D01*
X121760789Y-113991765D01*
X121758726Y-114035416D01*
X121794009Y-114095055D01*
G37*
X121794009Y-114095055D02*
X121842511Y-114084758D01*
X121870188Y-114027069D01*
X121849734Y-113970586D01*
X121814167Y-113961333D01*
X121760789Y-113991765D01*
X121758726Y-114035416D01*
X121794009Y-114095055D01*
G36*
X121784553Y-114292624D02*
G01*
X121814167Y-114300000D01*
X121870291Y-114266113D01*
X121877667Y-114236500D01*
X121843780Y-114180375D01*
X121814167Y-114173000D01*
X121758043Y-114206886D01*
X121750667Y-114236500D01*
X121784553Y-114292624D01*
G37*
X121784553Y-114292624D02*
X121814167Y-114300000D01*
X121870291Y-114266113D01*
X121877667Y-114236500D01*
X121843780Y-114180375D01*
X121814167Y-114173000D01*
X121758043Y-114206886D01*
X121750667Y-114236500D01*
X121784553Y-114292624D01*
G36*
X121812642Y-114506461D02*
G01*
X121837832Y-114511666D01*
X121872366Y-114480456D01*
X121872242Y-114416597D01*
X121838259Y-114365307D01*
X121783889Y-114370616D01*
X121772260Y-114383976D01*
X121766593Y-114454413D01*
X121812642Y-114506461D01*
G37*
X121812642Y-114506461D02*
X121837832Y-114511666D01*
X121872366Y-114480456D01*
X121872242Y-114416597D01*
X121838259Y-114365307D01*
X121783889Y-114370616D01*
X121772260Y-114383976D01*
X121766593Y-114454413D01*
X121812642Y-114506461D01*
G36*
X121794009Y-115111055D02*
G01*
X121842511Y-115100758D01*
X121870188Y-115043069D01*
X121849734Y-114986586D01*
X121814167Y-114977333D01*
X121760789Y-115007765D01*
X121758726Y-115051416D01*
X121794009Y-115111055D01*
G37*
X121794009Y-115111055D02*
X121842511Y-115100758D01*
X121870188Y-115043069D01*
X121849734Y-114986586D01*
X121814167Y-114977333D01*
X121760789Y-115007765D01*
X121758726Y-115051416D01*
X121794009Y-115111055D01*
G36*
X121784553Y-115308624D02*
G01*
X121814167Y-115316000D01*
X121870291Y-115282113D01*
X121877667Y-115252500D01*
X121843780Y-115196375D01*
X121814167Y-115189000D01*
X121758043Y-115222886D01*
X121750667Y-115252500D01*
X121784553Y-115308624D01*
G37*
X121784553Y-115308624D02*
X121814167Y-115316000D01*
X121870291Y-115282113D01*
X121877667Y-115252500D01*
X121843780Y-115196375D01*
X121814167Y-115189000D01*
X121758043Y-115222886D01*
X121750667Y-115252500D01*
X121784553Y-115308624D01*
G36*
X121812642Y-115522461D02*
G01*
X121837832Y-115527666D01*
X121872366Y-115496456D01*
X121872242Y-115432597D01*
X121838259Y-115381307D01*
X121783889Y-115386616D01*
X121772260Y-115399976D01*
X121766593Y-115470413D01*
X121812642Y-115522461D01*
G37*
X121812642Y-115522461D02*
X121837832Y-115527666D01*
X121872366Y-115496456D01*
X121872242Y-115432597D01*
X121838259Y-115381307D01*
X121783889Y-115386616D01*
X121772260Y-115399976D01*
X121766593Y-115470413D01*
X121812642Y-115522461D01*
G36*
X121784553Y-116112957D02*
G01*
X121814167Y-116120333D01*
X121870291Y-116086446D01*
X121877667Y-116056833D01*
X121843780Y-116000709D01*
X121814167Y-115993333D01*
X121758043Y-116027219D01*
X121750667Y-116056833D01*
X121784553Y-116112957D01*
G37*
X121784553Y-116112957D02*
X121814167Y-116120333D01*
X121870291Y-116086446D01*
X121877667Y-116056833D01*
X121843780Y-116000709D01*
X121814167Y-115993333D01*
X121758043Y-116027219D01*
X121750667Y-116056833D01*
X121784553Y-116112957D01*
G36*
X121784553Y-116917290D02*
G01*
X121814167Y-116924666D01*
X121870291Y-116890780D01*
X121877667Y-116861166D01*
X121843780Y-116805042D01*
X121814167Y-116797666D01*
X121758043Y-116831553D01*
X121750667Y-116861166D01*
X121784553Y-116917290D01*
G37*
X121784553Y-116917290D02*
X121814167Y-116924666D01*
X121870291Y-116890780D01*
X121877667Y-116861166D01*
X121843780Y-116805042D01*
X121814167Y-116797666D01*
X121758043Y-116831553D01*
X121750667Y-116861166D01*
X121784553Y-116917290D01*
G36*
X121784553Y-117340624D02*
G01*
X121814167Y-117348000D01*
X121870291Y-117314113D01*
X121877667Y-117284500D01*
X121843780Y-117228375D01*
X121814167Y-117221000D01*
X121758043Y-117254886D01*
X121750667Y-117284500D01*
X121784553Y-117340624D01*
G37*
X121784553Y-117340624D02*
X121814167Y-117348000D01*
X121870291Y-117314113D01*
X121877667Y-117284500D01*
X121843780Y-117228375D01*
X121814167Y-117221000D01*
X121758043Y-117254886D01*
X121750667Y-117284500D01*
X121784553Y-117340624D01*
G36*
X121772260Y-117518023D02*
G01*
X121821012Y-117540552D01*
X121868408Y-117508699D01*
X121877667Y-117475000D01*
X121847188Y-117419799D01*
X121838259Y-117413307D01*
X121788075Y-117416057D01*
X121761264Y-117466950D01*
X121772260Y-117518023D01*
G37*
X121772260Y-117518023D02*
X121821012Y-117540552D01*
X121868408Y-117508699D01*
X121877667Y-117475000D01*
X121847188Y-117419799D01*
X121838259Y-117413307D01*
X121788075Y-117416057D01*
X121761264Y-117466950D01*
X121772260Y-117518023D01*
G36*
X121784553Y-117721624D02*
G01*
X121814167Y-117729000D01*
X121870291Y-117695113D01*
X121877667Y-117665500D01*
X121843780Y-117609375D01*
X121814167Y-117602000D01*
X121758043Y-117635886D01*
X121750667Y-117665500D01*
X121784553Y-117721624D01*
G37*
X121784553Y-117721624D02*
X121814167Y-117729000D01*
X121870291Y-117695113D01*
X121877667Y-117665500D01*
X121843780Y-117609375D01*
X121814167Y-117602000D01*
X121758043Y-117635886D01*
X121750667Y-117665500D01*
X121784553Y-117721624D01*
G36*
X121784553Y-117933290D02*
G01*
X121814167Y-117940666D01*
X121870291Y-117906780D01*
X121877667Y-117877166D01*
X121843780Y-117821042D01*
X121814167Y-117813666D01*
X121758043Y-117847553D01*
X121750667Y-117877166D01*
X121784553Y-117933290D01*
G37*
X121784553Y-117933290D02*
X121814167Y-117940666D01*
X121870291Y-117906780D01*
X121877667Y-117877166D01*
X121843780Y-117821042D01*
X121814167Y-117813666D01*
X121758043Y-117847553D01*
X121750667Y-117877166D01*
X121784553Y-117933290D01*
G36*
X121814167Y-118112236D02*
G01*
X121857774Y-118079443D01*
X121871126Y-118043860D01*
X121860660Y-117991940D01*
X121828793Y-117992235D01*
X121780723Y-118034377D01*
X121776697Y-118087971D01*
X121814167Y-118112236D01*
G37*
X121814167Y-118112236D02*
X121857774Y-118079443D01*
X121871126Y-118043860D01*
X121860660Y-117991940D01*
X121828793Y-117992235D01*
X121780723Y-118034377D01*
X121776697Y-118087971D01*
X121814167Y-118112236D01*
G36*
X121814167Y-118535569D02*
G01*
X121857774Y-118502776D01*
X121871126Y-118467193D01*
X121860660Y-118415273D01*
X121828793Y-118415569D01*
X121780723Y-118457710D01*
X121776697Y-118511304D01*
X121814167Y-118535569D01*
G37*
X121814167Y-118535569D02*
X121857774Y-118502776D01*
X121871126Y-118467193D01*
X121860660Y-118415273D01*
X121828793Y-118415569D01*
X121780723Y-118457710D01*
X121776697Y-118511304D01*
X121814167Y-118535569D01*
G36*
X121784553Y-118737624D02*
G01*
X121814167Y-118745000D01*
X121870291Y-118711113D01*
X121877667Y-118681500D01*
X121843780Y-118625375D01*
X121814167Y-118618000D01*
X121758043Y-118651886D01*
X121750667Y-118681500D01*
X121784553Y-118737624D01*
G37*
X121784553Y-118737624D02*
X121814167Y-118745000D01*
X121870291Y-118711113D01*
X121877667Y-118681500D01*
X121843780Y-118625375D01*
X121814167Y-118618000D01*
X121758043Y-118651886D01*
X121750667Y-118681500D01*
X121784553Y-118737624D01*
G36*
X121784608Y-118949609D02*
G01*
X121814167Y-118956666D01*
X121867417Y-118925097D01*
X121874800Y-118858345D01*
X121850596Y-118816706D01*
X121798797Y-118806861D01*
X121757702Y-118855298D01*
X121750667Y-118895665D01*
X121784608Y-118949609D01*
G37*
X121784608Y-118949609D02*
X121814167Y-118956666D01*
X121867417Y-118925097D01*
X121874800Y-118858345D01*
X121850596Y-118816706D01*
X121798797Y-118806861D01*
X121757702Y-118855298D01*
X121750667Y-118895665D01*
X121784608Y-118949609D01*
G36*
X121814167Y-119128236D02*
G01*
X121857774Y-119095443D01*
X121871126Y-119059860D01*
X121860660Y-119007940D01*
X121828793Y-119008235D01*
X121780723Y-119050377D01*
X121776697Y-119103971D01*
X121814167Y-119128236D01*
G37*
X121814167Y-119128236D02*
X121857774Y-119095443D01*
X121871126Y-119059860D01*
X121860660Y-119007940D01*
X121828793Y-119008235D01*
X121780723Y-119050377D01*
X121776697Y-119103971D01*
X121814167Y-119128236D01*
G36*
X121812642Y-119967461D02*
G01*
X121837832Y-119972666D01*
X121872366Y-119941456D01*
X121872242Y-119877597D01*
X121838259Y-119826307D01*
X121783889Y-119831616D01*
X121772260Y-119844976D01*
X121766593Y-119915413D01*
X121812642Y-119967461D01*
G37*
X121812642Y-119967461D02*
X121837832Y-119972666D01*
X121872366Y-119941456D01*
X121872242Y-119877597D01*
X121838259Y-119826307D01*
X121783889Y-119831616D01*
X121772260Y-119844976D01*
X121766593Y-119915413D01*
X121812642Y-119967461D01*
G36*
X121784553Y-120134624D02*
G01*
X121814167Y-120142000D01*
X121870291Y-120108113D01*
X121877667Y-120078500D01*
X121843780Y-120022375D01*
X121814167Y-120015000D01*
X121758043Y-120048886D01*
X121750667Y-120078500D01*
X121784553Y-120134624D01*
G37*
X121784553Y-120134624D02*
X121814167Y-120142000D01*
X121870291Y-120108113D01*
X121877667Y-120078500D01*
X121843780Y-120022375D01*
X121814167Y-120015000D01*
X121758043Y-120048886D01*
X121750667Y-120078500D01*
X121784553Y-120134624D01*
G36*
X121784553Y-120346290D02*
G01*
X121814167Y-120353666D01*
X121870291Y-120319780D01*
X121877667Y-120290166D01*
X121843780Y-120234042D01*
X121814167Y-120226666D01*
X121758043Y-120260553D01*
X121750667Y-120290166D01*
X121784553Y-120346290D01*
G37*
X121784553Y-120346290D02*
X121814167Y-120353666D01*
X121870291Y-120319780D01*
X121877667Y-120290166D01*
X121843780Y-120234042D01*
X121814167Y-120226666D01*
X121758043Y-120260553D01*
X121750667Y-120290166D01*
X121784553Y-120346290D01*
G36*
X121812642Y-120983461D02*
G01*
X121837832Y-120988666D01*
X121872366Y-120957456D01*
X121872242Y-120893597D01*
X121838259Y-120842307D01*
X121783889Y-120847616D01*
X121772260Y-120860976D01*
X121766593Y-120931413D01*
X121812642Y-120983461D01*
G37*
X121812642Y-120983461D02*
X121837832Y-120988666D01*
X121872366Y-120957456D01*
X121872242Y-120893597D01*
X121838259Y-120842307D01*
X121783889Y-120847616D01*
X121772260Y-120860976D01*
X121766593Y-120931413D01*
X121812642Y-120983461D01*
G36*
X121784553Y-121150624D02*
G01*
X121814167Y-121158000D01*
X121870291Y-121124113D01*
X121877667Y-121094500D01*
X121843780Y-121038375D01*
X121814167Y-121031000D01*
X121758043Y-121064886D01*
X121750667Y-121094500D01*
X121784553Y-121150624D01*
G37*
X121784553Y-121150624D02*
X121814167Y-121158000D01*
X121870291Y-121124113D01*
X121877667Y-121094500D01*
X121843780Y-121038375D01*
X121814167Y-121031000D01*
X121758043Y-121064886D01*
X121750667Y-121094500D01*
X121784553Y-121150624D01*
G36*
X121784553Y-121362290D02*
G01*
X121814167Y-121369666D01*
X121870291Y-121335780D01*
X121877667Y-121306166D01*
X121843780Y-121250042D01*
X121814167Y-121242666D01*
X121758043Y-121276553D01*
X121750667Y-121306166D01*
X121784553Y-121362290D01*
G37*
X121784553Y-121362290D02*
X121814167Y-121369666D01*
X121870291Y-121335780D01*
X121877667Y-121306166D01*
X121843780Y-121250042D01*
X121814167Y-121242666D01*
X121758043Y-121276553D01*
X121750667Y-121306166D01*
X121784553Y-121362290D01*
G36*
X121772260Y-121539690D02*
G01*
X121821012Y-121562219D01*
X121868408Y-121530365D01*
X121877667Y-121496666D01*
X121847188Y-121441466D01*
X121838259Y-121434974D01*
X121788075Y-121437724D01*
X121761264Y-121488617D01*
X121772260Y-121539690D01*
G37*
X121772260Y-121539690D02*
X121821012Y-121562219D01*
X121868408Y-121530365D01*
X121877667Y-121496666D01*
X121847188Y-121441466D01*
X121838259Y-121434974D01*
X121788075Y-121437724D01*
X121761264Y-121488617D01*
X121772260Y-121539690D01*
G36*
X121784553Y-121743290D02*
G01*
X121814167Y-121750666D01*
X121870291Y-121716780D01*
X121877667Y-121687166D01*
X121843780Y-121631042D01*
X121814167Y-121623666D01*
X121758043Y-121657553D01*
X121750667Y-121687166D01*
X121784553Y-121743290D01*
G37*
X121784553Y-121743290D02*
X121814167Y-121750666D01*
X121870291Y-121716780D01*
X121877667Y-121687166D01*
X121843780Y-121631042D01*
X121814167Y-121623666D01*
X121758043Y-121657553D01*
X121750667Y-121687166D01*
X121784553Y-121743290D01*
G36*
X121784553Y-122166624D02*
G01*
X121814167Y-122174000D01*
X121870291Y-122140113D01*
X121877667Y-122110500D01*
X121843780Y-122054375D01*
X121814167Y-122047000D01*
X121758043Y-122080886D01*
X121750667Y-122110500D01*
X121784553Y-122166624D01*
G37*
X121784553Y-122166624D02*
X121814167Y-122174000D01*
X121870291Y-122140113D01*
X121877667Y-122110500D01*
X121843780Y-122054375D01*
X121814167Y-122047000D01*
X121758043Y-122080886D01*
X121750667Y-122110500D01*
X121784553Y-122166624D01*
G36*
X121784553Y-122970957D02*
G01*
X121814167Y-122978333D01*
X121870291Y-122944446D01*
X121877667Y-122914833D01*
X121843780Y-122858709D01*
X121814167Y-122851333D01*
X121758043Y-122885219D01*
X121750667Y-122914833D01*
X121784553Y-122970957D01*
G37*
X121784553Y-122970957D02*
X121814167Y-122978333D01*
X121870291Y-122944446D01*
X121877667Y-122914833D01*
X121843780Y-122858709D01*
X121814167Y-122851333D01*
X121758043Y-122885219D01*
X121750667Y-122914833D01*
X121784553Y-122970957D01*
G36*
X121784553Y-123394290D02*
G01*
X121814167Y-123401666D01*
X121870291Y-123367780D01*
X121877667Y-123338166D01*
X121843780Y-123282042D01*
X121814167Y-123274666D01*
X121758043Y-123308553D01*
X121750667Y-123338166D01*
X121784553Y-123394290D01*
G37*
X121784553Y-123394290D02*
X121814167Y-123401666D01*
X121870291Y-123367780D01*
X121877667Y-123338166D01*
X121843780Y-123282042D01*
X121814167Y-123274666D01*
X121758043Y-123308553D01*
X121750667Y-123338166D01*
X121784553Y-123394290D01*
G36*
X121772260Y-123571690D02*
G01*
X121821012Y-123594219D01*
X121868408Y-123562365D01*
X121877667Y-123528666D01*
X121847188Y-123473466D01*
X121838259Y-123466974D01*
X121788075Y-123469724D01*
X121761264Y-123520617D01*
X121772260Y-123571690D01*
G37*
X121772260Y-123571690D02*
X121821012Y-123594219D01*
X121868408Y-123562365D01*
X121877667Y-123528666D01*
X121847188Y-123473466D01*
X121838259Y-123466974D01*
X121788075Y-123469724D01*
X121761264Y-123520617D01*
X121772260Y-123571690D01*
G36*
X121784553Y-123775290D02*
G01*
X121814167Y-123782666D01*
X121870291Y-123748780D01*
X121877667Y-123719166D01*
X121843780Y-123663042D01*
X121814167Y-123655666D01*
X121758043Y-123689553D01*
X121750667Y-123719166D01*
X121784553Y-123775290D01*
G37*
X121784553Y-123775290D02*
X121814167Y-123782666D01*
X121870291Y-123748780D01*
X121877667Y-123719166D01*
X121843780Y-123663042D01*
X121814167Y-123655666D01*
X121758043Y-123689553D01*
X121750667Y-123719166D01*
X121784553Y-123775290D01*
G36*
X121784553Y-123986957D02*
G01*
X121814167Y-123994333D01*
X121870291Y-123960446D01*
X121877667Y-123930833D01*
X121843780Y-123874709D01*
X121814167Y-123867333D01*
X121758043Y-123901219D01*
X121750667Y-123930833D01*
X121784553Y-123986957D01*
G37*
X121784553Y-123986957D02*
X121814167Y-123994333D01*
X121870291Y-123960446D01*
X121877667Y-123930833D01*
X121843780Y-123874709D01*
X121814167Y-123867333D01*
X121758043Y-123901219D01*
X121750667Y-123930833D01*
X121784553Y-123986957D01*
G36*
X121772260Y-124164357D02*
G01*
X121821012Y-124186886D01*
X121868408Y-124155032D01*
X121877667Y-124121333D01*
X121847188Y-124066133D01*
X121838259Y-124059641D01*
X121788075Y-124062390D01*
X121761264Y-124113283D01*
X121772260Y-124164357D01*
G37*
X121772260Y-124164357D02*
X121821012Y-124186886D01*
X121868408Y-124155032D01*
X121877667Y-124121333D01*
X121847188Y-124066133D01*
X121838259Y-124059641D01*
X121788075Y-124062390D01*
X121761264Y-124113283D01*
X121772260Y-124164357D01*
G36*
X121772260Y-124587690D02*
G01*
X121821012Y-124610219D01*
X121868408Y-124578365D01*
X121877667Y-124544666D01*
X121847188Y-124489466D01*
X121838259Y-124482974D01*
X121788075Y-124485724D01*
X121761264Y-124536617D01*
X121772260Y-124587690D01*
G37*
X121772260Y-124587690D02*
X121821012Y-124610219D01*
X121868408Y-124578365D01*
X121877667Y-124544666D01*
X121847188Y-124489466D01*
X121838259Y-124482974D01*
X121788075Y-124485724D01*
X121761264Y-124536617D01*
X121772260Y-124587690D01*
G36*
X121784553Y-124791290D02*
G01*
X121814167Y-124798666D01*
X121870291Y-124764780D01*
X121877667Y-124735166D01*
X121843780Y-124679042D01*
X121814167Y-124671666D01*
X121758043Y-124705553D01*
X121750667Y-124735166D01*
X121784553Y-124791290D01*
G37*
X121784553Y-124791290D02*
X121814167Y-124798666D01*
X121870291Y-124764780D01*
X121877667Y-124735166D01*
X121843780Y-124679042D01*
X121814167Y-124671666D01*
X121758043Y-124705553D01*
X121750667Y-124735166D01*
X121784553Y-124791290D01*
G36*
X121771672Y-124958785D02*
G01*
X121827396Y-125000631D01*
X121870579Y-124982207D01*
X121877667Y-124950361D01*
X121843582Y-124892045D01*
X121810639Y-124883333D01*
X121764280Y-124908010D01*
X121771672Y-124958785D01*
G37*
X121771672Y-124958785D02*
X121827396Y-125000631D01*
X121870579Y-124982207D01*
X121877667Y-124950361D01*
X121843582Y-124892045D01*
X121810639Y-124883333D01*
X121764280Y-124908010D01*
X121771672Y-124958785D01*
G36*
X121810639Y-125179666D02*
G01*
X121868955Y-125145581D01*
X121877667Y-125112638D01*
X121853053Y-125063265D01*
X121827396Y-125062368D01*
X121771492Y-125104504D01*
X121764384Y-125155231D01*
X121810639Y-125179666D01*
G37*
X121810639Y-125179666D02*
X121868955Y-125145581D01*
X121877667Y-125112638D01*
X121853053Y-125063265D01*
X121827396Y-125062368D01*
X121771492Y-125104504D01*
X121764384Y-125155231D01*
X121810639Y-125179666D01*
G36*
X121784553Y-125383957D02*
G01*
X121814167Y-125391333D01*
X121870291Y-125357446D01*
X121877667Y-125327833D01*
X121843780Y-125271709D01*
X121814167Y-125264333D01*
X121758043Y-125298219D01*
X121750667Y-125327833D01*
X121784553Y-125383957D01*
G37*
X121784553Y-125383957D02*
X121814167Y-125391333D01*
X121870291Y-125357446D01*
X121877667Y-125327833D01*
X121843780Y-125271709D01*
X121814167Y-125264333D01*
X121758043Y-125298219D01*
X121750667Y-125327833D01*
X121784553Y-125383957D01*
D12*
%TO.C,SW1*%
X120170000Y-146330000D02*
X123670000Y-146330000D01*
X123670000Y-143230000D02*
X120170000Y-143230000D01*
X122870000Y-146980000D02*
X122870000Y-146330000D01*
X120970000Y-146980000D02*
X122870000Y-146980000D01*
X120970000Y-146330000D02*
X120970000Y-146980000D01*
%TO.C,4.7uF*%
D13*
X118129857Y-119312619D02*
X118463190Y-119312619D01*
X117939380Y-119193571D02*
X118296523Y-119074523D01*
X118296523Y-119384047D01*
X118415571Y-119574523D02*
X118439380Y-119598333D01*
X118463190Y-119574523D01*
X118439380Y-119550714D01*
X118415571Y-119574523D01*
X118463190Y-119574523D01*
X117963190Y-119765000D02*
X117963190Y-120098333D01*
X118463190Y-119884047D01*
X118129857Y-120503095D02*
X118463190Y-120503095D01*
X118129857Y-120288809D02*
X118391761Y-120288809D01*
X118439380Y-120312619D01*
X118463190Y-120360238D01*
X118463190Y-120431666D01*
X118439380Y-120479285D01*
X118415571Y-120503095D01*
X118201285Y-120907857D02*
X118201285Y-120741190D01*
X118463190Y-120741190D02*
X117963190Y-120741190D01*
X117963190Y-120979285D01*
X124898379Y-97564857D02*
X124898379Y-97898190D01*
X125017427Y-97374380D02*
X125136475Y-97731523D01*
X124826951Y-97731523D01*
X124636475Y-97850571D02*
X124612665Y-97874380D01*
X124636475Y-97898190D01*
X124660284Y-97874380D01*
X124636475Y-97850571D01*
X124636475Y-97898190D01*
X124445999Y-97398190D02*
X124112665Y-97398190D01*
X124326951Y-97898190D01*
X123707903Y-97564857D02*
X123707903Y-97898190D01*
X123922189Y-97564857D02*
X123922189Y-97826761D01*
X123898379Y-97874380D01*
X123850760Y-97898190D01*
X123779332Y-97898190D01*
X123731713Y-97874380D01*
X123707903Y-97850571D01*
X123303141Y-97636285D02*
X123469808Y-97636285D01*
X123469808Y-97898190D02*
X123469808Y-97398190D01*
X123231713Y-97398190D01*
X120250379Y-97555857D02*
X120250379Y-97889190D01*
X120369427Y-97365380D02*
X120488475Y-97722523D01*
X120178951Y-97722523D01*
X119988475Y-97841571D02*
X119964665Y-97865380D01*
X119988475Y-97889190D01*
X120012284Y-97865380D01*
X119988475Y-97841571D01*
X119988475Y-97889190D01*
X119797999Y-97389190D02*
X119464665Y-97389190D01*
X119678951Y-97889190D01*
X119059903Y-97555857D02*
X119059903Y-97889190D01*
X119274189Y-97555857D02*
X119274189Y-97817761D01*
X119250379Y-97865380D01*
X119202760Y-97889190D01*
X119131332Y-97889190D01*
X119083713Y-97865380D01*
X119059903Y-97841571D01*
X118655141Y-97627285D02*
X118821808Y-97627285D01*
X118821808Y-97889190D02*
X118821808Y-97389190D01*
X118583713Y-97389190D01*
%TO.C,5.1K*%
X121138095Y-91166190D02*
X121376190Y-91166190D01*
X121400000Y-91404285D01*
X121376190Y-91380476D01*
X121328571Y-91356666D01*
X121209523Y-91356666D01*
X121161904Y-91380476D01*
X121138095Y-91404285D01*
X121114285Y-91451904D01*
X121114285Y-91570952D01*
X121138095Y-91618571D01*
X121161904Y-91642380D01*
X121209523Y-91666190D01*
X121328571Y-91666190D01*
X121376190Y-91642380D01*
X121400000Y-91618571D01*
X120900000Y-91618571D02*
X120876190Y-91642380D01*
X120900000Y-91666190D01*
X120923809Y-91642380D01*
X120900000Y-91618571D01*
X120900000Y-91666190D01*
X120400000Y-91666190D02*
X120685714Y-91666190D01*
X120542857Y-91666190D02*
X120542857Y-91166190D01*
X120590476Y-91237619D01*
X120638095Y-91285238D01*
X120685714Y-91309047D01*
X120185714Y-91666190D02*
X120185714Y-91166190D01*
X119900000Y-91666190D02*
X120114285Y-91380476D01*
X119900000Y-91166190D02*
X120185714Y-91451904D01*
X123678095Y-91166190D02*
X123916190Y-91166190D01*
X123940000Y-91404285D01*
X123916190Y-91380476D01*
X123868571Y-91356666D01*
X123749523Y-91356666D01*
X123701904Y-91380476D01*
X123678095Y-91404285D01*
X123654285Y-91451904D01*
X123654285Y-91570952D01*
X123678095Y-91618571D01*
X123701904Y-91642380D01*
X123749523Y-91666190D01*
X123868571Y-91666190D01*
X123916190Y-91642380D01*
X123940000Y-91618571D01*
X123440000Y-91618571D02*
X123416190Y-91642380D01*
X123440000Y-91666190D01*
X123463809Y-91642380D01*
X123440000Y-91618571D01*
X123440000Y-91666190D01*
X122940000Y-91666190D02*
X123225714Y-91666190D01*
X123082857Y-91666190D02*
X123082857Y-91166190D01*
X123130476Y-91237619D01*
X123178095Y-91285238D01*
X123225714Y-91309047D01*
X122725714Y-91666190D02*
X122725714Y-91166190D01*
X122440000Y-91666190D02*
X122654285Y-91380476D01*
X122440000Y-91166190D02*
X122725714Y-91451904D01*
%TO.C,470R*%
X129281952Y-92221857D02*
X129281952Y-92555190D01*
X129401000Y-92031380D02*
X129520047Y-92388523D01*
X129210523Y-92388523D01*
X129067666Y-92055190D02*
X128734333Y-92055190D01*
X128948619Y-92555190D01*
X128448619Y-92055190D02*
X128401000Y-92055190D01*
X128353380Y-92079000D01*
X128329571Y-92102809D01*
X128305761Y-92150428D01*
X128281952Y-92245666D01*
X128281952Y-92364714D01*
X128305761Y-92459952D01*
X128329571Y-92507571D01*
X128353380Y-92531380D01*
X128401000Y-92555190D01*
X128448619Y-92555190D01*
X128496238Y-92531380D01*
X128520047Y-92507571D01*
X128543857Y-92459952D01*
X128567666Y-92364714D01*
X128567666Y-92245666D01*
X128543857Y-92150428D01*
X128520047Y-92102809D01*
X128496238Y-92079000D01*
X128448619Y-92055190D01*
X127781952Y-92555190D02*
X127948619Y-92317095D01*
X128067666Y-92555190D02*
X128067666Y-92055190D01*
X127877190Y-92055190D01*
X127829571Y-92079000D01*
X127805761Y-92102809D01*
X127781952Y-92150428D01*
X127781952Y-92221857D01*
X127805761Y-92269476D01*
X127829571Y-92293285D01*
X127877190Y-92317095D01*
X128067666Y-92317095D01*
%TO.C,VBUS1*%
X120288809Y-103008761D02*
X119788809Y-102842095D01*
X120288809Y-102675428D01*
X120050714Y-102342095D02*
X120026904Y-102270666D01*
X120003095Y-102246857D01*
X119955476Y-102223047D01*
X119884047Y-102223047D01*
X119836428Y-102246857D01*
X119812619Y-102270666D01*
X119788809Y-102318285D01*
X119788809Y-102508761D01*
X120288809Y-102508761D01*
X120288809Y-102342095D01*
X120265000Y-102294476D01*
X120241190Y-102270666D01*
X120193571Y-102246857D01*
X120145952Y-102246857D01*
X120098333Y-102270666D01*
X120074523Y-102294476D01*
X120050714Y-102342095D01*
X120050714Y-102508761D01*
X120288809Y-102008761D02*
X119884047Y-102008761D01*
X119836428Y-101984952D01*
X119812619Y-101961142D01*
X119788809Y-101913523D01*
X119788809Y-101818285D01*
X119812619Y-101770666D01*
X119836428Y-101746857D01*
X119884047Y-101723047D01*
X120288809Y-101723047D01*
X119812619Y-101508761D02*
X119788809Y-101437333D01*
X119788809Y-101318285D01*
X119812619Y-101270666D01*
X119836428Y-101246857D01*
X119884047Y-101223047D01*
X119931666Y-101223047D01*
X119979285Y-101246857D01*
X120003095Y-101270666D01*
X120026904Y-101318285D01*
X120050714Y-101413523D01*
X120074523Y-101461142D01*
X120098333Y-101484952D01*
X120145952Y-101508761D01*
X120193571Y-101508761D01*
X120241190Y-101484952D01*
X120265000Y-101461142D01*
X120288809Y-101413523D01*
X120288809Y-101294476D01*
X120265000Y-101223047D01*
X119788809Y-100746857D02*
X119788809Y-101032571D01*
X119788809Y-100889714D02*
X120288809Y-100889714D01*
X120217380Y-100937333D01*
X120169761Y-100984952D01*
X120145952Y-101032571D01*
%TO.C,VBUS2*%
X124107809Y-102881761D02*
X123607809Y-102715095D01*
X124107809Y-102548428D01*
X123869714Y-102215095D02*
X123845904Y-102143666D01*
X123822095Y-102119857D01*
X123774476Y-102096047D01*
X123703047Y-102096047D01*
X123655428Y-102119857D01*
X123631619Y-102143666D01*
X123607809Y-102191285D01*
X123607809Y-102381761D01*
X124107809Y-102381761D01*
X124107809Y-102215095D01*
X124084000Y-102167476D01*
X124060190Y-102143666D01*
X124012571Y-102119857D01*
X123964952Y-102119857D01*
X123917333Y-102143666D01*
X123893523Y-102167476D01*
X123869714Y-102215095D01*
X123869714Y-102381761D01*
X124107809Y-101881761D02*
X123703047Y-101881761D01*
X123655428Y-101857952D01*
X123631619Y-101834142D01*
X123607809Y-101786523D01*
X123607809Y-101691285D01*
X123631619Y-101643666D01*
X123655428Y-101619857D01*
X123703047Y-101596047D01*
X124107809Y-101596047D01*
X123631619Y-101381761D02*
X123607809Y-101310333D01*
X123607809Y-101191285D01*
X123631619Y-101143666D01*
X123655428Y-101119857D01*
X123703047Y-101096047D01*
X123750666Y-101096047D01*
X123798285Y-101119857D01*
X123822095Y-101143666D01*
X123845904Y-101191285D01*
X123869714Y-101286523D01*
X123893523Y-101334142D01*
X123917333Y-101357952D01*
X123964952Y-101381761D01*
X124012571Y-101381761D01*
X124060190Y-101357952D01*
X124084000Y-101334142D01*
X124107809Y-101286523D01*
X124107809Y-101167476D01*
X124084000Y-101096047D01*
X124060190Y-100905571D02*
X124084000Y-100881761D01*
X124107809Y-100834142D01*
X124107809Y-100715095D01*
X124084000Y-100667476D01*
X124060190Y-100643666D01*
X124012571Y-100619857D01*
X123964952Y-100619857D01*
X123893523Y-100643666D01*
X123607809Y-100929380D01*
X123607809Y-100619857D01*
%TO.C,Rx_res1*%
X114844809Y-91598619D02*
X115082904Y-91765285D01*
X114844809Y-91884333D02*
X115344809Y-91884333D01*
X115344809Y-91693857D01*
X115321000Y-91646238D01*
X115297190Y-91622428D01*
X115249571Y-91598619D01*
X115178142Y-91598619D01*
X115130523Y-91622428D01*
X115106714Y-91646238D01*
X115082904Y-91693857D01*
X115082904Y-91884333D01*
X114844809Y-91431952D02*
X115178142Y-91170047D01*
X115178142Y-91431952D02*
X114844809Y-91170047D01*
X114797190Y-91098619D02*
X114797190Y-90717666D01*
X114844809Y-90598619D02*
X115178142Y-90598619D01*
X115082904Y-90598619D02*
X115130523Y-90574809D01*
X115154333Y-90551000D01*
X115178142Y-90503380D01*
X115178142Y-90455761D01*
X114868619Y-90098619D02*
X114844809Y-90146238D01*
X114844809Y-90241476D01*
X114868619Y-90289095D01*
X114916238Y-90312904D01*
X115106714Y-90312904D01*
X115154333Y-90289095D01*
X115178142Y-90241476D01*
X115178142Y-90146238D01*
X115154333Y-90098619D01*
X115106714Y-90074809D01*
X115059095Y-90074809D01*
X115011476Y-90312904D01*
X114868619Y-89884333D02*
X114844809Y-89836714D01*
X114844809Y-89741476D01*
X114868619Y-89693857D01*
X114916238Y-89670047D01*
X114940047Y-89670047D01*
X114987666Y-89693857D01*
X115011476Y-89741476D01*
X115011476Y-89812904D01*
X115035285Y-89860523D01*
X115082904Y-89884333D01*
X115106714Y-89884333D01*
X115154333Y-89860523D01*
X115178142Y-89812904D01*
X115178142Y-89741476D01*
X115154333Y-89693857D01*
X114844809Y-89193857D02*
X114844809Y-89479571D01*
X114844809Y-89336714D02*
X115344809Y-89336714D01*
X115273380Y-89384333D01*
X115225761Y-89431952D01*
X115201952Y-89479571D01*
%TO.C,Tx_res1*%
X114897190Y-92761761D02*
X114897190Y-93047476D01*
X115397190Y-92904619D02*
X114897190Y-92904619D01*
X115397190Y-93166523D02*
X115063857Y-93428428D01*
X115063857Y-93166523D02*
X115397190Y-93428428D01*
X115444809Y-93499857D02*
X115444809Y-93880809D01*
X115397190Y-93999857D02*
X115063857Y-93999857D01*
X115159095Y-93999857D02*
X115111476Y-94023666D01*
X115087666Y-94047476D01*
X115063857Y-94095095D01*
X115063857Y-94142714D01*
X115373380Y-94499857D02*
X115397190Y-94452238D01*
X115397190Y-94357000D01*
X115373380Y-94309380D01*
X115325761Y-94285571D01*
X115135285Y-94285571D01*
X115087666Y-94309380D01*
X115063857Y-94357000D01*
X115063857Y-94452238D01*
X115087666Y-94499857D01*
X115135285Y-94523666D01*
X115182904Y-94523666D01*
X115230523Y-94285571D01*
X115373380Y-94714142D02*
X115397190Y-94761761D01*
X115397190Y-94857000D01*
X115373380Y-94904619D01*
X115325761Y-94928428D01*
X115301952Y-94928428D01*
X115254333Y-94904619D01*
X115230523Y-94857000D01*
X115230523Y-94785571D01*
X115206714Y-94737952D01*
X115159095Y-94714142D01*
X115135285Y-94714142D01*
X115087666Y-94737952D01*
X115063857Y-94785571D01*
X115063857Y-94857000D01*
X115087666Y-94904619D01*
X115397190Y-95404619D02*
X115397190Y-95118904D01*
X115397190Y-95261761D02*
X114897190Y-95261761D01*
X114968619Y-95214142D01*
X115016238Y-95166523D01*
X115040047Y-95118904D01*
%TD*%
M02*
