%TF.GenerationSoftware,KiCad,Pcbnew,(5.1.9)-1*%
%TF.CreationDate,2021-04-12T21:57:58+01:00*%
%TF.ProjectId,Propeller_dev_board,50726f70-656c-46c6-9572-5f6465765f62,rev?*%
%TF.SameCoordinates,Original*%
%TF.FileFunction,Paste,Bot*%
%TF.FilePolarity,Positive*%
%FSLAX46Y46*%
G04 Gerber Fmt 4.6, Leading zero omitted, Abs format (unit mm)*
G04 Created by KiCad (PCBNEW (5.1.9)-1) date 2021-04-12 21:57:58*
%MOMM*%
%LPD*%
G01*
G04 APERTURE LIST*
%ADD10R,1.400000X1.050000*%
G04 APERTURE END LIST*
%TO.C,4.7uF*%
G36*
G01*
X118929999Y-118415000D02*
X119830001Y-118415000D01*
G75*
G02*
X120080000Y-118664999I0J-249999D01*
G01*
X120080000Y-119315001D01*
G75*
G02*
X119830001Y-119565000I-249999J0D01*
G01*
X118929999Y-119565000D01*
G75*
G02*
X118680000Y-119315001I0J249999D01*
G01*
X118680000Y-118664999D01*
G75*
G02*
X118929999Y-118415000I249999J0D01*
G01*
G37*
G36*
G01*
X118929999Y-120465000D02*
X119830001Y-120465000D01*
G75*
G02*
X120080000Y-120714999I0J-249999D01*
G01*
X120080000Y-121365001D01*
G75*
G02*
X119830001Y-121615000I-249999J0D01*
G01*
X118929999Y-121615000D01*
G75*
G02*
X118680000Y-121365001I0J249999D01*
G01*
X118680000Y-120714999D01*
G75*
G02*
X118929999Y-120465000I249999J0D01*
G01*
G37*
%TD*%
%TO.C,4.7uF*%
G36*
G01*
X123628999Y-98122000D02*
X124529001Y-98122000D01*
G75*
G02*
X124779000Y-98371999I0J-249999D01*
G01*
X124779000Y-99022001D01*
G75*
G02*
X124529001Y-99272000I-249999J0D01*
G01*
X123628999Y-99272000D01*
G75*
G02*
X123379000Y-99022001I0J249999D01*
G01*
X123379000Y-98371999D01*
G75*
G02*
X123628999Y-98122000I249999J0D01*
G01*
G37*
G36*
G01*
X123628999Y-96072000D02*
X124529001Y-96072000D01*
G75*
G02*
X124779000Y-96321999I0J-249999D01*
G01*
X124779000Y-96972001D01*
G75*
G02*
X124529001Y-97222000I-249999J0D01*
G01*
X123628999Y-97222000D01*
G75*
G02*
X123379000Y-96972001I0J249999D01*
G01*
X123379000Y-96321999D01*
G75*
G02*
X123628999Y-96072000I249999J0D01*
G01*
G37*
%TD*%
%TO.C,4.7uF*%
G36*
G01*
X119056999Y-96063000D02*
X119957001Y-96063000D01*
G75*
G02*
X120207000Y-96312999I0J-249999D01*
G01*
X120207000Y-96963001D01*
G75*
G02*
X119957001Y-97213000I-249999J0D01*
G01*
X119056999Y-97213000D01*
G75*
G02*
X118807000Y-96963001I0J249999D01*
G01*
X118807000Y-96312999D01*
G75*
G02*
X119056999Y-96063000I249999J0D01*
G01*
G37*
G36*
G01*
X119056999Y-98113000D02*
X119957001Y-98113000D01*
G75*
G02*
X120207000Y-98362999I0J-249999D01*
G01*
X120207000Y-99013001D01*
G75*
G02*
X119957001Y-99263000I-249999J0D01*
G01*
X119056999Y-99263000D01*
G75*
G02*
X118807000Y-99013001I0J249999D01*
G01*
X118807000Y-98362999D01*
G75*
G02*
X119056999Y-98113000I249999J0D01*
G01*
G37*
%TD*%
%TO.C,5.1K*%
G36*
G01*
X120199999Y-89840000D02*
X121100001Y-89840000D01*
G75*
G02*
X121350000Y-90089999I0J-249999D01*
G01*
X121350000Y-90740001D01*
G75*
G02*
X121100001Y-90990000I-249999J0D01*
G01*
X120199999Y-90990000D01*
G75*
G02*
X119950000Y-90740001I0J249999D01*
G01*
X119950000Y-90089999D01*
G75*
G02*
X120199999Y-89840000I249999J0D01*
G01*
G37*
G36*
G01*
X120199999Y-91890000D02*
X121100001Y-91890000D01*
G75*
G02*
X121350000Y-92139999I0J-249999D01*
G01*
X121350000Y-92790001D01*
G75*
G02*
X121100001Y-93040000I-249999J0D01*
G01*
X120199999Y-93040000D01*
G75*
G02*
X119950000Y-92790001I0J249999D01*
G01*
X119950000Y-92139999D01*
G75*
G02*
X120199999Y-91890000I249999J0D01*
G01*
G37*
%TD*%
%TO.C,5.1K*%
G36*
G01*
X122739999Y-89840000D02*
X123640001Y-89840000D01*
G75*
G02*
X123890000Y-90089999I0J-249999D01*
G01*
X123890000Y-90740001D01*
G75*
G02*
X123640001Y-90990000I-249999J0D01*
G01*
X122739999Y-90990000D01*
G75*
G02*
X122490000Y-90740001I0J249999D01*
G01*
X122490000Y-90089999D01*
G75*
G02*
X122739999Y-89840000I249999J0D01*
G01*
G37*
G36*
G01*
X122739999Y-91890000D02*
X123640001Y-91890000D01*
G75*
G02*
X123890000Y-92139999I0J-249999D01*
G01*
X123890000Y-92790001D01*
G75*
G02*
X123640001Y-93040000I-249999J0D01*
G01*
X122739999Y-93040000D01*
G75*
G02*
X122490000Y-92790001I0J249999D01*
G01*
X122490000Y-92139999D01*
G75*
G02*
X122739999Y-91890000I249999J0D01*
G01*
G37*
%TD*%
%TO.C,470R*%
G36*
G01*
X129101450Y-93929000D02*
X128200550Y-93929000D01*
G75*
G02*
X127951000Y-93679450I0J249550D01*
G01*
X127951000Y-93028550D01*
G75*
G02*
X128200550Y-92779000I249550J0D01*
G01*
X129101450Y-92779000D01*
G75*
G02*
X129351000Y-93028550I0J-249550D01*
G01*
X129351000Y-93679450D01*
G75*
G02*
X129101450Y-93929000I-249550J0D01*
G01*
G37*
G36*
G01*
X129101001Y-91879000D02*
X128200999Y-91879000D01*
G75*
G02*
X127951000Y-91629001I0J249999D01*
G01*
X127951000Y-90978999D01*
G75*
G02*
X128200999Y-90729000I249999J0D01*
G01*
X129101001Y-90729000D01*
G75*
G02*
X129351000Y-90978999I0J-249999D01*
G01*
X129351000Y-91629001D01*
G75*
G02*
X129101001Y-91879000I-249999J0D01*
G01*
G37*
%TD*%
%TO.C,VBUS1*%
G36*
G01*
X120465000Y-102177001D02*
X120465000Y-101276999D01*
G75*
G02*
X120714999Y-101027000I249999J0D01*
G01*
X121365001Y-101027000D01*
G75*
G02*
X121615000Y-101276999I0J-249999D01*
G01*
X121615000Y-102177001D01*
G75*
G02*
X121365001Y-102427000I-249999J0D01*
G01*
X120714999Y-102427000D01*
G75*
G02*
X120465000Y-102177001I0J249999D01*
G01*
G37*
G36*
G01*
X118415000Y-102177001D02*
X118415000Y-101276999D01*
G75*
G02*
X118664999Y-101027000I249999J0D01*
G01*
X119315001Y-101027000D01*
G75*
G02*
X119565000Y-101276999I0J-249999D01*
G01*
X119565000Y-102177001D01*
G75*
G02*
X119315001Y-102427000I-249999J0D01*
G01*
X118664999Y-102427000D01*
G75*
G02*
X118415000Y-102177001I0J249999D01*
G01*
G37*
%TD*%
%TO.C,VBUS2*%
G36*
G01*
X122234000Y-102177001D02*
X122234000Y-101276999D01*
G75*
G02*
X122483999Y-101027000I249999J0D01*
G01*
X123134001Y-101027000D01*
G75*
G02*
X123384000Y-101276999I0J-249999D01*
G01*
X123384000Y-102177001D01*
G75*
G02*
X123134001Y-102427000I-249999J0D01*
G01*
X122483999Y-102427000D01*
G75*
G02*
X122234000Y-102177001I0J249999D01*
G01*
G37*
G36*
G01*
X124284000Y-102177001D02*
X124284000Y-101276999D01*
G75*
G02*
X124533999Y-101027000I249999J0D01*
G01*
X125184001Y-101027000D01*
G75*
G02*
X125434000Y-101276999I0J-249999D01*
G01*
X125434000Y-102177001D01*
G75*
G02*
X125184001Y-102427000I-249999J0D01*
G01*
X124533999Y-102427000D01*
G75*
G02*
X124284000Y-102177001I0J249999D01*
G01*
G37*
%TD*%
%TO.C,Rx_res1*%
G36*
G01*
X115512000Y-91890001D02*
X115512000Y-90989999D01*
G75*
G02*
X115761999Y-90740000I249999J0D01*
G01*
X116412001Y-90740000D01*
G75*
G02*
X116662000Y-90989999I0J-249999D01*
G01*
X116662000Y-91890001D01*
G75*
G02*
X116412001Y-92140000I-249999J0D01*
G01*
X115761999Y-92140000D01*
G75*
G02*
X115512000Y-91890001I0J249999D01*
G01*
G37*
G36*
G01*
X113462000Y-91890001D02*
X113462000Y-90989999D01*
G75*
G02*
X113711999Y-90740000I249999J0D01*
G01*
X114362001Y-90740000D01*
G75*
G02*
X114612000Y-90989999I0J-249999D01*
G01*
X114612000Y-91890001D01*
G75*
G02*
X114362001Y-92140000I-249999J0D01*
G01*
X113711999Y-92140000D01*
G75*
G02*
X113462000Y-91890001I0J249999D01*
G01*
G37*
%TD*%
%TO.C,Tx_res1*%
G36*
G01*
X116780000Y-92894999D02*
X116780000Y-93795001D01*
G75*
G02*
X116530001Y-94045000I-249999J0D01*
G01*
X115879999Y-94045000D01*
G75*
G02*
X115630000Y-93795001I0J249999D01*
G01*
X115630000Y-92894999D01*
G75*
G02*
X115879999Y-92645000I249999J0D01*
G01*
X116530001Y-92645000D01*
G75*
G02*
X116780000Y-92894999I0J-249999D01*
G01*
G37*
G36*
G01*
X114730000Y-92894999D02*
X114730000Y-93795001D01*
G75*
G02*
X114480001Y-94045000I-249999J0D01*
G01*
X113829999Y-94045000D01*
G75*
G02*
X113580000Y-93795001I0J249999D01*
G01*
X113580000Y-92894999D01*
G75*
G02*
X113829999Y-92645000I249999J0D01*
G01*
X114480001Y-92645000D01*
G75*
G02*
X114730000Y-92894999I0J-249999D01*
G01*
G37*
%TD*%
D10*
%TO.C,SW1*%
X120120000Y-144060000D03*
X123720000Y-144060000D03*
X120120000Y-145500000D03*
X123720000Y-145500000D03*
%TD*%
M02*
